<svg xmlns="http://www.w3.org/2000/svg" xmlns:xlink="http://www.w3.org/1999/xlink" width="429.741" height="382.648" viewBox="0 0 429.741 382.648"><defs><clipPath id="a"><circle cx="35.806" cy="35.806" r="35.806" transform="translate(251.791 355.307) rotate(-13.078)" fill="#fff" stroke="#000" stroke-linecap="round" stroke-linejoin="round" stroke-width="1.113"/></clipPath><clipPath id="b"><path d="M231.153,342.281c-22.266,0-35.641-19.752-40.394-37.124l-.161-.609a6.535,6.535,0,1,1,12.65-3.289l.119.453c3.617,13.221,13.447,28.331,29.213,27.459a21.187,21.187,0,0,0,15.481-7.556c8.651-9.912,12.519-31.49,11.655-42.367a5.228,5.228,0,0,1,10.423-.828c.962,12.1-.317,38.141-12.232,51.79a34.09,34.09,0,0,1-24.592,12.01C232.586,342.261,231.864,342.281,231.153,342.281Z" fill="#fff" stroke="#000" stroke-linecap="round" stroke-linejoin="round" stroke-width="1.113"/></clipPath><clipPath id="c"><path d="M216.208,216.681s-9.7,28.119-4.479,50.018a42.809,42.809,0,0,0,24.387,29.115s-14.185,4.977-10.949,12.691,15.428,2.737,19.41.249,8.958-9.954,9.705-14.931a35.945,35.945,0,0,0,.5-7.714s16.175-1.742,27.124-10.7c0,0,9.7,7.715,16.673,6.221S315.5,267.694,314.5,256.5s-7.465-11.2-11.447-9.456a16.042,16.042,0,0,0-5.474,3.484s5.723-6.968,0-16.673A21.732,21.732,0,0,0,281.655,223.4s-2.987-15.927-11.945-21.9S228.9,189.308,216.208,216.681Z" fill="#fff" stroke="#000" stroke-linecap="round" stroke-linejoin="round" stroke-width="1.113"/></clipPath><clipPath id="d"><path d="M196.052,202.5s-10.452,14.682-11.945,29.613.249,24.885,4.728,28.618,8.958,2.239,11.447-1.245-1.493-15.677-1.493-15.677,4.23-11.7,10.7-19.908,7.714-9.456,7.714-9.456S206.005,201.75,196.052,202.5Z" fill="#fff" stroke="#000" stroke-linecap="round" stroke-linejoin="round" stroke-width="1.113"/></clipPath><clipPath id="e"><path d="M277.9,195.248s11.841,13.586,14.791,28.3,2.193,24.789-1.9,28.943-8.7,3.107-11.514-.116-.052-15.748-.052-15.748-5.357-11.224-12.6-18.762-8.605-8.654-8.605-8.654S267.922,195.482,277.9,195.248Z" fill="#fff" stroke="#000" stroke-linecap="round" stroke-linejoin="round" stroke-width="1.113"/></clipPath><clipPath id="f"><path d="M195.072,189.8s-3.08,10.393-1.925,14.628,6.544.385,11.933,5,10.385,12.928,30.787,14.468,32.729-9.464,36.964-15.623,3.849-13.473,11.163-13.858,1.155-14.628-1.155-16.938c0,0,14.244-21.172,14.244-26.561s-13.474-4.234-30.026.77c0,0-12.319-6.544-34.646-2.695s-28.871,10.394-28.871,10.394-27.716,3.464-29.64,6.929S177.749,184.407,195.072,189.8Z" fill="#fff" stroke="#000" stroke-miterlimit="10" stroke-width="1.113"/></clipPath></defs><g transform="translate(-745.13 -348.676)"><g transform="translate(704.197 290.147)"><path d="M41.058,263.176s2.344,72.677,63.013,121.118S248.808,436.2,316.865,440.8,437.2,406.88,445.075,348.64,400.949,273.3,372.734,207.011s-25.705-88.086-85.406-128.86S134.235,62.413,85.269,132.266,41.058,263.176,41.058,263.176Z" fill="#4a4a4a"/><path d="M41.058,263.176s2.344,72.677,63.013,121.118S248.808,436.2,316.865,440.8,437.2,406.88,445.075,348.64,400.949,273.3,372.734,207.011s-25.705-88.086-85.406-128.86S134.235,62.413,85.269,132.266,41.058,263.176,41.058,263.176Z" fill="#fff" opacity="0.7"/></g><g transform="translate(704.197 290.147)"><line x1="9.177" transform="translate(59.49 380.533)" fill="none" stroke="#000" stroke-miterlimit="10" stroke-width="1.113"/><line x1="357.315" transform="translate(83.195 380.533)" fill="none" stroke="#000" stroke-miterlimit="10" stroke-width="1.113"/></g><g transform="translate(704.197 290.147)"><ellipse cx="30.395" cy="8.359" rx="30.395" ry="8.359" transform="translate(275.673 402.187)"/><path d="M149.026,429.539c-31.624,0-36.292-4.572-36.754-8.261a5,5,0,0,1,1.44-4.233c8.522-8.936,57.613-5.157,125.559.076,9.477.729,19.279,1.484,29.33,2.231,68.654,5.1,96.291,4.437,101.975-2.458,1.165-1.414,1.407-3.178.76-5.551-2.716-9.956-39.072-10.033-52.848-9.226a1.188,1.188,0,1,1-.139-2.372c5.268-.309,51.568-2.634,55.28,10.974.856,3.139.457,5.653-1.22,7.687-6.413,7.78-32.65,8.615-103.984,3.315-10.053-.747-19.857-1.5-29.336-2.231-64.762-4.988-115.915-8.928-123.658-.8a2.655,2.655,0,0,0-.8,2.3c.294,2.353,5.948,7.632,52.011,5.793,25.727-1.026,51.58-3.828,51.838-3.856a1.188,1.188,0,1,1,.258,2.362c-.259.028-26.182,2.839-51.991,3.868C160.057,429.417,154.182,429.539,149.026,429.539Z" fill="#fff" stroke="#000" stroke-miterlimit="10" stroke-width="1.113"/><circle cx="35.806" cy="35.806" r="35.806" transform="translate(251.791 355.307) rotate(-13.078)" fill="#fff"/><g clip-path="url(#a)"><path d="M294.77,417.887a35.805,35.805,0,0,0,29.585-55.974c-.4,15.594-9.021,38.624-53.786,46.552A35.673,35.673,0,0,0,294.77,417.887Z" fill="#4a4a4a"/><path d="M294.77,417.887a35.805,35.805,0,0,0,29.585-55.974c-.4,15.594-9.021,38.624-53.786,46.552A35.673,35.673,0,0,0,294.77,417.887Z" fill="#fff" opacity="0.3"/><path d="M312.394,396.118a56.928,56.928,0,0,0-22.64-13.505,56.928,56.928,0,0,1,22.64,13.505c.632.009,1.252.025,1.9.027a65.935,65.935,0,0,0,10.789-14.065c-16.773-17.743-33.13-15.93-33.13-15.93s16.357-1.813,33.13,15.93c.924-1.645,1.692-3.195,2.324-4.629-6.937-9.778-18.952-16.412-25.443-17.434l-1.5-.353a21.085,21.085,0,0,0-7.046-.1,21.085,21.085,0,0,1,7.046.1l4.273-11.965a35.66,35.66,0,0,0-6.175-1.185c-2.762,4.467-9.9,18.746-9.9,47.074,0-28.328,7.138-42.607,9.9-47.074q-1.788-.179-3.624-.181a36.159,36.159,0,0,0-4.053.234c-4.22,6.381-12.289,21.455-12.832,44.075C286.457,393.635,297.661,395.9,312.394,396.118Zm8.091-7.286c-14.268-13.9-30-14.634-30-14.634S306.217,374.93,320.485,388.832Z" fill="none" stroke="#000" stroke-linecap="round" stroke-linejoin="round" stroke-width="1.113"/><path d="M278.047,390.642c.543-22.62,8.612-37.694,12.832-44.075a35.646,35.646,0,0,0-9.612,2.467,71.344,71.344,0,0,0-12.35,37.6A65.577,65.577,0,0,0,278.047,390.642Z" fill="none" stroke="#000" stroke-linecap="round" stroke-linejoin="round" stroke-width="1.113"/><path d="M281.267,349.034a35.887,35.887,0,0,0-22.119,30.72,46.617,46.617,0,0,0,9.769,6.876A71.344,71.344,0,0,1,281.267,349.034Z" fill="none" stroke="#000" stroke-linecap="round" stroke-linejoin="round" stroke-width="1.113"/><path d="M327.4,377.451a44.793,44.793,0,0,0,1.965-5.3,35.794,35.794,0,0,0-7.63-13.772l-2.717,9.238,2.717-9.238a36.017,36.017,0,0,0-7.544-6.426l-3.055,11.41,3.055-11.41a35.654,35.654,0,0,0-9.463-4.25l-4.273,11.965C306.949,360.686,317.106,364.545,327.4,377.451Z" fill="none" stroke="#000" stroke-linecap="round" stroke-linejoin="round" stroke-width="1.113"/><path d="M330.77,383.771c.022-.518.039-1.038.039-1.561a35.863,35.863,0,0,0-1.441-10.063,44.793,44.793,0,0,1-1.965,5.3l.033.04-.033-.04a23.018,23.018,0,0,1-1.521,3.059c.054.057-.858,1.512-.8,1.57-.055-.058-.955,1.8-1.009,1.742-2.378,4.23-9.555,12.327-9.439,12.327-.116,0-3.878,3.41-5.936,5.129l.083-.007-.083.007a97.983,97.983,0,0,1-11.885,8.451c.085-.016.176-.026.26-.043-.084.017-.175.027-.26.043a123.988,123.988,0,0,1-12.689,6.7,35.856,35.856,0,0,0,10.811,1.661q.907,0,1.8-.045C303.98,414.1,315.645,404.956,330.77,383.771Z" fill="none" stroke="#000" stroke-linecap="round" stroke-linejoin="round" stroke-width="1.113"/><path d="M330.77,383.771c-15.125,21.185-26.79,30.333-34.035,34.271A35.875,35.875,0,0,0,330.77,383.771Z" fill="none" stroke="#000" stroke-linecap="round" stroke-linejoin="round" stroke-width="1.113"/><path d="M266.889,404.575a35.924,35.924,0,0,0,17.232,11.851,123.988,123.988,0,0,0,12.689-6.7C288.27,411.306,274.915,407.392,266.889,404.575Z" fill="none" stroke="#000" stroke-linecap="round" stroke-linejoin="round" stroke-width="1.113"/><path d="M296.81,409.729a97.983,97.983,0,0,0,11.885-8.451c-25.784,2.638-41.694-5.344-48.45-9.889a35.74,35.74,0,0,0,6.644,13.186C274.915,407.392,288.27,411.306,296.81,409.729Z" fill="none" stroke="#000" stroke-linecap="round" stroke-linejoin="round" stroke-width="1.113"/><path d="M308.7,401.278c2.058-1.719,3.908-3.434,5.6-5.133-.644,0-1.264-.018-1.9-.027.136.133.273.262.408.4-.135-.135-.272-.264-.408-.4-14.733-.213-25.937-2.483-34.347-5.476v0c-12.29-4.257-16.714-8.845-18.9-10.888-.055.813-.093,1.63-.093,2.456a35.894,35.894,0,0,0,1.19,9.179C267,395.934,282.911,403.916,308.7,401.278Z" fill="none" stroke="#000" stroke-linecap="round" stroke-linejoin="round" stroke-width="1.113"/></g><circle cx="35.806" cy="35.806" r="35.806" transform="translate(251.791 355.307) rotate(-13.078)" fill="none" stroke="#000" stroke-linecap="round" stroke-linejoin="round" stroke-width="1.113"/></g><g transform="translate(704.197 290.147)"><path d="M360.731,320.885s-2.448-7.957-9.589-10.813c-4.963-1.986-10.676-1.466-15.817-.572-9.581,1.667-17.942,5.476-27.026,8.732,0,0,3.876-1.428,19.789,6.325,5.862,2.855,12.564,5.071,19.266,4.92C352.739,329.357,360.987,327.824,360.731,320.885Z" fill="#4a4a4a"/><path d="M361.593,297.509s-.045-8.324-6.056-13.122c-4.178-3.334-9.8-4.487-14.978-5.116-9.654-1.172-18.759.059-28.4.553,0,0,4.124-.248,17.119,11.771,4.786,4.427,10.563,8.484,17.023,10.277C351.495,303.312,359.835,304.227,361.593,297.509Z" fill="#4a4a4a"/><path d="M378.044,328.42s-6.493-5.21-6.515-12.9c-.016-5.345,2.573-10.464,5.3-14.914,5.082-8.291,11.706-14.658,18.082-21.9,0,0-2.757,3.076-1.418,20.726.494,6.5.082,13.549-2.529,19.723C388.867,324.115,384.4,331.217,378.044,328.42Z" fill="#4a4a4a"/><path d="M401.039,341.2s-.918-8.274,4.5-13.734c3.764-3.8,9.213-5.59,14.286-6.814,9.454-2.28,18.639-2.111,28.269-2.735,0,0-4.124.232-15.643,13.672-4.242,4.951-9.511,9.649-15.72,12.177C411.741,345.8,403.562,347.674,401.039,341.2Z" fill="#4a4a4a"/><path d="M399.532,311.712s-8.247-1.134-12.217-7.721c-2.759-4.578-3.167-10.3-3.112-15.519.1-9.724,2.513-18.589,4.264-28.079,0,0-.785,4.056,9.43,18.512,3.762,5.324,7.029,11.582,7.961,18.221C406.606,302.46,406.422,310.848,399.532,311.712Z" fill="#4a4a4a"/><path d="M423.267,296.9s5.931,5.841,13.572,4.966c5.31-.609,10.092-3.778,14.193-7.006,7.641-6.015,13.192-13.337,19.641-20.515,0,0-2.734,3.1-20.42,3.828-6.514.269-13.465,1.5-19.293,4.814C426.278,285.65,419.746,290.916,423.267,296.9Z" fill="#4a4a4a"/><path d="M416.4,291.127s8.283.832,13.687-4.64c3.756-3.8,5.495-9.269,6.667-14.355,2.182-9.476,1.918-18.66,2.443-28.3,0,0-.189,4.127-13.511,15.783-4.906,4.293-9.55,9.61-12.013,15.845C411.692,280.473,409.9,288.67,416.4,291.127Z" fill="#4a4a4a"/><path d="M386.826,371.74l-14.3-35.189-16.494-40.687" fill="none" stroke="#000" stroke-linecap="round" stroke-linejoin="round" stroke-width="1.113"/><path d="M390.126,365.692l14.3-48.935,15.4-30.241" fill="none" stroke="#000" stroke-linecap="round" stroke-linejoin="round" stroke-width="1.113"/><line y1="8.248" x2="14.295" transform="translate(395.624 338.2)" fill="none" stroke="#000" stroke-linecap="round" stroke-linejoin="round" stroke-width="1.113"/><line x1="7.148" y1="15.945" transform="translate(397.273 300.812)" fill="none" stroke="#000" stroke-linecap="round" stroke-linejoin="round" stroke-width="1.113"/><line y1="7.777" x2="17.446" transform="translate(413.366 293.115)" fill="none" stroke="#000" stroke-linecap="round" stroke-linejoin="round" stroke-width="1.113"/><line y1="24.192" x2="6.048" transform="translate(375.28 318.956)" fill="none" stroke="#000" stroke-linecap="round" stroke-linejoin="round" stroke-width="1.113"/><line x1="13.972" y1="7.454" transform="translate(353.287 317.307)" fill="none" stroke="#000" stroke-linecap="round" stroke-linejoin="round" stroke-width="1.113"/><path d="M394.163,389.334H382.239a8.369,8.369,0,0,1-8.223-6.81l-4.234-22.33H406.62l-4.234,22.33A8.369,8.369,0,0,1,394.163,389.334Z" stroke="#000" stroke-linecap="round" stroke-linejoin="round" stroke-width="1.113"/></g><g transform="translate(704.197 290.147)"><path d="M231.153,342.281c-22.266,0-35.641-19.752-40.394-37.124l-.161-.609a6.535,6.535,0,1,1,12.65-3.289l.119.453c3.617,13.221,13.447,28.331,29.213,27.459a21.187,21.187,0,0,0,15.481-7.556c8.651-9.912,12.519-31.49,11.655-42.367a5.228,5.228,0,0,1,10.423-.828c.962,12.1-.317,38.141-12.232,51.79a34.09,34.09,0,0,1-24.592,12.01C232.586,342.261,231.864,342.281,231.153,342.281Z" fill="#fff"/><g clip-path="url(#b)"><path d="M264.514,273.623a5.228,5.228,0,0,0-4.8,5.625c.422,5.308-.287,13.165-2.125,20.97a23.083,23.083,0,0,1,7.766,1.012,41.281,41.281,0,0,1-7.632,20.868c-9.712,13.488-24.279,17.805-35.609,16.186-5.065-.723-10.881-3.387-15.768-6.112a35.588,35.588,0,0,0,24.8,10.109c.711,0,1.433-.02,2.162-.061a34.09,34.09,0,0,0,24.592-12.01c11.915-13.649,13.194-39.685,12.232-51.79A5.214,5.214,0,0,0,264.514,273.623Z" fill="#4a4a4a"/><path d="M264.514,273.623a5.228,5.228,0,0,0-4.8,5.625c.422,5.308-.287,13.165-2.125,20.97a23.083,23.083,0,0,1,7.766,1.012,41.281,41.281,0,0,1-7.632,20.868c-9.712,13.488-24.279,17.805-35.609,16.186-5.065-.723-10.881-3.387-15.768-6.112a35.588,35.588,0,0,0,24.8,10.109c.711,0,1.433-.02,2.162-.061a34.09,34.09,0,0,0,24.592-12.01c11.915-13.649,13.194-39.685,12.232-51.79A5.214,5.214,0,0,0,264.514,273.623Z" fill="#fff" opacity="0.5"/></g><path d="M231.153,342.281c-22.266,0-35.641-19.752-40.394-37.124l-.161-.609a6.535,6.535,0,1,1,12.65-3.289l.119.453c3.617,13.221,13.447,28.331,29.213,27.459a21.187,21.187,0,0,0,15.481-7.556c8.651-9.912,12.519-31.49,11.655-42.367a5.228,5.228,0,0,1,10.423-.828c.962,12.1-.317,38.141-12.232,51.79a34.09,34.09,0,0,1-24.592,12.01C232.586,342.261,231.864,342.281,231.153,342.281Z" fill="none" stroke="#000" stroke-linecap="round" stroke-linejoin="round" stroke-width="1.113"/><path d="M218.311,328.747c.525-2.449-5.336,1.385-10.244,4.952a38.573,38.573,0,0,0,5.843,4.066C215.662,334.921,217.8,331.114,218.311,328.747Z" fill="#4a4a4a" stroke="#000" stroke-linecap="round" stroke-linejoin="round" stroke-width="1.113"/><path d="M231.153,342.281c.711,0,1.433-.02,2.162-.061a37.6,37.6,0,0,0,6.311-.892c-2.758-3.6-6.553-8.354-7.65-8.719-1.248-.416-3.659,5.715-4.993,9.432A36.158,36.158,0,0,0,231.153,342.281Z" fill="#4a4a4a" stroke="#000" stroke-linecap="round" stroke-linejoin="round" stroke-width="1.113"/><path d="M203.367,301.712l-.119-.453a6.535,6.535,0,1,0-12.65,3.289l.161.609a64.03,64.03,0,0,0,7.6,17.276l11.909-5.671A50,50,0,0,1,203.367,301.712Z" fill="#4a4a4a" stroke="#000" stroke-linecap="round" stroke-linejoin="round" stroke-width="1.113"/><path d="M257.907,330.21a33.256,33.256,0,0,0,2.542-3.341c-3.776-1.291-9.439-3.066-11.541-2.875-2.493.227.889,8.225,2.635,12.01A36.607,36.607,0,0,0,257.907,330.21Z" fill="#4a4a4a" stroke="#000" stroke-linecap="round" stroke-linejoin="round" stroke-width="1.113"/><path d="M258.116,308.844c-.4.793,4.494,4.361,7.8,6.649a75.613,75.613,0,0,0,2.521-9.522C264.428,306.766,258.507,308.063,258.116,308.844Z" fill="#4a4a4a" stroke="#000" stroke-linecap="round" stroke-linejoin="round" stroke-width="1.113"/><path d="M270.051,294.051c.222-2.85.326-5.572.34-8.075-3.439,1.9-7.522,4.513-7.522,6.233C262.869,293.873,266.69,294.139,270.051,294.051Z" fill="#4a4a4a" stroke="#000" stroke-linecap="round" stroke-linejoin="round" stroke-width="1.113"/><path d="M216.208,216.681s-9.7,28.119-4.479,50.018a42.809,42.809,0,0,0,24.387,29.115s-14.185,4.977-10.949,12.691,15.428,2.737,19.41.249,8.958-9.954,9.705-14.931a35.945,35.945,0,0,0,.5-7.714s16.175-1.742,27.124-10.7c0,0,9.7,7.715,16.673,6.221S315.5,267.694,314.5,256.5s-7.465-11.2-11.447-9.456a16.042,16.042,0,0,0-5.474,3.484s5.723-6.968,0-16.673A21.732,21.732,0,0,0,281.655,223.4s-2.987-15.927-11.945-21.9S228.9,189.308,216.208,216.681Z" fill="#fff"/><g clip-path="url(#c)"><path d="M290.143,226.354a56.434,56.434,0,0,1-43.859,27.22c-19.8,1.737-30.9-2.164-36.02-4.872a127.175,127.175,0,0,1,5.944-32.021c12.691-27.373,44.544-21.152,53.5-15.18s11.945,21.9,11.945,21.9A21.4,21.4,0,0,1,290.143,226.354Zm12.912,20.686a16.042,16.042,0,0,0-5.474,3.484,13.1,13.1,0,0,0,2.333-5.64c-13.451,6.694-12.4,21.018-14.076,21.018-2.054,0-3.082-7.192-3.082-7.192s-2.568,10.274-17.979,17.466-32.876,1.541-32.876,1.541,3.6,8.219-5.651,7.192a15.226,15.226,0,0,1-7.228-2.642,42.842,42.842,0,0,0,17.094,13.547s-14.185,4.977-10.949,12.691,15.428,2.737,19.41.249,8.958-9.954,9.705-14.931a35.945,35.945,0,0,0,.5-7.714s16.175-1.742,27.124-10.7c0,0,9.7,7.715,16.673,6.221S315.5,267.694,314.5,256.5,307.037,245.3,303.055,247.04Z" fill="#4a4a4a"/><path d="M290.143,226.354a56.434,56.434,0,0,1-43.859,27.22c-19.8,1.737-30.9-2.164-36.02-4.872a127.175,127.175,0,0,1,5.944-32.021c12.691-27.373,44.544-21.152,53.5-15.18s11.945,21.9,11.945,21.9A21.4,21.4,0,0,1,290.143,226.354Zm12.912,20.686a16.042,16.042,0,0,0-5.474,3.484,13.1,13.1,0,0,0,2.333-5.64c-13.451,6.694-12.4,21.018-14.076,21.018-2.054,0-3.082-7.192-3.082-7.192s-2.568,10.274-17.979,17.466-32.876,1.541-32.876,1.541,3.6,8.219-5.651,7.192a15.226,15.226,0,0,1-7.228-2.642,42.842,42.842,0,0,0,17.094,13.547s-14.185,4.977-10.949,12.691,15.428,2.737,19.41.249,8.958-9.954,9.705-14.931a35.945,35.945,0,0,0,.5-7.714s16.175-1.742,27.124-10.7c0,0,9.7,7.715,16.673,6.221S315.5,267.694,314.5,256.5,307.037,245.3,303.055,247.04Z" fill="#fff" opacity="0.5"/><path d="M254.779,286.109a35.132,35.132,0,0,1-28.15-12.911" fill="none" stroke="#000" stroke-linecap="round" stroke-linejoin="round" stroke-width="1.113"/></g><path d="M216.208,216.681s-9.7,28.119-4.479,50.018a42.809,42.809,0,0,0,24.387,29.115s-14.185,4.977-10.949,12.691,15.428,2.737,19.41.249,8.958-9.954,9.705-14.931a35.945,35.945,0,0,0,.5-7.714s16.175-1.742,27.124-10.7c0,0,9.7,7.715,16.673,6.221S315.5,267.694,314.5,256.5s-7.465-11.2-11.447-9.456a16.042,16.042,0,0,0-5.474,3.484s5.723-6.968,0-16.673A21.732,21.732,0,0,0,281.655,223.4s-2.987-15.927-11.945-21.9S228.9,189.308,216.208,216.681Z" fill="none" stroke="#000" stroke-linecap="round" stroke-linejoin="round" stroke-width="1.113"/><path d="M297.581,250.524s-5.226,3.484-7.714,14.184" fill="none" stroke="#000" stroke-linecap="round" stroke-linejoin="round" stroke-width="1.113"/><path d="M307.172,255.1c-.614,1.823-2.28,2.907-3.719,2.422s-2.107-2.357-1.492-4.18,2.28-2.908,3.719-2.422S307.787,253.276,307.172,255.1Z" fill="#fff" stroke="#000" stroke-linecap="round" stroke-linejoin="round" stroke-width="1.113"/><path d="M312.32,258.338c-.615,1.824-2.28,2.908-3.719,2.423s-2.107-2.357-1.492-4.18,2.28-2.908,3.719-2.423S312.935,256.515,312.32,258.338Z" fill="#fff" stroke="#000" stroke-linecap="round" stroke-linejoin="round" stroke-width="1.113"/><path d="M313.417,263.187a2.053,2.053,0,1,1-1.083-3.036A2.31,2.31,0,0,1,313.417,263.187Z" fill="#fff" stroke="#000" stroke-linecap="round" stroke-linejoin="round" stroke-width="1.113"/><path d="M306.849,269.849c-1.8,3.246-5.4,4.69-8.045,3.225s-3.331-5.284-1.533-8.53,5.4-4.69,8.045-3.225S308.647,266.6,306.849,269.849Z" fill="#fff" stroke="#000" stroke-linecap="round" stroke-linejoin="round" stroke-width="1.113"/><path d="M236.116,295.814a15.051,15.051,0,0,0,10.7.746" fill="none" stroke="#000" stroke-linecap="round" stroke-linejoin="round" stroke-width="1.113"/><path d="M225.167,308.505s.995-4.231,7.216-7.217" fill="none" stroke="#000" stroke-linecap="round" stroke-linejoin="round" stroke-width="1.113"/><path d="M231.388,312.238s2.488-5.973,6.718-8.71" fill="none" stroke="#000" stroke-linecap="round" stroke-linejoin="round" stroke-width="1.113"/><path d="M133.257,243.4a8.569,8.569,0,0,1-3.219-7.08V212.6H68.88a10.348,10.348,0,0,1-7.993-3.326,11.192,11.192,0,0,1-3.058-7.833,11.92,11.92,0,0,1,2.039-6.652l58.582-92.058q6.543-10.192,17.489-10.193A15.7,15.7,0,0,1,146.668,96.3q4.292,3.756,4.292,11.158v89.483h15.558a7.329,7.329,0,0,1,5.794,2.307,8.509,8.509,0,0,1,0,11.051,7.323,7.323,0,0,1-5.794,2.307H150.853v23.713a8.7,8.7,0,0,1-3.111,7.08,10.95,10.95,0,0,1-7.189,2.575A11.361,11.361,0,0,1,133.257,243.4Zm-3.219-46.458v-82.4l-51.286,82.4Z"/><path d="M218.126,243.878a42.385,42.385,0,0,1-15.5-11.588,59.926,59.926,0,0,1-9.763-17.649,102.311,102.311,0,0,1-5.311-21.352,176.278,176.278,0,0,1-1.5-23.926q0-79.076,53.969-79.076,53.86,0,53.863,79.076a182.025,182.025,0,0,1-1.449,23.819,100.266,100.266,0,0,1-5.257,21.351,59.976,59.976,0,0,1-9.765,17.651,42.915,42.915,0,0,1-15.5,11.64,51.779,51.779,0,0,1-21.889,4.4A52.321,52.321,0,0,1,218.126,243.878Zm32.564-15.129a25.022,25.022,0,0,0,8.047-5.471,31.574,31.574,0,0,0,5.687-8.423,59.779,59.779,0,0,0,3.81-10.193,84.752,84.752,0,0,0,2.2-11.641q.805-6.49,1.074-11.91t.268-11.748q0-6.653-.268-12.286t-1.127-12.124a90.262,90.262,0,0,0-2.253-11.641,56.627,56.627,0,0,0-3.809-10.086,31.214,31.214,0,0,0-5.687-8.261,24.25,24.25,0,0,0-7.993-5.311,29.415,29.415,0,0,0-21.245,0,24.047,24.047,0,0,0-7.939,5.257,31.966,31.966,0,0,0-5.687,8.208,51.478,51.478,0,0,0-3.81,10.085,96.16,96.16,0,0,0-2.2,11.7q-.861,6.545-1.127,12.177t-.268,12.286q0,6.331.268,11.8t1.073,11.963a84.234,84.234,0,0,0,2.2,11.641,59.729,59.729,0,0,0,3.809,10.194,31.4,31.4,0,0,0,5.633,8.368,24.788,24.788,0,0,0,7.994,5.418,28.272,28.272,0,0,0,21.351,0Z"/><path d="M386.578,243.4a8.572,8.572,0,0,1-3.219-7.08V212.6H322.2a10.348,10.348,0,0,1-7.994-3.326,11.2,11.2,0,0,1-3.057-7.833,11.934,11.934,0,0,1,2.037-6.652l58.584-92.058q6.543-10.192,17.489-10.193A15.705,15.705,0,0,1,399.99,96.3q4.29,3.756,4.292,11.158v89.483h15.557a7.328,7.328,0,0,1,5.794,2.307,8.509,8.509,0,0,1,0,11.051,7.321,7.321,0,0,1-5.794,2.307H404.174v23.713a8.693,8.693,0,0,1-3.111,7.08,10.947,10.947,0,0,1-7.188,2.575A11.365,11.365,0,0,1,386.578,243.4Zm-3.219-46.458v-82.4l-51.287,82.4Z"/><path d="M196.052,202.5s-10.452,14.682-11.945,29.613.249,24.885,4.728,28.618,8.958,2.239,11.447-1.245-1.493-15.677-1.493-15.677,4.23-11.7,10.7-19.908,7.714-9.456,7.714-9.456S206.005,201.75,196.052,202.5Z" fill="#fff"/><g clip-path="url(#d)"><path d="M196.052,202.5a80.535,80.535,0,0,0-6.091,10.583c4.995,2.015,12.75,6.106,17.668,13.356.6-.87,1.217-1.722,1.86-2.538,6.47-8.212,7.714-9.456,7.714-9.456S206.005,201.75,196.052,202.5Z" fill="#4a4a4a"/><path d="M196.052,202.5a80.535,80.535,0,0,0-6.091,10.583c4.995,2.015,12.75,6.106,17.668,13.356.6-.87,1.217-1.722,1.86-2.538,6.47-8.212,7.714-9.456,7.714-9.456S206.005,201.75,196.052,202.5Z" fill="#fff" opacity="0.5"/></g><path d="M196.052,202.5s-10.452,14.682-11.945,29.613.249,24.885,4.728,28.618,8.958,2.239,11.447-1.245-1.493-15.677-1.493-15.677,4.23-11.7,10.7-19.908,7.714-9.456,7.714-9.456S206.005,201.75,196.052,202.5Z" fill="none" stroke="#000" stroke-linecap="round" stroke-linejoin="round" stroke-width="1.113"/><path d="M188.835,260.727a27.667,27.667,0,0,1-1.742-10.2" fill="none" stroke="#000" stroke-linecap="round" stroke-linejoin="round" stroke-width="1.113"/><path d="M195.554,262.219a26.008,26.008,0,0,1-2.738-11.446" fill="none" stroke="#000" stroke-linecap="round" stroke-linejoin="round" stroke-width="1.113"/><path d="M199.287,229.123c0-2.624-5-7.744-11.951-9.96a58.545,58.545,0,0,0-2.3,7.464,29.681,29.681,0,0,1,7.784,2.5C196.549,231.114,199.287,232.109,199.287,229.123Z" fill="#4a4a4a" stroke="#000" stroke-linecap="round" stroke-linejoin="round" stroke-width="1.113"/><path d="M195.444,203.391a83.4,83.4,0,0,0-4.416,7.556,24.155,24.155,0,0,1,6.019,2.5c7.714,4.479,9.207,4.977,6.719-1.493C202.216,207.924,198.642,205.151,195.444,203.391Z" fill="#4a4a4a" stroke="#000" stroke-linecap="round" stroke-linejoin="round" stroke-width="1.113"/><path d="M277.9,195.248s11.841,13.586,14.791,28.3,2.193,24.789-1.9,28.943-8.7,3.107-11.514-.116-.052-15.748-.052-15.748-5.357-11.224-12.6-18.762-8.605-8.654-8.605-8.654S267.922,195.482,277.9,195.248Z" fill="#fff"/><g clip-path="url(#e)"><path d="M277.9,195.248c-9.979.234-19.879,13.962-19.879,13.962s1.361,1.116,8.605,8.654a52.955,52.955,0,0,1,3.826,4.5,42.116,42.116,0,0,1,15.662-15.3A81.994,81.994,0,0,0,277.9,195.248Z" fill="#4a4a4a"/><path d="M277.9,195.248c-9.979.234-19.879,13.962-19.879,13.962s1.361,1.116,8.605,8.654a52.955,52.955,0,0,1,3.826,4.5,42.116,42.116,0,0,1,15.662-15.3A81.994,81.994,0,0,0,277.9,195.248Z" fill="#fff" opacity="0.5"/></g><path d="M277.9,195.248s11.841,13.586,14.791,28.3,2.193,24.789-1.9,28.943-8.7,3.107-11.514-.116-.052-15.748-.052-15.748-5.357-11.224-12.6-18.762-8.605-8.654-8.605-8.654S267.922,195.482,277.9,195.248Z" fill="none" stroke="#000" stroke-linecap="round" stroke-linejoin="round" stroke-width="1.113"/><path d="M290.794,252.49a27.668,27.668,0,0,0,.733-10.325" fill="none" stroke="#000" stroke-linecap="round" stroke-linejoin="round" stroke-width="1.113"/><path d="M284.254,254.635a26.021,26.021,0,0,0,1.6-11.66" fill="none" stroke="#000" stroke-linecap="round" stroke-linejoin="round" stroke-width="1.113"/><path d="M277.293,222.064c-.258-2.612,4.214-8.2,10.916-11.085a58.522,58.522,0,0,1,3.025,7.2,29.7,29.7,0,0,0-7.5,3.247C280.212,223.777,277.586,225.036,277.293,222.064Z" fill="#4a4a4a" stroke="#000" stroke-linecap="round" stroke-linejoin="round" stroke-width="1.113"/><path d="M278.593,196.079a83.465,83.465,0,0,1,5.136,7.087,24.089,24.089,0,0,0-5.745,3.077c-7.238,5.214-8.675,5.856-6.833-.827C272.3,201.255,275.583,198.145,278.593,196.079Z" fill="#4a4a4a" stroke="#000" stroke-linecap="round" stroke-linejoin="round" stroke-width="1.113"/><path d="M195.072,189.8s-3.08,10.393-1.925,14.628,6.544.385,11.933,5,10.385,12.928,30.787,14.468,32.729-9.464,36.964-15.623,3.849-13.473,11.163-13.858,1.155-14.628-1.155-16.938c0,0,14.244-21.172,14.244-26.561s-13.474-4.234-30.026.77c0,0-12.319-6.544-34.646-2.695s-28.871,10.394-28.871,10.394-27.716,3.464-29.64,6.929S177.749,184.407,195.072,189.8Z" fill="#fff"/><g clip-path="url(#f)"><path d="M283.994,194.416c7.314-.385,1.155-14.628-1.155-16.938,0,0,2.709-4.026,5.764-9.014-8.277-4.324-16.4-6.724-18.558-4.293-4.641,5.223-2.114,15.223,0,24.948s-6.342,13.953-12.262,22.41-14.376-.846-14.376-.846c-2.96,12.263-15.645,4.229-15.645,4.229-9.726-2.96-26.216-12.685-22.834-19.451s4.229-13.108-1.691-18.6-29.53-10.055-29.53-10.055h0c-1.235,4.166,4.751,17.827,21.365,23,0,0-3.08,10.393-1.925,14.628s6.544.384,11.933,5,10.385,12.928,30.787,14.468,32.729-9.464,36.964-15.623S276.68,194.8,283.994,194.416Z" fill="#4a4a4a"/><path d="M283.994,194.416c7.314-.385,1.155-14.628-1.155-16.938,0,0,2.709-4.026,5.764-9.014-8.277-4.324-16.4-6.724-18.558-4.293-4.641,5.223-2.114,15.223,0,24.948s-6.342,13.953-12.262,22.41-14.376-.846-14.376-.846c-2.96,12.263-15.645,4.229-15.645,4.229-9.726-2.96-26.216-12.685-22.834-19.451s4.229-13.108-1.691-18.6-29.53-10.055-29.53-10.055h0c-1.235,4.166,4.751,17.827,21.365,23,0,0-3.08,10.393-1.925,14.628s6.544.384,11.933,5,10.385,12.928,30.787,14.468,32.729-9.464,36.964-15.623S276.68,194.8,283.994,194.416Z" fill="#fff" opacity="0.5"/><path d="M253.893,196.745c.283,2.435-5.129,5.066-12.088,5.875s-12.83-.51-13.113-2.945,5.129-5.066,12.088-5.875S253.609,194.309,253.893,196.745Z" fill="#4a4a4a"/><path d="M253.893,196.745c.283,2.435-5.129,5.066-12.088,5.875s-12.83-.51-13.113-2.945,5.129-5.066,12.088-5.875S253.609,194.309,253.893,196.745Z" fill="#fff" opacity="0.5"/></g><path d="M195.072,189.8s-3.08,10.393-1.925,14.628,6.544.385,11.933,5,10.385,12.928,30.787,14.468,32.729-9.464,36.964-15.623,3.849-13.473,11.163-13.858,1.155-14.628-1.155-16.938c0,0,14.244-21.172,14.244-26.561s-13.474-4.234-30.026.77c0,0-12.319-6.544-34.646-2.695s-28.871,10.394-28.871,10.394-27.716,3.464-29.64,6.929S177.749,184.407,195.072,189.8Z" fill="none" stroke="#000" stroke-miterlimit="10" stroke-width="1.113"/><path d="M274.687,158.948c-9.954,6.719-6.47,13.438-1.991,17.171,2.735,2.279,7.133,1.959,10.149,1.365l-.006-.006s14.244-21.172,14.244-26.561C297.083,150.917,284.641,152.23,274.687,158.948Z" fill="#4a4a4a" stroke="#000" stroke-miterlimit="10" stroke-width="1.113"/><path d="M173.707,166.8c-1.235,4.166,4.751,17.827,21.365,23,0,0,12.675-1.236,8.445-11.439C199.57,168.84,179.6,166.47,173.707,166.8Z" fill="#4a4a4a" stroke="#000" stroke-miterlimit="10" stroke-width="1.113"/><path d="M232.411,148.992c-1.315.227-2.571.464-3.778.707,1.99,10.1,5.289,26.917,8.229,26.917,3.045,0,5.188-18.436,6.149-28.768A82.409,82.409,0,0,0,232.411,148.992Z" fill="#4a4a4a" stroke="#000" stroke-miterlimit="10" stroke-width="1.113"/><path d="M220.936,173.63c3.062-1.8,2.6-15.329,2.118-22.668a83.5,83.5,0,0,0-9.317,2.908C214.855,160.742,217.672,175.55,220.936,173.63Z" fill="#4a4a4a" stroke="#000" stroke-miterlimit="10" stroke-width="1.113"/><path d="M250.549,167.409c3.136,1.1,4.888-10.151,5.88-18.812a63.245,63.245,0,0,0-9.561-.81C246.772,154.9,247.162,166.224,250.549,167.409Z" fill="#4a4a4a" stroke="#000" stroke-miterlimit="10" stroke-width="1.113"/><path d="M246.361,206.355a11.8,11.8,0,0,0-8.674,1.063.866.866,0,0,0-.16,1.375l5.318,4.985a.855.855,0,0,0,1.363-.27l2.718-5.971A.852.852,0,0,0,246.361,206.355Z" fill="#4a4a4a" stroke="#000" stroke-linecap="round" stroke-linejoin="round" stroke-width="1.113"/><path d="M233.737,198.01c.735,1.927.445,3.826-.647,4.242s-2.571-.808-3.3-2.735-.445-3.825.646-4.241S233,196.084,233.737,198.01Z"/><path d="M248.221,196.632c-.38,2.026.243,3.844,1.391,4.059s2.387-1.253,2.767-3.28-.243-3.843-1.392-4.058S248.6,194.606,248.221,196.632Z"/><path d="M244.208,213.508s-7.1,9.643-13.567-.062" fill="none" stroke="#000" stroke-linecap="round" stroke-linejoin="round" stroke-width="1.113"/><path d="M242.845,213.778s4.718,4.893,9.695,2.156,1.99-6.967,1.99-6.967" fill="none" stroke="#000" stroke-linecap="round" stroke-linejoin="round" stroke-width="1.113"/><path d="M221.185,190.3s1.742-6.221,9.954-4.728" fill="none" stroke="#000" stroke-linecap="round" stroke-linejoin="round" stroke-width="3.34"/><path d="M246.07,184.58s6.221-3.733,11.944,2.239" fill="none" stroke="#000" stroke-linecap="round" stroke-linejoin="round" stroke-width="3.34"/><line x2="5.972" y2="1.493" transform="translate(216.457 206.976)" fill="none" stroke="#000" stroke-linecap="round" stroke-miterlimit="10" stroke-width="1.113"/><line x1="5.226" y2="0.995" transform="translate(216.457 210.708)" fill="none" stroke="#000" stroke-linecap="round" stroke-miterlimit="10" stroke-width="1.113"/><line x1="3.733" y2="1.991" transform="translate(218.945 213.446)" fill="none" stroke="#000" stroke-linecap="round" stroke-miterlimit="10" stroke-width="1.113"/><line y1="1.244" x2="5.226" transform="translate(260.503 202.994)" fill="none" stroke="#000" stroke-linecap="round" stroke-miterlimit="10" stroke-width="1.113"/><line x2="3.484" transform="translate(261.498 206.727)" fill="none" stroke="#000" stroke-linecap="round" stroke-miterlimit="10" stroke-width="1.113"/><line x2="4.728" y2="1.244" transform="translate(262.245 209.215)" fill="none" stroke="#000" stroke-linecap="round" stroke-miterlimit="10" stroke-width="1.113"/></g></g></svg>