<svg xmlns="http://www.w3.org/2000/svg" width="300" height="182.148" viewBox="0 0 300 182.148"><g transform="translate(7.595 36.142)"><g transform="translate(7.122 115.785)"><ellipse cx="142.642" cy="15.111" rx="142.642" ry="15.111" fill="#939290"/></g><g transform="translate(120.447 58.754)"><path d="M1991.4,2101.79H1851.443L1834.38,2060s25.661-26.03,61.789-28.16c2.528-.151,5.109-.185,7.731-.08a78.546,78.546,0,0,1,18.881,3.063q3.466,1,6.993,2.367a93.806,93.806,0,0,1,16.111,8.157c1.742,1.1,3.49,2.267,5.245,3.527q4.595,3.274,9.247,7.31a156.549,156.549,0,0,1,16.845,17.242,8.34,8.34,0,0,0,5.155,2.874,24.356,24.356,0,0,1,6.23,1.8,20.411,20.411,0,0,1,11,11.633,8.835,8.835,0,0,1-8.214,12.058Z" transform="translate(-1832.706 -2030.025)" fill="#939290"/><path d="M3041.427,2333.327H2995.8c-2.211-26.873,6.415-39.594,14.611-45.607a156.557,156.557,0,0,1,16.845,17.242,8.338,8.338,0,0,0,5.155,2.874c4.6.691,13.3,3.333,17.233,13.431a8.836,8.836,0,0,1-8.214,12.059Z" transform="translate(-2882.737 -2261.562)" fill="#fff"/><path d="M2487.842,2039.617c-.175,1.344-.379,2.684-.677,4.015a29.185,29.185,0,0,1-1.107,3.953,20.233,20.233,0,0,1-1.813,3.726,13.631,13.631,0,0,1-2.7,3.172.232.232,0,0,1-.384-.194v-.01c.09-1.373.18-2.646.232-3.9s.08-2.481.1-3.692.038-2.429.019-3.636-.095-2.424-.18-3.631c-.175-2.424-.469-4.844-.8-7.258-.014-.109-.029-.213-.048-.322,2.528-.151,5.109-.185,7.731-.08a52.082,52.082,0,0,1-.378,7.859Z" transform="translate(-2417.028 -2030.025)" fill="#484847"/><path d="M2745.778,2066.735q-.291,1.512-.667,3.021c-.336,1.311-.706,2.618-1.165,3.906a28.856,28.856,0,0,1-1.582,3.783,20.538,20.538,0,0,1-2.254,3.48,13.8,13.8,0,0,1-3.073,2.817.238.238,0,0,1-.327-.071.241.241,0,0,1-.033-.17l0-.01c.26-1.354.5-2.609.71-3.844s.383-2.452.554-3.655.332-2.4.459-3.6.208-2.415.27-3.626c.076-1.463.1-2.926.109-4.393q3.466,1,6.993,2.367Z" transform="translate(-2648.712 -2059.572)" fill="#484847"/><path d="M2968.549,2177.927c-.17.345-.345.691-.53,1.037a28.87,28.87,0,0,1-2.116,3.512,20.143,20.143,0,0,1-2.731,3.116,13.83,13.83,0,0,1-3.451,2.339.24.24,0,0,1-.313-.119.247.247,0,0,1-.01-.175l0,0c.454-1.3.876-2.5,1.264-3.7s.733-2.367,1.08-3.531.677-2.33.98-3.5c.213-.828.4-1.662.577-2.5,1.742,1.1,3.49,2.267,5.245,3.527Z" transform="translate(-2850.126 -2159.079)" fill="#484847"/><g transform="translate(34.497 42.637)" opacity="0.3"><path d="M2301.8,2489.168H2177.61v-14.745c37.968-23.716,52.53-13.554,62.293-1.837a30.164,30.164,0,0,0,23.151,10.957H2302.3c8.214-6.344,2.926-13.242-3.291-18.067a20.411,20.411,0,0,1,11,11.633,8.835,8.835,0,0,1-8.214,12.058Z" transform="translate(-2177.61 -2460.04)"/></g><g transform="translate(1.675 1.673)" opacity="0.5"><path d="M1999.619,2089.722a20.415,20.415,0,0,0-11-11.633,24.357,24.357,0,0,0-6.23-1.8,8.339,8.339,0,0,1-5.156-2.874,156.637,156.637,0,0,0-16.845-17.242q-4.645-4.041-9.247-7.31c-1.757-1.26-3.5-2.429-5.245-3.527a93.821,93.821,0,0,0-16.111-8.157q-3.529-1.37-6.993-2.367a78.5,78.5,0,0,0-18.88-3.063c-2.623-.1-5.2-.071-7.731.08-36.128,2.131-61.789,28.16-61.789,28.16l1.01,2.474c6.728-5.961,26.906-21.888,53.7-25.356a3.056,3.056,0,0,1,1.925.417c2.24,1.3,6.718,2.269,11.9,2.414,4.827.135,9.082-.477,11.509-1.51a2.97,2.97,0,0,1,1.8-.179c1.7.37,3.411.8,5.138,1.3q3.466,1,6.993,2.367a93.8,93.8,0,0,1,16.111,8.158c1.742,1.1,3.49,2.267,5.245,3.527q4.595,3.274,9.247,7.31a156.546,156.546,0,0,1,16.845,17.242,8.34,8.34,0,0,0,5.155,2.874,24.346,24.346,0,0,1,6.23,1.8,20.411,20.411,0,0,1,11,11.633,8.88,8.88,0,0,1,.611,3.281,8.8,8.8,0,0,0,.809-8.016Z" transform="translate(-1834.39 -2031.689)" fill="#fff"/></g><path d="M3439.065,2645.523s.017-.056.034-.1.032-.1.048-.151c.032-.107.069-.212.1-.328.068-.222.114-.459.176-.69a11.448,11.448,0,0,0,.206-1.436,9.347,9.347,0,0,0,.012-1.465c-.024-.245-.032-.493-.063-.74l-.134-.737a12.75,12.75,0,0,0-1.053-2.927l-.165-.375c-.065-.12-.134-.238-.2-.362-.124-.25-.258-.494-.38-.758-.273-.5-.572-1-.828-1.576l0-.01a.1.1,0,0,1,.052-.136.1.1,0,0,1,.081,0,10.1,10.1,0,0,1,1.649.851c.251.179.489.376.739.568.125.1.242.2.364.3s.217.226.327.339q.322.346.633.71c.2.25.363.524.541.792l.263.406.224.432c.141.292.31.578.427.885a10.568,10.568,0,0,1,.624,5.9,9.48,9.48,0,0,1-.243.993,5.1,5.1,0,0,1-.167.5c-.03.083-.062.166-.1.255s-.069.167-.132.3a1.668,1.668,0,0,1-3.1-1.221l.067-.211Z" transform="translate(-3281.891 -2574.473)"/><path d="M1975.567,2087.632H1835.615a1.675,1.675,0,0,1-1.551-1.042L1817,2044.8a1.673,1.673,0,0,1,.359-1.809,104.738,104.738,0,0,1,20.049-14.972c11.471-6.732,29.578-14.583,50.722-13.77,26.658,1.03,51.739,15.249,74.544,42.264a6.687,6.687,0,0,0,4.124,2.3c5.118.767,14.333,3.668,18.542,14.48a10.509,10.509,0,0,1-9.774,14.342Zm-138.827-3.351h138.827a7.159,7.159,0,0,0,6.651-9.777c-3.595-9.236-11.515-11.722-15.916-12.382a10.036,10.036,0,0,1-6.187-3.449c-22.173-26.264-46.435-40.085-72.113-41.077-35.383-1.37-62.568,22.4-67.467,26.989l16.206,39.694Z" transform="translate(-1816.879 -2014.191)"/></g><g transform="translate(0 100.465)"><path d="M798.518,2503.164H585.371a10.377,10.377,0,0,1-10.264-11.831c2.746-19.628,24.538-12.366,24.538-12.366l1.449-.345,5.335-1.284,5.961-1.43,6.117-1.468,6.174-1.482c64.582-8.881,109.076-4.839,132.98-.7h0q3.622.625,6.614,1.24c1.922.393,3.646.777,5.17,1.131,2.8.658,4.947,1.236,6.429,1.662,1.667.483,2.5.772,2.5.772,19.5-4.938,27.086,3.815,29.987,12.49a10.356,10.356,0,0,1-9.847,13.606Z" transform="translate(-573.321 -2465.995)" fill="#939290"/><path d="M798.518,2578.712H585.371a10.378,10.378,0,0,1-10.264-11.832c2.746-19.628,24.538-12.366,24.538-12.366s-7.674,13.714,3.12,15.6c12.783,2.234,13.242-3.958,47.784-2.893,29.063.9,101.207,2.117,123.375,2.482a8.183,8.183,0,0,0,8.361-7.973,10.874,10.874,0,0,0-3.908-9.115c19.5-4.938,27.086,3.816,29.987,12.49a10.356,10.356,0,0,1-9.847,13.606Z" transform="translate(-573.321 -2541.543)" fill="#fff"/><g transform="translate(27.34 6.268)"><path d="M849.046,2568.961a32.048,32.048,0,0,0-1.6,2.94,25.088,25.088,0,0,0-1.524,4.053l-.284,1.089-.208,1.126c-.033.189-.085.384-.119.578s-.034.388-.061.587c-.048.393-.095.8-.165,1.217-.213-.35-.4-.716-.6-1.089-.095-.189-.18-.379-.274-.573-.076-.194-.143-.393-.208-.592l-.374-1.217-.213-1.26a14.839,14.839,0,0,1,.2-5.151c.029-.143.061-.284.095-.427l5.335-1.283Z" transform="translate(-843.277 -2563.886)" fill="#484847"/><path d="M963.047,2538.661c-.279.407-.549.823-.823,1.24a32.858,32.858,0,0,0-2.078,3.7,24.475,24.475,0,0,0-1.524,4.053l-.289,1.094-.208,1.122c-.033.189-.08.383-.114.578s-.038.388-.061.587c-.047.393-.1.8-.17,1.217-.213-.35-.4-.715-.592-1.089-.1-.189-.185-.379-.274-.573s-.142-.388-.213-.587l-.374-1.221-.213-1.26a14.959,14.959,0,0,1,.2-5.151,19.246,19.246,0,0,1,.616-2.24l6.117-1.468Z" transform="translate(-945.201 -2536.483)" fill="#484847"/><path d="M2615.685,2550.263l-.208,1.259-.379,1.217c-.066.2-.133.4-.208.592s-.175.383-.274.573c-.189.374-.384.738-.6,1.089-.071-.422-.119-.824-.166-1.217-.029-.2-.043-.393-.061-.587-.034-.194-.081-.388-.119-.578l-.2-1.126-.289-1.089a24.733,24.733,0,0,0-1.524-4.053,33.712,33.712,0,0,0-2.078-3.7c-.388-.592-.772-1.184-1.184-1.752-.043-.066-.085-.128-.133-.189,2.8.658,4.947,1.236,6.429,1.662a18.96,18.96,0,0,1,.791,2.75A14.857,14.857,0,0,1,2615.685,2550.263Z" transform="translate(-2439.472 -2538.328)" fill="#484847"/><path d="M2493.2,2526.936l-.213,1.26-.374,1.221c-.066.2-.133.393-.208.587-.095.194-.18.384-.275.573-.194.374-.384.738-.6,1.089-.071-.417-.118-.823-.165-1.217-.029-.2-.043-.393-.062-.587-.033-.194-.085-.388-.119-.578l-.208-1.122-.284-1.094a24.893,24.893,0,0,0-1.524-4.053,33.637,33.637,0,0,0-2.083-3.7c-.383-.592-.767-1.188-1.179-1.757-.2-.293-.407-.573-.611-.857s-.427-.578-.559-.781l.024-.024h0q3.622.625,6.614,1.24a18.961,18.961,0,0,1,1.614,4.645A14.868,14.868,0,0,1,2493.2,2526.936Z" transform="translate(-2327.764 -2515.9)" fill="#484847"/></g><g transform="translate(1.684 10.317)" opacity="0.3"><path d="M808.365,2571.485c-1.892-5.653-5.775-11.336-13.647-13.245a20.7,20.7,0,0,1,4.09,7.29,9.674,9.674,0,0,1-9.2,12.711H590.493a9.694,9.694,0,0,1-9.588-11.052,17.981,17.981,0,0,1,1.768-5.848c-3.628,1.834-6.652,5.386-7.566,11.919a10.378,10.378,0,0,0,10.264,11.832H798.518a10.356,10.356,0,0,0,9.847-13.606Z" transform="translate(-575.005 -2558.24)"/></g><g transform="translate(1.685 1.652)" opacity="0.5"><path d="M599.2,2483.077a1.827,1.827,0,0,0,.933.022l.965-.23,5.335-1.283,5.961-1.43,6.117-1.468,6.174-1.482c64.582-8.881,109.076-4.839,132.98-.7h0q3.622.625,6.614,1.24c1.922.393,3.646.776,5.17,1.131,2.8.658,4.947,1.236,6.429,1.662.85.246,1.483.442,1.9.575a2.292,2.292,0,0,0,1.234.04c19.033-4.59,26.484,4.067,29.354,12.646a10.579,10.579,0,0,1,.309,1.141,10.2,10.2,0,0,0-.309-5.4c-2.9-8.674-10.487-17.427-29.987-12.49,0,0-.833-.289-2.5-.772-1.482-.427-3.626-1-6.429-1.662-1.524-.355-3.248-.738-5.17-1.131q-2.989-.611-6.614-1.24h0c-23.9-4.143-68.4-8.186-132.98.7l-6.174,1.482-6.117,1.468-5.961,1.429-5.335,1.284-1.449.345s-21.793-7.262-24.538,12.366a10.41,10.41,0,0,0,.113,3.547c2.9-17.117,20.894-12.682,23.976-11.79Z" transform="translate(-575.013 -2467.634)" fill="#fff"/></g><g transform="translate(0 18.566)"><path d="M557.619,2673.818l.148-.251c.045-.076.089-.144.132-.209.09-.133.181-.264.274-.385.184-.252.388-.478.586-.712a11.919,11.919,0,0,1,4.418-3.015,11.408,11.408,0,0,1,3.4-.765,10.772,10.772,0,0,1,1.705,0,13.524,13.524,0,0,1,1.657.271.1.1,0,0,1,.08.123.106.106,0,0,1-.065.077l-.012,0c-.527.193-1.043.313-1.541.5s-.986.35-1.446.583a14.933,14.933,0,0,0-4.741,3.353q-.485.512-.921,1.052c-.142.18-.286.359-.416.54-.071.089-.131.178-.192.266l-.153.213-.124.172a1.669,1.669,0,0,1-2.794-1.819Z" transform="translate(-557.391 -2666.154)"/><path d="M2858.093,2717.16l-.054-.376-.077-.448c-.063-.3-.125-.605-.211-.9a9.463,9.463,0,0,0-.661-1.712,8.035,8.035,0,0,0-2.3-2.8,12.827,12.827,0,0,0-3.535-1.789c-1.323-.475-2.757-.788-4.261-1.176a.156.156,0,0,1-.115-.189.159.159,0,0,1,.1-.11,12.016,12.016,0,0,1,4.674-.671,11.026,11.026,0,0,1,2.435.388,11.193,11.193,0,0,1,2.363.981,9.779,9.779,0,0,1,3.708,3.724,10.281,10.281,0,0,1,.98,2.45,9.6,9.6,0,0,1,.248,1.291c.026.219.052.438.058.664l.009.343c0,.126,0,.217-.006.4a1.667,1.667,0,0,1-3.316.176l-.034-.243Z" transform="translate(-2627.923 -2700.995)"/><path d="M2913.132,2651.419c-.071-.108-.226-.321-.357-.491s-.284-.359-.429-.54c-.3-.355-.615-.708-.951-1.042a13.852,13.852,0,0,0-2.205-1.827,14.14,14.14,0,0,0-2.591-1.394c-.92-.427-1.905-.707-2.956-1.076l-.006,0a.088.088,0,0,1-.054-.113.092.092,0,0,1,.059-.057,8.915,8.915,0,0,1,3.333-.35,10.383,10.383,0,0,1,1.7.264c.28.066.551.161.829.243a7.183,7.183,0,0,1,.82.289,13.183,13.183,0,0,1,3.054,1.7,13.974,13.974,0,0,1,1.344,1.147c.21.209.42.421.617.652.1.111.2.23.3.353q.072.089.146.19l.162.227a1.676,1.676,0,0,1-2.726,1.951c-.012-.017-.025-.034-.036-.053l-.047-.072Z" transform="translate(-2679.207 -2644.492)"/></g><path d="M782.688,2489.2H569.542a12.053,12.053,0,0,1-11.924-13.738c.813-5.813,3.278-10.035,7.33-12.547,7.1-4.4,16.67-1.986,18.926-1.323l24.586-5.9a1.538,1.538,0,0,1,.163-.031c52.758-7.256,91.9-5.747,115.435-3.2,23.179,2.5,35.956,6.377,38.561,7.227,9.012-2.2,16.4-1.722,21.973,1.427,4.442,2.511,7.65,6.642,9.535,12.277a12.033,12.033,0,0,1-11.44,15.813Zm-207.576-25.508a15.924,15.924,0,0,0-8.409,2.077c-3.159,1.964-5.1,5.381-5.767,10.157a8.7,8.7,0,0,0,8.606,9.924H782.688a8.624,8.624,0,0,0,7.074-3.626,8.53,8.53,0,0,0,1.188-7.772c-3.784-11.31-13.2-15.145-27.988-11.4a1.677,1.677,0,0,1-.963-.042c-.129-.045-13.2-4.521-38.467-7.238-23.317-2.507-62.083-3.987-114.371,3.2l-24.952,5.991a1.672,1.672,0,0,1-.921-.04,29.392,29.392,0,0,0-8.176-1.225Z" transform="translate(-557.491 -2450.356)"/></g><g transform="translate(119.677)"><path d="M1885.558,1424.493l-20.474,39.857a62.574,62.574,0,0,0-7.161-7.454c-15.528-13.669-31.583-13.638-31.583-13.638,9.519-9.816,23.665-17.662,23.665-17.662,24.086-12.284,31.861-8.09,34.368-4.347A7.058,7.058,0,0,1,1885.558,1424.493Z" transform="translate(-1824.666 -1415.729)" fill="#939290"/><g transform="translate(1.675 1.684)" opacity="0.3"><path d="M1845.859,1434.162a5.876,5.876,0,0,0,.644,9.848,28.023,28.023,0,0,1,11.415,12.812l.006.085c-15.528-13.67-31.583-13.638-31.583-13.638,9.519-9.816,23.665-17.662,23.665-17.662,24.086-12.284,31.861-8.09,34.368-4.347-12.967-3.71-28.995,5.857-38.515,12.9Z" transform="translate(-1826.34 -1417.422)"/></g><path d="M1849.247,1450.108a1.676,1.676,0,0,1-1.3-.616c-16.506-20.213-37.237-20.476-37.445-20.476a1.676,1.676,0,0,1-1.2-2.841c9.581-9.877,23.471-17.633,24.058-17.96l.052-.027c15.864-8.093,27.109-10.335,33.423-6.664a9.037,9.037,0,0,1,4.561,6.974,1.676,1.676,0,0,1-.183.842l-20.475,39.858a1.675,1.675,0,0,1-1.315.9,1.546,1.546,0,0,1-.176.01ZM1814.3,1425.98c6.823.939,21.582,4.667,34.6,19.455l19.088-37.161a5.794,5.794,0,0,0-2.906-3.891c-2.978-1.69-10.849-3.052-30.123,6.775a124.485,124.485,0,0,0-20.658,14.822Z" transform="translate(-1808.83 -1399.814)"/></g><path d="M2181.251,1531.035q-1.7,3.686-3.853,7.506l-20.858-35.546s4.29-23.379,21.258-33.832a4.684,4.684,0,0,1,6.75,2.208c.459,1.1.95,2.389,1.436,3.854l.006.006c3.548,10.665,6.862,30.731-4.738,55.8Z" transform="translate(-2003.61 -1461.912)" fill="#fff"/><g transform="translate(152.929 6.567)" opacity="0.3"><path d="M2185.975,1475.225c-.176-.212-4.882-5.691-10.768,1.5-3.02,3.691-4.608,5.806-5.441,7a.725.725,0,0,0,.743,1.122l2.871-.57a2.834,2.834,0,0,1,3.321,2.161,29.316,29.316,0,0,1-.9,14.748,5.477,5.477,0,0,0,.345,4.074,14.556,14.556,0,0,1,.355,12.316,5.379,5.379,0,0,0-.122,3.6,34.828,34.828,0,0,0,4.866,9.86q-1.7,3.686-3.853,7.506l-20.858-35.546s4.29-23.379,21.258-33.832a4.684,4.684,0,0,1,6.75,2.208c.459,1.1.95,2.389,1.435,3.854Z" transform="translate(-2156.53 -1468.479)"/></g><path d="M2161.568,1524.39a1.676,1.676,0,0,1-1.445-.827l-20.86-35.55a1.68,1.68,0,0,1-.2-1.151c.181-.984,4.625-24.235,22.026-34.953a6.289,6.289,0,0,1,5.241-.624,6.376,6.376,0,0,1,3.935,3.614c4.02,9.645,11.364,35.642-7.235,68.639a1.678,1.678,0,0,1-1.445.853h-.014Zm-19.088-37.516,19.035,32.44c16.088-30.472,9.383-54.185,5.655-63.126a3.022,3.022,0,0,0-1.871-1.715,2.913,2.913,0,0,0-2.457.288c-14.643,9.02-19.558,28.467-20.364,32.112Z" transform="translate(-1987.777 -1446.084)"/><g transform="translate(151.253 25.993)"><path d="M2160.016,1691.408l11.339-2.258s1.8,8.39-2.315,13.338c0,0,9.665,11.66-2.07,17.846l-10.43-17.773a69.8,69.8,0,0,1,3.476-11.152Z" transform="translate(-2154.864 -1687.474)" fill="#939290"/><path d="M2151.116,1706.155a1.676,1.676,0,0,1-1.447-.828l-10.43-17.773a1.676,1.676,0,0,1-.191-1.209,70.636,70.636,0,0,1,3.587-11.483,1.677,1.677,0,0,1,1.2-.951l11.338-2.259a1.678,1.678,0,0,1,1.965,1.292c.076.352,1.695,8.167-1.874,13.684,1.4,2.044,4.089,6.719,3.139,11.487-.653,3.274-2.842,5.915-6.507,7.846a1.672,1.672,0,0,1-.78.194Zm-8.648-19.721,9.237,15.741a7.532,7.532,0,0,0,3.412-4.715c.774-3.883-2.063-8.36-3.222-9.757a1.675,1.675,0,0,1,0-2.141c2.543-3.056,2.461-7.8,2.2-10.28l-8.75,1.743a69.831,69.831,0,0,0-2.881,9.407Z" transform="translate(-2139.009 -1671.619)"/></g><g transform="translate(43.808 3.287)"><path d="M1091.656,1479.023s-16.05-.489-31.965,12.734c-1.1.915-2.2,1.893-3.3,2.949-1.369,1.316-2.734,2.745-4.073,4.3L1033,1458.58s0-.055.017-.155a7.291,7.291,0,0,1,1.26-3.054c2.617-3.668,10.507-7.637,34.229,5.323,0,0,13.916,8.247,23.15,18.329Z" transform="translate(-1031.325 -1450.102)" fill="#939290"/><g transform="translate(1.675 1.683)" opacity="0.3"><path d="M1091.656,1479.023s-16.05-.489-31.965,12.734c-1.1.915-2.2,1.893-3.3,2.949a5.639,5.639,0,0,1-.92-3.15c0-7.954,7.484-13.827,12.751-16.976a3.888,3.888,0,0,0,.4-6.422c-26.494-20.592-35.623-9.579-35.623-9.579s0-.055.017-.155a7.291,7.291,0,0,1,1.26-3.054c2.617-3.668,10.507-7.637,34.229,5.323,0,0,13.916,8.247,23.15,18.329Z" transform="translate(-1033 -1451.785)"/></g><path d="M1036.481,1484.764a1.58,1.58,0,0,1-.223-.015,1.676,1.676,0,0,1-1.288-.938l-19.322-40.425a1.679,1.679,0,0,1-.16-.847,9.04,9.04,0,0,1,4.76-6.84c6.416-3.49,17.592-.93,33.218,7.611.017.009.033.019.051.029.578.342,14.239,8.491,23.533,18.636a1.675,1.675,0,0,1-1.285,2.807c-.2.006-20.938-.331-38.016,19.4a1.676,1.676,0,0,1-1.267.579Zm-17.583-42.349,18.013,37.688c13.435-14.413,28.3-17.72,35.145-18.465a124.182,124.182,0,0,0-20.223-15.4c-18.983-10.369-26.893-9.23-29.917-7.628A5.8,5.8,0,0,0,1018.9,1442.415Z" transform="translate(-1015.484 -1434.186)"/></g><path d="M978.388,1563.568q1.6,3.734,3.635,7.613l21.87-34.939s-3.617-23.492-20.278-34.423a4.685,4.685,0,0,0-6.811,2.016c-.491,1.085-1.018,2.361-1.545,3.812l-.006,0c-3.853,10.56-7.741,30.524,3.134,55.916Z" transform="translate(-931.711 -1491.383)" fill="#fff"/><g transform="translate(43.548 9.682)" opacity="0.3"><path d="M1012.761,1507.637c.182-.208,5.044-5.549,10.72,1.808,2.913,3.774,4.439,5.934,5.238,7.147a.725.725,0,0,1-.775,1.1l-2.854-.651a2.837,2.837,0,0,0-3.383,2.066,29.305,29.305,0,0,0,.479,14.768,5.481,5.481,0,0,1-.462,4.063c-1.245,2.252-3.175,5.375-1.1,11.08.422,1.162-.552,3.122-.957,4.288-.806,2.319-1.641,6.2-3.777,10.252q1.6,3.734,3.635,7.613l21.87-34.939s-3.617-23.492-20.278-34.423a4.685,4.685,0,0,0-6.811,2.016c-.491,1.085-1.017,2.361-1.545,3.812Z" transform="translate(-1012.76 -1501.056)"/></g><path d="M966.451,1557.03h-.062a1.675,1.675,0,0,1-1.42-.894c-17.645-33.512-9.557-59.29-5.262-68.816a6.375,6.375,0,0,1,4.038-3.5,6.3,6.3,0,0,1,5.221.774c17.086,11.208,20.862,34.576,21.014,35.566a1.668,1.668,0,0,1-.236,1.144l-21.874,34.943a1.675,1.675,0,0,1-1.42.786Zm-.918-70.118a3.055,3.055,0,0,0-2.771,1.784c-3.982,8.831-11.368,32.343,3.84,63.26l19.96-31.887c-.7-3.667-5.054-23.245-19.433-32.677a2.889,2.889,0,0,0-1.6-.481Z" transform="translate(-916.141 -1475.556)"/><g transform="translate(54.001 29.354)"><path d="M1152.927,1726.869l-11.269-2.579s-2.041,8.335,1.932,13.4c0,0-10,11.38,1.557,17.9l10.935-17.469a69.826,69.826,0,0,0-3.155-11.246Z" transform="translate(-1137.9 -1722.614)" fill="#939290"/><path d="M1129.309,1741.407a1.661,1.661,0,0,1-.822-.217c-3.607-2.034-5.72-4.735-6.279-8.026-.815-4.794,2-9.392,3.467-11.4-3.409-5.616-1.566-13.383-1.48-13.732a1.675,1.675,0,0,1,2-1.235l11.269,2.58a1.676,1.676,0,0,1,1.171.984,70.6,70.6,0,0,1,3.256,11.581,1.678,1.678,0,0,1-.226,1.2l-10.935,17.47a1.675,1.675,0,0,1-1.421.787Zm-2.141-30.944c-.325,2.475-.538,7.224,1.9,10.338a1.675,1.675,0,0,1-.059,2.14c-.041.047-4.3,5-3.5,9.675a7.528,7.528,0,0,0,3.273,4.8l9.685-15.473a69.708,69.708,0,0,0-2.611-9.485l-8.693-1.99Z" transform="translate(-1122.064 -1706.759)"/></g><g transform="translate(40.557 22.708)"><path d="M1133.082,1732.6a23.448,23.448,0,0,0,5.707,5.1,3.613,3.613,0,0,1,.781,5.485c-5.4,5.958-17.3,17.309-30.572,18.433-.114.012-.231.021-.348.03,0,0-47.377,30.486-87.464-3.221,0,0-12.606-2.219-20.66-16.373a3.134,3.134,0,0,1,1.18-4.24,13.117,13.117,0,0,1,3.687-1.408s-3.426-1.914-6.135-7.683a3.1,3.1,0,0,1,1.087-3.882,12.7,12.7,0,0,0,4.208-4.4,7.908,7.908,0,0,0,.907-2.979c.076-.781.2-2.4.5-4.646.114-.844.252-1.771.425-2.778.315-1.851.734-3.961,1.31-6.246,3.17-12.684,10.952-30.854,30.483-41.47.487-.268.983-.526,1.482-.781a62.314,62.314,0,0,1,15.878-5.531c.428-.088.861-.171,1.289-.251a63.053,63.053,0,0,1,20.128-.372c.8.113,1.6.247,2.4.393a62.45,62.45,0,0,1,10.423,2.854c1.033.381,2.079.794,3.128,1.249a63.678,63.678,0,0,1,11.25,6.2c9.742,6.743,19.044,17.326,24.9,33.9q1.008,2.845,1.869,5.928s.03.468.155,1.249c.088.56.223,1.279.428,2.1a19.8,19.8,0,0,0,5.526,9.839l0,0a14.075,14.075,0,0,0,2.259,1.684,3.593,3.593,0,0,1,1.461,4.512c-1.26,2.875-3.662,6.688-7.676,7.29Z" transform="translate(-997.297 -1653.085)" fill="#939290"/><path d="M1318.122,2529.538l-2.81,2.745c-.114.012-.23.021-.348.03,0,0-47.377,30.485-87.464-3.221,0,0,1.618-14.613,18.3-18.266a4.4,4.4,0,0,0,1.858-.86c2.976-2.442,19.625-5.441,32.392.034a4.429,4.429,0,0,0,1.841.344c5.59-.12,27.579,1.377,36.234,19.194Z" transform="translate(-1203.974 -2423.75)" fill="#fff"/><path d="M1348.8,2196.258a2.072,2.072,0,0,1-3.123,2.4,12.049,12.049,0,0,0-4.8-1.95C1336.1,2195.961,1345.342,2186.882,1348.8,2196.258Z" transform="translate(-1305.297 -2138.987)" fill="#fff"/><path d="M1806.068,2190.249a1.714,1.714,0,0,0,2.109,2.5,14.533,14.533,0,0,1,8.352-.712c7.528,1.508-1.656-15.281-10.459-1.785Z" transform="translate(-1726.956 -2132.586)" fill="#fff"/><g transform="translate(7.257 1.672)"><path d="M1597.95,1655.382c-.121.138-.244.272-.374.422a7.873,7.873,0,0,1-.655.781c-.886,1.136-1.953,2.323-2.982,3.781-.26.359-.534.714-.815,1.074a4.083,4.083,0,0,0-.4.568l-.378.6a27.379,27.379,0,0,0-1.5,2.485c-.462.882-.949,1.763-1.411,2.678l-1.256,2.866-.323.727a5.95,5.95,0,0,0-.3.744l-.55,1.517-1.129,3.083c-.307,1.057-.63,2.122-.957,3.2l-.5,1.612-.252.815-.206.823-.844,3.33-.453,1.679-.227.848-.181.848c-.172.811-.348,1.621-.529,2.436a1.36,1.36,0,0,1-2.612.134q-.409-1.216-.794-2.444c-.693-2.3-1.214-4.65-1.76-7.018l-.2-.894-.147-.9-.273-1.809c-.184-1.208-.361-2.427-.521-3.651-.105-1.233-.181-2.478-.252-3.727a33.41,33.41,0,0,1-.093-3.785l.121-3.856c.122-1.3.3-2.607.462-3.928l.126-.995c.042-.33.135-.66.2-.995l.336-1.5.109-.5.1-.427c.428-.088.861-.171,1.289-.251A63.053,63.053,0,0,1,1597.95,1655.382Z" transform="translate(-1525.551 -1654.748)" fill="#484847"/><path d="M1422.6,1666.438c-.206.113-.42.222-.638.317a2.4,2.4,0,0,0,.294-.1l.033.025c.021.016.042.021.054.033a.9.9,0,0,1-.079.18l-.067.1-.079.113c-.03.033-.054.071-.084.1a.78.78,0,0,0-.1.117,5.936,5.936,0,0,1-.424.51,6.21,6.21,0,0,1-.483.568c-.643.831-1.424,1.7-2.171,2.762-.193.259-.39.522-.6.781a2.961,2.961,0,0,0-.29.418l-.277.434a20.686,20.686,0,0,0-1.1,1.817c-.336.644-.693,1.287-1.029,1.956l-.92,2.093-.231.531a4.34,4.34,0,0,0-.218.539l-.4,1.111-.823,2.247c-.223.773-.462,1.55-.7,2.332l-.361,1.178-.189.6-.147.6-.617,2.427-.328,1.228-.168.614-.13.623q-.189.883-.39,1.776a.99.99,0,0,1-1.9.1c-.2-.593-.39-1.191-.583-1.788-.5-1.675-.882-3.388-1.281-5.122l-.143-.647-.109-.66-.2-1.316c-.13-.885-.26-1.776-.378-2.67-.075-.9-.13-1.8-.181-2.72a25.246,25.246,0,0,1-.072-2.762l.088-2.816c.072-.744.168-1.5.265-2.256.487-.268.983-.526,1.482-.781a62.326,62.326,0,0,1,15.878-5.531c.428-.088.861-.171,1.289-.25A6.585,6.585,0,0,1,1422.6,1666.438Z" transform="translate(-1371.827 -1664.255)" fill="#484847"/><path d="M1818.528,1669.583c-.55.464-1.138.965-1.726,1.542q-.353.339-.731.665a3.19,3.19,0,0,0-.362.36l-.348.38a20.94,20.94,0,0,0-1.407,1.588c-.445.573-.915,1.145-1.365,1.738l-1.281,1.9-.328.48a4.828,4.828,0,0,0-.315.493l-.592,1.02-1.217,2.064c-.361.718-.734,1.441-1.113,2.168l-.567,1.095-.29.552-.256.564-1.045,2.281-.546,1.145-.277.58-.239.585q-.347.839-.706,1.679a.991.991,0,0,1-1.89-.247c-.088-.619-.172-1.237-.248-1.859-.193-1.738-.256-3.492-.336-5.268l-.025-.665.012-.665.042-1.337c.03-.89.063-1.788.109-2.69.088-.9.2-1.8.311-2.707a25.724,25.724,0,0,1,.432-2.732l.6-2.753c.26-.911.562-1.83.852-2.757l.218-.693c.076-.234.185-.46.277-.689l.579-1.379.227-.535a62.433,62.433,0,0,1,10.423,2.854C1816.432,1668.714,1817.479,1669.128,1818.528,1669.583Z" transform="translate(-1730.174 -1664.454)" fill="#484847"/><path d="M2225.541,2234.137l-1.739-.605q-1.386-.471-2.8-.928-2.834-.915-5.8-1.638c-.987-.268-1.986-.439-3-.681-1.008-.175-2.037-.422-3.073-.585-2.1-.434-4.224-.668-6.551-1.124.47-.342.962-.647,1.461-.957a14.291,14.291,0,0,1,1.542-.823q.787-.363,1.6-.7c.546-.213,1.1-.376,1.654-.559l.84-.254c.281-.079.563-.134.848-.2.567-.129,1.138-.242,1.714-.364,1.15-.155,2.318-.33,3.481-.384a36.175,36.175,0,0,1,4.3-.03,19.8,19.8,0,0,0,5.527,9.839Z" transform="translate(-2093.062 -2169.786)" fill="#484847"/><path d="M2240.459,2134.908c-.718-.2-1.445-.385-2.176-.564-.987-.268-1.982-.439-2.994-.677-1.008-.175-2.037-.427-3.074-.589-2.1-.43-4.224-.665-6.555-1.124.474-.342.966-.647,1.466-.957a13.972,13.972,0,0,1,1.537-.823q.793-.363,1.6-.7c.541-.217,1.1-.381,1.65-.559l.84-.259c.281-.079.567-.134.848-.2.567-.129,1.142-.242,1.718-.359,1.024-.143,2.065-.292,3.112-.363q1.008,2.845,1.869,5.928s.03.468.155,1.249Z" transform="translate(-2113.934 -2082.498)" fill="#484847"/><path d="M1073.436,2266.216c-2.327.455-4.455.69-6.551,1.124-1.038.163-2.066.409-3.074.585-1.012.242-2.011.414-3,.681q-1.744.426-3.444.919a7.909,7.909,0,0,0,.906-2.979c.076-.781.2-2.4.5-4.646.508.009,1.017.033,1.521.067,1.163.054,2.33.226,3.481.385.576.121,1.147.229,1.714.363.286.067.567.121.848.2l.84.255c.558.18,1.108.347,1.651.559s1.08.455,1.6.7a13.72,13.72,0,0,1,1.542.823c.5.3.991.614,1.461.956Z" transform="translate(-1057.37 -2203.837)" fill="#484847"/><path d="M1088.537,2171.546c-2.33.46-4.459.689-6.556,1.124-1.037.163-2.066.414-3.074.585-.81.192-1.609.343-2.4.531.315-1.851.734-3.961,1.31-6.246.353.046.706.1,1.054.146.576.117,1.15.229,1.718.36.281.071.567.125.848.2l.84.254c.555.184,1.108.347,1.651.56s1.075.46,1.6.7a14.053,14.053,0,0,1,1.542.823c.5.309.991.614,1.466.956Z" transform="translate(-1074.68 -2118.501)" fill="#484847"/></g><g transform="translate(2.828 15.693)" opacity="0.3"><path d="M1144.718,1865.039a.442.442,0,0,0-.238.715,24.122,24.122,0,0,0,5.239,4.528,3.614,3.614,0,0,1,.781,5.485c-5.4,5.958-17.3,17.309-30.572,18.433-.114.012-.231.021-.348.03,0,0-47.308,30.442-87.376-3.147a.446.446,0,0,0-.193-.095c-1.232-.252-12.932-2.956-20.555-16.352a3.072,3.072,0,0,1-.339-2.132.446.446,0,0,1,.789-.165,29.665,29.665,0,0,0,11.745,9.088.446.446,0,0,0,.623-.464,14.189,14.189,0,0,1,0-3.573.448.448,0,0,1,.785-.242,62.787,62.787,0,0,0,52.37,20.709c34.733-2.686,78.759-56.448,40.818-95.7l-.036-.037a.446.446,0,0,1,.609-.649c8.347,6.768,16.066,16.661,21.167,31.106q1,2.825,1.856,5.884a.43.43,0,0,1,.015.086c.01.131.049.562.152,1.207.088.56.223,1.279.429,2.1a19.8,19.8,0,0,0,5.526,9.839l0,0a14.077,14.077,0,0,0,2.259,1.684,3.593,3.593,0,0,1,1.461,4.512c-1.184,2.7-3.378,6.234-6.971,7.148Z" transform="translate(-1011.054 -1801.362)"/></g><g transform="translate(1.67 1.672)" opacity="0.5"><path d="M1092.894,1659.877c-1.05-.455-2.1-.869-3.128-1.249a62.447,62.447,0,0,0-10.423-2.854c-.8-.146-1.6-.28-2.4-.393a63.053,63.053,0,0,0-20.128.372c-.428.079-.861.163-1.289.251a62.323,62.323,0,0,0-15.878,5.531c-.5.254-1,.514-1.482.781-19.531,10.616-27.313,28.785-30.483,41.47-.576,2.286-1,4.4-1.31,6.246-.172,1.007-.311,1.935-.425,2.778-.3,2.243-.425,3.864-.5,4.646a7.945,7.945,0,0,1-.907,2.979,12.7,12.7,0,0,1-4.208,4.4,3.1,3.1,0,0,0-1.087,3.882c2.708,5.77,6.135,7.683,6.135,7.683s.752.234-1.957-5.536c-.646-1.379-1-2.256.269-3.1a12.7,12.7,0,0,0,4.208-4.4,7.906,7.906,0,0,0,.907-2.979c.076-.781.2-2.4.5-4.646.114-.844.252-1.771.425-2.778.315-1.85.734-3.961,1.31-6.246a77.166,77.166,0,0,1,3.982-11.838,4.15,4.15,0,0,1,3.111-2.388c2.7-.5,6.688-3.61,10.128-8.16,3.24-4.284,5.112-8.681,5.1-11.447a4.376,4.376,0,0,1,1.762-3.6,58.484,58.484,0,0,1,6.4-4.033c.487-.268.983-.526,1.482-.781a62.323,62.323,0,0,1,15.878-5.531c.428-.088.861-.171,1.289-.251a63.053,63.053,0,0,1,20.128-.372c.8.113,1.6.247,2.4.393a62.433,62.433,0,0,1,10.423,2.854c1.033.381,2.079.794,3.128,1.249a62.975,62.975,0,0,1,14.891,8.928,62.633,62.633,0,0,0-18.25-11.853Z" transform="translate(-998.954 -1654.748)" fill="#fff"/></g><path d="M1275.427,2391.262c.932.432,1.854.795,2.758,1.12l.685.223a5.859,5.859,0,0,0,.681.2c.451.134.9.263,1.355.355a26.6,26.6,0,0,0,5.434.659c.458-.024.916-.042,1.377-.045a4.068,4.068,0,0,0,.69-.044l.693-.071c.232-.022.463-.051.7-.066l.351-.029.347-.065c.463-.088.933-.157,1.406-.232a13.356,13.356,0,0,0,1.417-.288c.473-.109.956-.2,1.446-.294.956-.247,1.924-.511,2.968-.685l.012,0a.156.156,0,0,1,.18.128.159.159,0,0,1-.046.139c-.376.362-.774.7-1.181,1.027s-.82.66-1.254.956c-.448.269-.9.535-1.367.786a10.053,10.053,0,0,1-1.427.7c-.5.188-1,.383-1.5.559a10.789,10.789,0,0,1-1.561.406,16.571,16.571,0,0,1-3.233.4,14.551,14.551,0,0,1-6.383-1.368,10.573,10.573,0,0,1-4.787-4.244.17.17,0,0,1,.219-.237l.02.01Z" transform="translate(-1247.079 -2319.134)"/><path d="M1750.885,2395.487c-.355.39-.738.745-1.128,1.1s-.792.7-1.215,1.016c-.438.289-.887.567-1.341.842a9.892,9.892,0,0,1-1.41.743c-.489.215-.989.4-1.489.6l-.378.141-.391.1c-.261.067-.523.138-.787.2a16.288,16.288,0,0,1-3.229.451,15.187,15.187,0,0,1-6.4-1.233,11.1,11.1,0,0,1-4.937-4.022.154.154,0,0,1,.048-.213.157.157,0,0,1,.146-.011l.018.009a23.661,23.661,0,0,0,11,2.193c.456-.052.913-.089,1.371-.119.459-.013.913-.125,1.372-.185.926-.091,1.833-.335,2.773-.5a14.319,14.319,0,0,0,1.4-.337c.471-.116.948-.229,1.435-.33a27.28,27.28,0,0,1,2.968-.728l.013,0a.173.173,0,0,1,.157.286Z" transform="translate(-1656.751 -2322.709)"/><path d="M1048.646,1760.117a67.361,67.361,0,0,1-44.024-15.959c-2.457-.56-13.793-3.8-21.361-17.1a4.793,4.793,0,0,1,1.806-6.523q.56-.318,1.147-.587a23,23,0,0,1-4.283-6.337,4.794,4.794,0,0,1,1.676-5.987c1.849-1.232,4.107-3.3,4.376-6.136l.04-.447a82.777,82.777,0,0,1,5.937-24.7c6.067-14.56,15.866-25.362,29.128-32.109a64.51,64.51,0,0,1,51.463-2.984c14.574,5.386,33.723,18.156,42.175,48.4a1.736,1.736,0,0,1,.058.343c.007.091.724,9.427,7.565,13.55a5.283,5.283,0,0,1,2.134,6.623c-1.172,2.672-3.14,5.841-6.24,7.4a22.257,22.257,0,0,0,3.63,2.9,5.328,5.328,0,0,1,2.441,3.788,5.249,5.249,0,0,1-1.313,4.239c-5.986,6.609-18,17.8-31.619,18.975a93.93,93.93,0,0,1-28.909,11.033,80.139,80.139,0,0,1-15.828,1.619Zm3.6-119.5a60.978,60.978,0,0,0-27.635,6.6c-25.891,13.171-31.943,39.565-33.246,54.125l-.042.464c-.393,4.152-3.4,6.974-5.854,8.61a1.419,1.419,0,0,0-.5,1.773c2.41,5.133,5.418,6.92,5.447,6.937a1.679,1.679,0,0,1-.467,3.092,11.561,11.561,0,0,0-3.22,1.231,1.437,1.437,0,0,0-.552,1.954c7.575,13.317,19.373,15.531,19.492,15.552a1.676,1.676,0,0,1,.788.368c12.269,10.315,26.3,15.5,41.872,15.5a78.017,78.017,0,0,0,15.375-1.589,91.17,91.17,0,0,0,28.235-10.818,1.676,1.676,0,0,1,.787-.262c12.622-.9,24.086-11.611,29.795-17.915a1.879,1.879,0,0,0,.477-1.538,1.987,1.987,0,0,0-.913-1.409,25.121,25.121,0,0,1-6.15-5.513,1.675,1.675,0,0,1,1.092-2.661c3.208-.481,5.245-3.693,6.391-6.3a1.926,1.926,0,0,0-.795-2.407c-7.862-4.739-9.029-14.492-9.164-16.015-8.093-28.774-26.248-40.9-40.066-46.006a61.011,61.011,0,0,0-21.148-3.774Z" transform="translate(-981.487 -1637.264)"/><path d="M1565.395,2558.976c-.068.7-.178,1.511-.281,2.281s-.219,1.571-.343,2.367c-.107.8-.241,1.6-.385,2.408a22.975,22.975,0,0,1-.583,2.474.073.073,0,0,1-.09.049.073.073,0,0,1-.043-.035,12.907,12.907,0,0,1-.933-2.4,18.939,18.939,0,0,1-.522-2.481,22.653,22.653,0,0,1-.242-2.522,14.5,14.5,0,0,1,.105-2.594,1.675,1.675,0,0,1,3.325.4l-.006.063Z" transform="translate(-1506.446 -2469.117)"/><path d="M1187.088,2679.59a16,16,0,0,1-1.149-1.708c-.351-.585-.668-1.2-.966-1.817a15.9,15.9,0,0,1-.777-1.933,7.441,7.441,0,0,1-.417-2.052c.119.13.232.258.339.383l.355.357c.235.235.468.464.717.681.49.438.975.871,1.474,1.292l1.474,1.266c.488.415.975.857,1.422,1.269l-2.472,2.262Z" transform="translate(-1164.434 -2573.119)"/><path d="M2134.76,2653.1l3.335-2.721q1.674-1.375,3.329-2.782t3.264-2.874a41.192,41.192,0,0,1,3.422-2.819,17.589,17.589,0,0,1-2.187,3.926c-.885,1.195-1.8,2.367-2.775,3.49s-1.968,2.227-3,3.289c-.518.532-1.045,1.055-1.587,1.563s-1.075,1.016-1.663,1.515l-2.132-2.585Z" transform="translate(-2024.47 -2545.825)"/><path d="M2366.75,2438.473a7.3,7.3,0,0,1-.79-.956,12.012,12.012,0,0,1-.677-1.073,9.253,9.253,0,0,1-.582-1.174,5.534,5.534,0,0,1-.372-1.37,9.318,9.318,0,0,1,1.354.341,10.606,10.606,0,0,1,1.19.49c.385.176.753.369,1.111.574a7.605,7.605,0,0,1,1.01.68l-2.243,2.488Z" transform="translate(-2232.086 -2357.716)"/><g transform="translate(49.009 81.07)"><path d="M1502.37,2495.162c5.887,0,9.866-6.382,7.87-8.179a8.568,8.568,0,0,0-3.636-1.518,19.336,19.336,0,0,0-8.486.007,8.565,8.565,0,0,0-3.633,1.523c-1.993,1.8,2,8.172,7.884,8.166Z" transform="translate(-1493.967 -2484.997)"/><g transform="translate(2.952 1.664)" opacity="0.3"><path d="M1530.6,2503.344c.038.612-1.222,1.188-2.814,1.287s-2.914-.317-2.951-.931,1.222-1.188,2.815-1.287S1530.56,2502.731,1530.6,2503.344Z" transform="translate(-1524.831 -2502.399)" fill="#fff"/></g></g></g></g><path d="M682.656,1477.366a1.438,1.438,0,0,1-.276-.027l-7.836-1.524a1.44,1.44,0,0,1-.536-2.6l6.527-4.452-4.45-.865a1.44,1.44,0,1,1,.551-2.827l7.837,1.524a1.439,1.439,0,0,1,.536,2.6l-6.527,4.452,4.45.866a1.44,1.44,0,0,1-.274,2.854Z" transform="translate(-654.691 -1422.662)"/><path d="M492.5,1232.474a1.437,1.437,0,0,1-.276-.027l-13.086-2.546a1.44,1.44,0,0,1-.536-2.6l12.809-8.736-9.7-1.888a1.44,1.44,0,0,1,.551-2.827l13.085,2.547a1.439,1.439,0,0,1,.536,2.6l-12.808,8.736,9.7,1.887a1.44,1.44,0,0,1-.274,2.854Z" transform="translate(-477.969 -1195.467)"/><path d="M766.539,1047.1a1.549,1.549,0,0,1-.3-.029l-18.372-3.575a1.537,1.537,0,0,1-.573-2.778l18.942-12.918-14.756-2.871a1.537,1.537,0,0,1,.587-3.018l18.372,3.575a1.537,1.537,0,0,1,.573,2.778l-18.942,12.918,14.756,2.871a1.538,1.538,0,0,1-.293,3.047Z" transform="translate(-720.936 -1021.887)"/></svg>