<svg xmlns="http://www.w3.org/2000/svg" width="300" height="219.51" viewBox="0 0 300 219.51"><g transform="translate(18.867 204.044)"><ellipse cx="140.567" cy="7.733" rx="140.567" ry="7.733" fill="#c3c3bf"/></g><path d="M2780.281,1582.653l-.8-14.414c3.285.087,6.136-2.294,8.165-5.673,3.894-6.469,4.8-16.6.026-20-.177-.13-.359-.247-.536-.355-7.5-4.626-14.453,6.123-18.845,2.189-3.609-3.241,2.592-15,12.423-18.52,14.583-5.223,28.646,5.5,32.463,18.576.138.471.264.944.368,1.419a23.829,23.829,0,0,1,.641,4.972c.658,29.235-33.9,31.809-33.9,31.809Z" transform="translate(-2536.106 -1446.277)" fill="#939290"/><path d="M2813.543,1545.863c-9.372-13.462-26.408-3.666-26.408-3.666-7.5-4.626-14.453,6.123-18.845,2.189-3.608-3.241,2.593-15,12.424-18.52,14.582-5.223,28.646,5.5,32.463,18.576.138.471.264.944.368,1.419Z" transform="translate(-2536.106 -1446.268)" fill="#fff"/><g transform="translate(231.148 78.249)" opacity="0.5"><path d="M2813.522,1558.331c.034-.766.044-1.546.025-2.351a24.749,24.749,0,0,0-1.009-6.39,29.009,29.009,0,0,0-12.554-16.377.924.924,0,0,1,.031.469c-.292,1.329-3.947,1.656-8.161.73s-7.389-2.754-7.1-4.083a.906.906,0,0,1,.326-.505,21.84,21.84,0,0,0-17.62,13.22c-1.362-4.373,4.513-14.03,13.264-17.164,14.585-5.224,28.646,5.492,32.464,18.576a24.7,24.7,0,0,1,1.01,6.39,31.971,31.971,0,0,1-.676,7.484Z" transform="translate(-2767.265 -1524.53)" fill="#fff"/></g><path d="M2879.377,1744.13l-.8-14.414c3.282.087,6.133-2.292,8.163-5.672,2.361,2.412,5.393,4.653,8.622,4.832,8.846.489,17.6-7.048,16.91-22.946a24.7,24.7,0,0,1,1.01,6.39c.657,29.234-33.907,31.809-33.907,31.809Z" transform="translate(-2635.205 -1607.755)" fill="#939290"/><path d="M2766.264,1570.284a1.731,1.731,0,0,1-.129-3.457h0a50.144,50.144,0,0,0,16.64-4.807c10.65-5.381,15.92-13.872,15.664-25.236-.176-7.79-4.709-15.861-11.548-20.562a21.247,21.247,0,0,0-19.609-2.815c-6.41,2.3-11.321,8.526-12.194,12.983-.245,1.248-.12,2.2.342,2.616,1.034.927,2.491.338,5.568-1.227,3.617-1.84,8.573-4.359,13.664-.726,4.745,3.387,4.742,11.247,2.633,17.535-1.84,5.485-5.855,11.285-11.639,11.286-.079,0-.158,0-.238,0a1.731,1.731,0,0,1,.094-3.46l.135,0c3.962,0,6.978-4.786,8.366-8.925,1.983-5.912,1.409-11.638-1.362-13.617-3.147-2.246-6.036-1.065-10.084.994-3.066,1.559-6.54,3.326-9.449.718-1.413-1.266-1.92-3.347-1.427-5.858,1.079-5.5,6.769-12.833,14.424-15.576a24.621,24.621,0,0,1,22.736,3.221c7.845,5.391,12.844,14.334,13.048,23.336.285,12.669-5.82,22.506-17.659,28.451a52.774,52.774,0,0,1-17.848,5.121c-.044,0-.088,0-.131,0Z" transform="translate(-2522.09 -1432.178)"/><path d="M2054.256,1816.644a72.307,72.307,0,0,0-7.482,18.036H1945.316l-3.613-51.225-1.825-25.919-.337-4.769s44.535-45.232,94.1-24.206a46.534,46.534,0,0,1,14.894,9.918c21.095,21.069,16.621,59.083,5.725,78.166Z" transform="translate(-1799.316 -1622.938)" fill="#939290"/><path d="M2048.513,1738.478c-.745,14.115-7.56,26.733-21.333,33.311-29.4,14.037-33.718,25.167-37.317,37.9-6.071,21.463-32.488-6.8-48.179-26.231l-2.164-30.688s44.535-45.232,94.1-24.206a46.533,46.533,0,0,1,14.894,9.918Z" transform="translate(-1799.298 -1622.938)" fill="#666564"/><path d="M2348.948,2359.539a40.8,40.8,0,0,0-4.812,9.775l-1.553-.848s.29-8.472-6.953-10.706a70.184,70.184,0,0,0,13.319,1.779Z" transform="translate(-2151.896 -2187.983)" fill="#666564"/><path d="M2342.189,2327.84s.29-8.514-7-10.719c0,0,25.644,6.463,31.892-5l-2.687,27.862Z" transform="translate(-2151.504 -2147.356)" fill="#666564"/><path d="M2348.948,2359.539a40.8,40.8,0,0,0-4.812,9.775l-1.553-.848s-.469-9.514-6.953-10.706c.584.143,7.768,1.357,13.319,1.779Z" transform="translate(-2151.896 -2187.983)"/><path d="M1977.139,1972.17c-10.364-5.534-23.418-20.143-32.714-31.653L1942.6,1914.6c19.321-7.7,21.7-14.211,37.988-15.167C1993.436,1922.412,1980.372,1958.478,1977.139,1972.17Z" transform="translate(-1802.039 -1779.999)" fill="#666564"/><g transform="translate(140.222 100.05)" opacity="0.5"><path d="M2063.312,1782.308c-.549-14.089-4.894-28.2-15.119-38.408a47.6,47.6,0,0,0-15.215-10.134,72.54,72.54,0,0,0-8.174-2.912c-.8,3.388-6.946,5.456-14.089,4.665-6.776-.757-12.107-3.82-12.674-7.1-28.057,2.7-50.58,20.524-58.309,27.387l-.212-3.028s44.535-45.232,94.1-24.206a46.533,46.533,0,0,1,14.894,9.918c11.518,11.5,15.414,28.057,14.8,43.821Z" transform="translate(-1939.52 -1722.997)" fill="#fff"/></g><path d="M2032.721,1822.732H1931.26a1.731,1.731,0,0,1-1.727-1.609l-5.778-81.913a1.73,1.73,0,0,1,.493-1.336,118.451,118.451,0,0,1,28.923-20.322c23.141-11.591,46.34-13.066,67.089-4.265,13.189,5.6,22.652,15.933,27.363,29.9,7.325,21.716,2.068,46.656-5.918,60.641a71.313,71.313,0,0,0-7.294,17.552,1.732,1.732,0,0,1-1.689,1.352Zm-99.849-3.461h98.506a77.558,77.558,0,0,1,7.319-17.16c7.856-13.758,12.317-38.036,5.643-57.818-4.449-13.187-13.006-22.546-25.434-27.819-20.038-8.5-41.6-7.112-64.094,4.127a119.123,119.123,0,0,0-27.549,19.166l5.608,79.5Z" transform="translate(-1785.261 -1609.26)"/><path d="M2634.791,2169.953a16.691,16.691,0,0,1-1.6,7.022c-2.821,6.379-14.66,6.5-14.66,6.5h-45.872a21.951,21.951,0,0,1-20.437-13.743c-3.3-8.291-3.885-19.91,6.444-33.626,0,0,39.4-14.129,47.058-21.281a48.234,48.234,0,0,1,.944,8.075c.381,8.524-.571,19.433-2.8,27.326-.056.2-.112.4-.174.6,7.408,1.54,16.773,3.717,20.489,5.6,6.041,3.064,10.528,7.39,10.61,13.518Z" transform="translate(-2342.792 -1971.738)" fill="#939290"/><path d="M2634.791,2235.379a16.693,16.693,0,0,1-1.6,7.022c-2.821,6.379-14.66,6.5-14.66,6.5h-45.872a21.951,21.951,0,0,1-20.437-13.743c-3.3-8.291-3.885-19.91,6.444-33.626,0,0,6,6.906,18.732,7.382,20.381.752,27.075-12.15,29.269-20.589.381,8.524-.571,19.433-2.8,27.327-1.446.268-3.168.553-5.228.865a9.522,9.522,0,0,0-5.46,2.462c-.757.671-5.383,5.873-.74,11.761C2597.235,2236.825,2623.211,2238.1,2634.791,2235.379Z" transform="translate(-2342.792 -2037.164)" fill="#666564"/><path d="M3099.573,2616.65a12.668,12.668,0,0,1-.052,1.389c-.013.134-.026.268-.043.4-.031.264-.069.533-.116.805-.026.147-.052.29-.082.437-.061.277-.125.558-.195.839s-.16.584-.255.883c-.043.147-.091.294-.143.442q-.3.89-.714,1.825c-2.821,6.379-14.66,6.5-14.66,6.5h-10.857c-.536-3.271-.121-7.408.857-12.8,9.16,1.056,19.892.77,26.262-.727Z" transform="translate(-2807.574 -2418.435)" fill="#e8e7e3"/><path d="M3049.271,2469.168c-2.821,6.379-14.66,6.5-14.66,6.5h-10.857c-.549-3.354-.1-7.62.931-13.211,2.237-12.167-7.174-13.959-7.174-13.959a24.557,24.557,0,0,0,2.531-5.422c7.365,1.536,16.547,3.682,20.221,5.547C3048.392,2452.75,3053.7,2459.159,3049.271,2469.168Z" transform="translate(-2758.874 -2263.931)" fill="#fff"/><path d="M3099.573,2616.65a12.626,12.626,0,0,1-.052,1.389c-.013.134-.026.268-.043.4-.031.264-.069.533-.116.805-.026.147-.052.29-.082.437-.056.277-.121.554-.195.839s-.16.584-.255.883c-.043.147-.091.294-.143.442q-.3.89-.714,1.825c-2.821,6.379-14.66,6.5-14.66,6.5h-10.857c-.536-3.271-.121-7.408.857-12.8,9.16,1.056,19.892.77,26.262-.727Z" transform="translate(-2807.574 -2418.435)" fill="#e8e7e3"/><path d="M2592.634,2100.479a99.277,99.277,0,0,1,.788,18.439c-.153,3.075-.441,6.145-.9,9.2a68.326,68.326,0,0,1-1.97,9.1l-1.306-2.186c3.51.734,7.016,1.509,10.515,2.388,1.75.441,3.5.908,5.245,1.44a34.554,34.554,0,0,1,5.291,2,30.781,30.781,0,0,1,4.806,3,19.213,19.213,0,0,1,4.087,4.2,13.958,13.958,0,0,1,2.331,5.595,15.273,15.273,0,0,1-.221,6,22.262,22.262,0,0,1-.863,2.79c-.081.227-.181.445-.271.668s-.168.426-.307.691a8.327,8.327,0,0,1-.86,1.426,12.217,12.217,0,0,1-4.923,3.726,24.392,24.392,0,0,1-5.518,1.641,29.962,29.962,0,0,1-5.626.511h-44.194c-.449,0-.879,0-1.374-.009a22.944,22.944,0,0,1-2.875-.232,23.809,23.809,0,0,1-18.041-13,30.307,30.307,0,0,1-2.767-16.631,32.8,32.8,0,0,1,3.214-10.729,37.794,37.794,0,0,1,6.275-9.024.87.87,0,0,1,1.387,1.034l0,.007a72.007,72.007,0,0,0-4.74,9.3,41.994,41.994,0,0,0-1.638,4.84,29.283,29.283,0,0,0-.925,4.966,28.491,28.491,0,0,0,.757,9.963,27.77,27.77,0,0,0,1.665,4.709,19.464,19.464,0,0,0,2.646,4.126,20.014,20.014,0,0,0,7.9,5.736,20.323,20.323,0,0,0,4.758,1.274,19.785,19.785,0,0,0,2.459.2c.4.011.86.008,1.3.009h44.176a26.56,26.56,0,0,0,5.024-.455,21.082,21.082,0,0,0,4.727-1.4,8.831,8.831,0,0,0,3.553-2.624,4.806,4.806,0,0,0,.521-.862c.075-.128.156-.35.235-.533s.165-.38.233-.572a18.95,18.95,0,0,0,.719-2.322,11.786,11.786,0,0,0,.183-4.636,10.468,10.468,0,0,0-1.762-4.208,20.635,20.635,0,0,0-7.629-6.1,31.485,31.485,0,0,0-4.722-1.767c-1.667-.508-3.371-.963-5.084-1.4-3.427-.861-6.9-1.629-10.374-2.356a1.732,1.732,0,0,1-1.341-2.05c.009-.044.022-.094.034-.137a64.708,64.708,0,0,0,1.866-8.628c.439-2.927.719-5.888.866-8.856a95.786,95.786,0,0,0-.757-17.779v-.01a1.73,1.73,0,1,1,3.426-.48h0Z" transform="translate(-2327.992 -1957.634)"/><path d="M840.072,1557.721c-5.115,6.7-8.671,16.932-11.523,28.24-7.5,29.728-10.152,66.9-23.5,66.95-16.673.056-27.291-38.386-26.448-61.683a50.99,50.99,0,0,1,.77-7.434c3.544-18.837,21.411-46.561,51-46.465l9.706,20.394Z" transform="translate(-765.859 -1457.672)" fill="#666564"/><g transform="translate(22.411 79.654)" opacity="0.5"><path d="M918.812,1557.712a36.031,36.031,0,0,0-2.316,3.44l-8.655-18.183c-17.282-.056-31.031,8.291-40.831,19.308,8.611-13.35,22.882-25.02,42.094-24.959l9.706,20.394Z" transform="translate(-867.01 -1537.318)" fill="#fff"/></g><path d="M828.539,1681.968c-7.5,29.728-10.152,66.9-23.5,66.95-16.673.056-27.292-38.386-26.448-61.683,2.258.879,5.491.814,7.339-5.175,2.774-8.992,11.809-33.09,22.8-36.755,5.5-1.834,13.345,17.2,19.805,36.665Z" transform="translate(-765.851 -1553.68)" fill="#939290"/><path d="M790.964,1640.623c-4.5,0-8.76-2.376-12.661-7.063-11.747-14.112-17.89-47.044-14.678-64.1,3.746-19.9,22.522-47.876,52.545-47.876h.16a1.731,1.731,0,0,1-.007,3.462h-.155c-28.049,0-45.618,26.323-49.144,45.054-3.012,16,2.947,48.046,13.936,61.25,3.213,3.859,6.578,5.816,10,5.816H791c8.466-.031,12.638-21.195,16.673-41.661,4-20.277,8.131-41.244,16.981-52.846a1.731,1.731,0,0,1,2.753,2.1c-8.363,10.963-12.6,32.454-16.337,51.416-4.7,23.831-8.756,44.412-20.056,44.454h-.046Z" transform="translate(-751.817 -1443.655)"/><path d="M1777.3,2439.3c-1.589,4.436-6.828,5.772-10.887,6.123a29.878,29.878,0,0,1-5.128,0H1672.02s0-30.264,15.876-34.7c14.055-3.92,45.2.328,52.168,1.354.9.134,1.4.212,1.4.212s6.049,1.372,12.493,2.925c2.809.676,5.69,1.39,8.178,2.037,4.2,1.1,14.267,4.656,16.045,13.25A16.083,16.083,0,0,1,1777.3,2439.3Z" transform="translate(-1561.182 -2233.68)" fill="#939290"/><path d="M1777.295,2439.3c-1.588,4.436-6.828,5.772-10.887,6.123h-94.4s0-30.264,15.876-34.7c14.055-3.92,45.2.328,52.168,1.354-1.566,5.418-6.9,10.182-3.025,16.829,4.31,7.4,37.772,9.688,41.143,1.6a16.082,16.082,0,0,1-.879,8.793Z" transform="translate(-1561.173 -2233.68)" fill="#666564"/><path d="M2373.079,2612.793c-1.588,4.435-6.828,5.772-10.887,6.123H2342a25.859,25.859,0,0,1-.493-9.135c.018-.143.034-.281.052-.424.056-.428.121-.857.194-1.29.018-.1.035-.19.052-.29.031-.165.065-.333.1-.5,11.511,2.995,29.628,2.562,32.06-3.28a16.083,16.083,0,0,1-.879,8.793Z" transform="translate(-2156.956 -2407.175)" fill="#666564"/><path d="M1968.74,1956.452c-10.364-5.534-15.011-4.435-24.3-15.945l-1.826-25.919c19.321-7.7,21.7-14.211,37.988-15.167,9.659,17.279,5.52,44.839.335,58.97-3.238-.457-8-.253-12.192-1.939Z" transform="translate(-1802.048 -1779.99)"/><path d="M2373.079,2488.911c-1.588,4.436-6.828,5.772-10.887,6.123a29.908,29.908,0,0,1-5.128,0H2342a25.863,25.863,0,0,1-.493-9.135c.018-.143.034-.281.052-.424.056-.428.121-.857.195-1.29.018-.1.035-.19.052-.29.031-.165.065-.333.1-.5a26.863,26.863,0,0,1,2.93-7.888c2.194-3.851,4.331-7.149,4.907-10.679,2.809.676,5.69,1.39,8.178,2.038,4.2,1.1,14.267,4.656,16.045,13.25a16.082,16.082,0,0,1-.879,8.793Z" transform="translate(-2156.957 -2283.292)" fill="#fff"/><path d="M2373.065,2612.793c-1.589,4.435-6.828,5.772-10.887,6.123a29.847,29.847,0,0,1-5.128,0h-15.068a26.877,26.877,0,0,1-.1-11.636c11.511,2.995,29.628,2.562,32.06-3.28a16.087,16.087,0,0,1-.879,8.793Z" transform="translate(-2156.943 -2407.175)" fill="#e8e7e3"/><path d="M1658.051,2462.363l22.318-.124q11.158-.064,22.318-.051l22.318-.012c7.439-.016,14.879.04,22.318.056.062,0,.122,0,.181.009l.018,0c.607.059,1.34.094,2.018.1s1.383-.006,2.07-.045a22.508,22.508,0,0,0,4.02-.572c2.575-.614,4.876-1.877,5.793-3.862a14.6,14.6,0,0,0,.631-1.792,17.988,17.988,0,0,0,.443-1.941,12.759,12.759,0,0,0,.093-3.85,11.466,11.466,0,0,0-3.444-6.667,21.947,21.947,0,0,0-6.794-4.4,32.635,32.635,0,0,0-3.93-1.409l-4.2-1.123c-5.656-1.5-11.326-3.014-16.924-4.829h0a.912.912,0,0,1,.4-1.771c5.847.8,11.609,1.965,17.347,3.3l2.151.513c.717.182,1.42.349,2.178.563a36.05,36.05,0,0,1,4.36,1.54,25.413,25.413,0,0,1,7.907,5.107,16.246,16.246,0,0,1,2.958,3.933,14.258,14.258,0,0,1,1.539,4.758,16.4,16.4,0,0,1-.087,4.921,21.608,21.608,0,0,1-.524,2.352,17.466,17.466,0,0,1-.833,2.356,9.609,9.609,0,0,1-3.587,3.967,15.542,15.542,0,0,1-4.6,1.9,26.085,26.085,0,0,1-4.682.7q-1.167.073-2.331.064c-.79-.008-1.525-.032-2.378-.111l.2.011c-7.439.017-14.879.073-22.318.056l-22.318-.012q-11.158,0-22.318-.051l-22.318-.124a1.731,1.731,0,0,1,0-3.461Z" transform="translate(-1547.215 -2252.353)"/><path d="M830.037,1590.162a60.924,60.924,0,0,1-26.309,15.573,83.32,83.32,0,0,1-16.885,2.981c-10.541,0-27.849-.411-37.248-.411-22.873,0-68.08-.489-70.767-38.468-1.437-20.321,15.959-30.248,19.424-31.761l.047-.022c.1-.043.19-.078.268-.108,0,0,3.1-35.717,26.323-54.536,25.444-20.619,65.367-15.024,84.527-8.044,9.014,3.289,29.251,11.13,37.681,43.64,7.43,28.677-2.22,56.314-17.062,71.157Z" transform="translate(-677.014 -1396.867)" fill="#939290"/><path d="M841.934,1807.939a60.924,60.924,0,0,1-26.309,15.573,83.321,83.321,0,0,1-16.885,2.981c-10.541,0-27.849-.411-37.248-.411-21.077,0-61.121-.415-69.383-30.2,13.951,18.9,42.034,21.278,62.967,22.08a196.65,196.65,0,0,0,35.93-1.614,32.333,32.333,0,0,0,27.581-30.266c1.051-19.518,1.652-47.5-1.687-67.757-3.414-20.713,44.228,36.141,36.8,7.464a86.262,86.262,0,0,0-2.878-9.074A75.258,75.258,0,0,1,859,1736.782c7.43,28.677-2.22,56.314-17.062,71.157Z" transform="translate(-688.912 -1614.644)" fill="#666564"/><path d="M815.616,2489.712a83.328,83.328,0,0,1-16.885,2.981c-10.541,0-27.849-.411-37.248-.411-.714,0-1.45,0-2.207,0-.381,0-.761,0-1.151,0-.264,0-.533,0-.805,0-.364,0-.727,0-1.1-.009-.81-.009-1.631-.018-2.475-.035-.316,0-.636-.013-.957-.022-.471-.009-.948-.022-1.428-.035q-.817-.02-1.653-.052l-.337-.013-1-.039c-1.45-.06-2.925-.138-4.427-.243-.459-.031-.926-.061-1.39-.1-.74-.056-1.48-.117-2.229-.186-.3-.026-.593-.052-.891-.082-.368-.035-.736-.073-1.1-.112h0c-.476-.052-.948-.1-1.424-.16-.4-.043-.792-.091-1.19-.143-1.528-.194-3.059-.415-4.592-.676-.459-.078-.917-.156-1.372-.243-.48-.087-.957-.178-1.428-.268s-.952-.195-1.424-.294q-1.4-.3-2.791-.649a1.193,1.193,0,0,1-.134-.035c-.372-.091-.745-.19-1.116-.29-.125-.031-.252-.065-.377-.1-.381-.1-.757-.207-1.138-.316a.319.319,0,0,0-.069-.022c-.922-.268-1.839-.554-2.743-.861-.679-.225-1.354-.463-2.021-.718-.225-.082-.446-.165-.667-.25l-.662-.259c-.879-.35-1.744-.727-2.6-1.12-.212-.1-.424-.194-.636-.3s-.42-.2-.632-.307c-.415-.208-.83-.42-1.242-.636-1.276-.679-2.519-1.415-3.708-2.207l-.442-.3c-.19-.13-.377-.259-.567-.393-.372-.264-.74-.533-1.1-.814-.181-.138-.364-.277-.54-.419-.54-.424-1.064-.866-1.575-1.319-.1-.091-.208-.181-.308-.277s-.186-.169-.277-.255c-.174-.156-.346-.321-.515-.489-.134-.125-.268-.255-.4-.39-.446-.446-.883-.9-1.3-1.376-.112-.125-.225-.25-.328-.377-.082-.087-.156-.177-.234-.268-.13-.152-.264-.312-.393-.467-.16-.2-.32-.4-.48-.605-.116-.151-.238-.307-.35-.463a31.983,31.983,0,0,1-2.709-4.266l-.312-.6c-.13-.259-.259-.524-.381-.792-.091-.19-.181-.381-.268-.576s-.169-.381-.25-.575q-.311-.733-.593-1.493c-.264-.709-.511-1.437-.732-2.18-.069-.234-.138-.471-.208-.714,13.955,18.9,42.034,21.273,62.969,22.077A196.757,196.757,0,0,0,791,2482.543a32.221,32.221,0,0,0,20.165-11.333c.221,1.151.4,2.307.549,3.475.757,5.954,2.454,12.029,3.9,15.024Z" transform="translate(-688.903 -2280.844)" fill="#e8e7e3"/><g transform="translate(35.513 72.15)" opacity="0.5"><path d="M1119.849,1515.388c-10.32-24.215-27.6-30.888-35.92-33.921a106.946,106.946,0,0,0-14.843-4.119c-1.134,2.454-5.92,4.025-11.506,3.6-6.244-.467-11.13-3.245-10.943-6.214-18.092-.462-37.819,3.146-52.826,15.3a58.647,58.647,0,0,0-7.521,7.326,59.567,59.567,0,0,1,12.363-13.968c25.444-20.619,65.366-15.024,84.527-8.044,8.671,3.164,27.729,10.541,36.668,40.03Z" transform="translate(-986.29 -1469.008)" fill="#fff"/></g><path d="M1112.706,1842.084c-.08-15.272,9.774-44.239,19.447-42,9.035,2.093.468,28.792,8.644,41.541,4.672,7.285-28,17.753-28.09.458Z" transform="translate(-1063.306 -1691.458)" fill="#fff"/><path d="M803.727,2139.26a83.312,83.312,0,0,1-16.885,2.981c-10.541,0-27.849-.411-37.248-.411-22.873,0-68.08-.489-70.767-38.468-1.437-20.321,15.959-30.248,19.424-31.761.018-.009.031-.013.047-.022.091-.035.177-.073.268-.108,8.91-3.63,46.019-9.329,81.93,18.355a46.625,46.625,0,0,1,10.211,10.51,52.094,52.094,0,0,1,9.114,23.9c.757,5.954,2.454,12.03,3.9,15.024Z" transform="translate(-677.014 -1930.392)" fill="#fff"/><path d="M815.616,2489.712a83.328,83.328,0,0,1-16.885,2.981c-10.541,0-27.849-.411-37.248-.411-.714,0-1.45,0-2.207,0-.381,0-.761,0-1.151,0-.264,0-.533,0-.805,0-.364,0-.727,0-1.1-.009-.81-.009-1.631-.018-2.475-.035-.316,0-.636-.013-.957-.022-.471-.009-.948-.022-1.428-.035q-.817-.02-1.653-.052l-.337-.013-1-.039c-1.45-.06-2.925-.138-4.427-.243-.459-.031-.926-.061-1.39-.1-.74-.056-1.48-.117-2.229-.186-.3-.026-.593-.052-.891-.082-.368-.035-.736-.073-1.1-.112h0c-.476-.052-.948-.1-1.424-.16-.4-.043-.792-.091-1.19-.143-1.528-.194-3.059-.415-4.592-.676-.459-.078-.917-.156-1.372-.243-.48-.087-.957-.178-1.428-.268s-.952-.195-1.424-.294c-.935-.2-1.865-.415-2.791-.649a1.193,1.193,0,0,1-.134-.035c-.372-.091-.745-.19-1.116-.29-.125-.031-.252-.065-.377-.1-.381-.1-.757-.212-1.138-.316a.319.319,0,0,0-.069-.022c-.922-.272-1.839-.558-2.743-.861-.679-.229-1.354-.467-2.021-.718-.225-.082-.446-.165-.667-.25l-.662-.259c-.879-.35-1.744-.727-2.6-1.12-.212-.1-.424-.194-.636-.3s-.42-.2-.632-.307c-.415-.208-.83-.42-1.242-.636-1.276-.679-2.519-1.415-3.708-2.207l-.442-.3c-.19-.13-.377-.259-.567-.393-.372-.264-.74-.533-1.1-.814-.181-.138-.364-.277-.54-.419-.54-.424-1.064-.866-1.575-1.319-.1-.091-.208-.181-.308-.277s-.186-.169-.277-.255c-.174-.156-.346-.321-.515-.489-.134-.125-.268-.255-.4-.39-.446-.446-.883-.9-1.3-1.376-.112-.125-.225-.25-.328-.377-.082-.087-.156-.177-.234-.268-.13-.152-.264-.312-.393-.467-.16-.2-.32-.4-.48-.605-.116-.151-.238-.307-.35-.463a31.983,31.983,0,0,1-2.709-4.266l-.312-.6c-.13-.259-.259-.524-.381-.792-.091-.19-.181-.381-.268-.576s-.169-.381-.25-.575q-.311-.733-.593-1.493-.4-1.064-.732-2.18c-.069-.234-.138-.471-.208-.714,13.955,18.9,42.034,21.273,62.969,22.077A196.757,196.757,0,0,0,791,2482.543a32.221,32.221,0,0,0,20.165-11.333c.221,1.151.4,2.307.549,3.475.757,5.954,2.454,12.029,3.9,15.024Z" transform="translate(-688.903 -2280.844)" fill="#e8e7e3"/><path d="M772.821,1596.416c-5.435,0-12.67-.109-19.666-.214-6.7-.1-13.03-.2-17.58-.2-10.615,0-28.378,0-43.506-5.081-18.021-6.054-27.775-17.828-28.989-35-1.384-19.571,14.013-30.455,19.851-33.2.71-6.182,5.279-37.214,26.849-54.693,26.761-21.685,68.092-14.927,86.207-8.324,8.2,2.988,29.976,10.926,38.765,44.831,7.863,30.337-3.131,58.431-17.514,72.814a62.678,62.678,0,0,1-23.947,15.017,80.173,80.173,0,0,1-20.332,4.039c-.046,0-.092.006-.138.006Zm-15.4-139.733c-15.623,0-32.4,3.456-45.466,14.041-22.393,18.147-25.657,52.992-25.688,53.343a1.731,1.731,0,0,1-1.114,1.47c-.2.076-20.125,8.945-18.626,30.146,2.607,36.861,47.478,36.861,69.042,36.861,4.576,0,10.918.1,17.633.2,6.953.1,14.143.213,19.544.214a76.767,76.767,0,0,0,19.4-3.852,59.248,59.248,0,0,0,22.634-14.194c13.687-13.687,24.131-40.484,16.611-69.5-8.332-32.143-28.141-39.364-36.6-42.447a115.161,115.161,0,0,0-37.375-6.279Z" transform="translate(-662.993 -1382.835)"/><path d="M844.517,2056.565l2.042-.585c.681-.2,1.361-.4,2.054-.536,1.38-.3,2.758-.63,4.152-.833l2.087-.347,2.1-.25c.7-.074,1.4-.181,2.1-.227l2.1-.136a91.727,91.727,0,0,1,16.805.585,99.11,99.11,0,0,1,16.416,3.5c1.338.411,2.681.8,3.992,1.3l1.975.708.983.365.962.419c1.273.587,2.556,1.141,3.782,1.821,1.217.7,2.422,1.417,3.574,2.22a.876.876,0,0,1-.711,1.569l-.045-.011c-1.351-.336-2.648-.76-3.935-1.2-.633-.243-1.3-.417-1.938-.631l-1.923-.653-.953-.344-.966-.312-1.924-.637c-1.273-.452-2.58-.8-3.88-1.17a104.559,104.559,0,0,0-15.874-3.128,96.824,96.824,0,0,0-16.132-.573l-2.013.113c-.671.036-1.337.122-2.006.179l-2,.2-1.989.289a72.713,72.713,0,0,0-7.847,1.626l-.089.023a1.73,1.73,0,0,1-.9-3.341Z" transform="translate(-823.456 -1917.143)"/><path d="M927.31,2060.292c3.24-3.136,25.833-4.1,31.133,1.709,3.7,4.058-8.26,15.947-17.811,15.247-7.857-.576-16.563-13.82-13.323-16.956Z" transform="translate(-897.656 -1920.962)"/><path d="M1871,1630.667c0,21.631-19.741,66.681-38.019,63.173-14.981-2.878-7.27-50.767-11.951-82.7-.973-6.651-2.488-12.614-4.86-17.326,0,0-2.068-7.732,1.156-13.024s12.15-5.223,12.15-5.223c18.9,3.492,30.766,17.607,36.759,32.323a66.84,66.84,0,0,1,3.466,11.225,57.517,57.517,0,0,1,1.229,9.057c.047.848.069,1.683.069,2.492Z" transform="translate(-1688.912 -1491.714)" fill="#666564"/><g transform="translate(133.84 83.857)" opacity="0.5"><path d="M1929.664,1630.677a45.83,45.83,0,0,1-.316,5.158,60.6,60.6,0,0,0-1.259-9.052,70.737,70.737,0,0,0-3.648-11.813c-6.31-15.487-22.6-34.514-42.484-38.187,0,0-.19-.013-.536-.022a21.818,21.818,0,0,1,6.721-1.181c18.9,3.492,30.766,17.607,36.759,32.323a66.819,66.819,0,0,1,3.466,11.225,57.5,57.5,0,0,1,1.229,9.057c.047.848.069,1.683.069,2.492Z" transform="translate(-1881.42 -1575.58)" fill="#fff"/></g><path d="M1915.67,1918.944c0,21.631-19.74,66.681-38.019,63.173-14.981-2.878-7.27-50.767-11.951-82.7,6.837,11.7,7.923,37.966,24.292,39.9,15,1.774,23.942-10.762,24.422-27.854q.579,2.433,1.186,4.985c.047.848.069,1.683.069,2.492Z" transform="translate(-1733.587 -1779.99)" fill="#939290"/><ellipse cx="3.208" cy="6.909" rx="3.208" ry="6.909" transform="translate(66.167 172.929)"/><path d="M1386.191,2013.2a9.9,9.9,0,0,1-.791,2.277,12.422,12.422,0,0,1-1.23,2.023,12.913,12.913,0,0,1-3.578,3.258,15.253,15.253,0,0,1-4.617,1.89,16.241,16.241,0,0,1-2.483.326,16.953,16.953,0,0,1-2.462-.083c-.4-.055-.8-.1-1.2-.168l-1.19-.248-1.173-.345c-.389-.124-.77-.282-1.152-.426a16.285,16.285,0,0,1-4.2-2.584,11.259,11.259,0,0,1-4.146-8.48,1.235,1.235,0,0,1,2.265-.668l.034.052a19.618,19.618,0,0,0,4.845,5.341,11.354,11.354,0,0,0,3.052,1.557,14.459,14.459,0,0,0,3.423.745,12.408,12.408,0,0,0,3.4-.054,10.252,10.252,0,0,0,3.205-1.024,19.873,19.873,0,0,0,2.974-1.929c.48-.38.973-.773,1.448-1.2.48-.4.968-.9,1.42-1.279l.18-.153a1.213,1.213,0,0,1,1.97,1.173Z" transform="translate(-1281.633 -1877.906)"/><path d="M936.42,1971.153a30.181,30.181,0,0,0,3.671,4.939,7.744,7.744,0,0,0,2.244,1.569,7.421,7.421,0,0,0,2.575.648,7.588,7.588,0,0,0,5.159-1.344,12.411,12.411,0,0,0,2.111-1.954,30.867,30.867,0,0,0,1.9-2.519l.018-.025a.892.892,0,0,1,1.62.583,9.491,9.491,0,0,1-1.057,3.594,9.8,9.8,0,0,1-2.447,3.062,10.448,10.448,0,0,1-7.595,2.411,10.023,10.023,0,0,1-3.958-1.1,11.067,11.067,0,0,1-3.144-2.53,11.413,11.413,0,0,1-2-3.258,10.271,10.271,0,0,1-.778-3.657.886.886,0,0,1,1.629-.493Z" transform="translate(-904.889 -1843.413)"/><path d="M1457.251,1680.366c4.749-6.791,27.089,5.8,25.212,9.058C1480.937,1692.069,1452.5,1687.157,1457.251,1680.366Z" transform="translate(-1369.529 -1583.236)" fill="#fff"/><path d="M1026.35,1660.232c-3.569-6.369-20.869,4.86-18.7,7.93C1009.406,1670.657,1029.353,1665.591,1026.35,1660.232Z" transform="translate(-969.621 -1565.364)" fill="#fff"/><g transform="translate(34.299 140.016)" opacity="0.5"><path d="M975.266,2088.812c.462-1.27,11.709-3.542,17.818-.385,4.476,2.312-3.883,3.36-8.7,3.36-5.049,0-9.592-1.68-9.121-2.975Z" transform="translate(-975.233 -2086.827)" fill="#fff"/></g><path d="M2935.138,2430.622a11.162,11.162,0,0,1,2.457-1.808,14.634,14.634,0,0,1,2.8-1.162,18.9,18.9,0,0,1,2.941-.637q.745-.1,1.5-.153a14.949,14.949,0,0,1,1.577-.03h0l.2.031a1.618,1.618,0,0,1,1.353,1.846,1.665,1.665,0,0,1-.107.379c-.39.929-.788,1.764-1.215,2.623s-.875,1.687-1.347,2.512a35.488,35.488,0,0,1-3.2,4.732.868.868,0,0,1-1.425-.982l.008-.013a33.39,33.39,0,0,0,2.273-4.854q.478-1.259.888-2.541c.268-.846.528-1.734.727-2.55l1.447,2.255a11.654,11.654,0,0,0-1.2-.164c-.424-.039-.853-.062-1.282-.07a16.214,16.214,0,0,0-2.563.147,10.53,10.53,0,0,0-4.705,1.752l-.016.011a.867.867,0,0,1-1.111-1.325Z" transform="translate(-2685.317 -2249.459)"/><path d="M1827.3,2628.929a12.388,12.388,0,0,1-1.161,2.017c-.2.323-.445.609-.672.912l-.346.449-.372.423c-.254.277-.5.563-.765.834l-.818.778a22.019,22.019,0,0,1-1.733,1.447,28.757,28.757,0,0,1-7.953,4.153l-2.139.68-2.179.492-1.093.237-1.1.15-2.207.282c-1.472.131-2.948.145-4.421.2-1.466-.078-2.933-.131-4.394-.238a1.729,1.729,0,0,1,.095-3.453l.134,0c1.385-.021,2.764.014,4.142.023,1.369-.089,2.744-.12,4.1-.228l2.031-.241,1.017-.114,1-.2,2-.375,1.954-.536a30.285,30.285,0,0,0,7.386-3.2c.556-.373,1.151-.7,1.671-1.126l.811-.6c.259-.212.507-.438.763-.656l.388-.326.36-.35c.237-.236.494-.461.71-.715s.459-.492.658-.754c.213-.246.427-.531.584-.751l.056-.079a.864.864,0,0,1,1.491.857Z" transform="translate(-1670.071 -2428.279)"/><g transform="translate(139.487 99.303)" opacity="0.5"><path d="M1933.456,1720.949c-2.317,2.719,2.318,6.313,4.659,12.676,1.577,4.288,2.8,8.275,3.818,10.538,1.955,4.352,6.35-3.617,9.469-4.429,3.716-.968,10.513,3.826,9.494-3.929-1.171-8.909-13.56-23.428-16.138-18.674-1.221,2.253-1.224,3.972-2.937,4.6C1939.3,1722.667,1934.954,1719.191,1933.456,1720.949Z" transform="translate(-1932.825 -1716.198)" fill="#fff"/></g><path d="M2303.073,2342.477a12.694,12.694,0,0,1,2.217.44,14.839,14.839,0,0,1,2.1.77,12.127,12.127,0,0,1,3.73,2.639,10.869,10.869,0,0,1,2.46,3.991,12.9,12.9,0,0,1,.613,2.265c.14.765.164,1.53.242,2.3a1.732,1.732,0,1,1-3.447.351c0-.046-.008-.091-.009-.137l-.006-.269c-.012-.6.041-1.225-.009-1.824a9.918,9.918,0,0,0-.292-1.764,8.017,8.017,0,0,0-1.538-3.176,9.647,9.647,0,0,0-2.769-2.4,12.938,12.938,0,0,0-1.715-.832,11.051,11.051,0,0,0-1.795-.556l-.076-.017a.906.906,0,0,1,.294-1.785Z" transform="translate(-2122.018 -2174.374)"/><path d="M2521.406,2643.59c1.055-.075,2.151-.206,3.21-.379a27.493,27.493,0,0,0,3.117-.685,12.224,12.224,0,0,0,2.759-1.122,4.083,4.083,0,0,0,.971-.751,1.351,1.351,0,0,0,.371-.692,1.751,1.751,0,1,1,3.472.46,1.782,1.782,0,0,1-.091.372l-.093.248a4.812,4.812,0,0,1-1.487,2.022,7.276,7.276,0,0,1-1.807,1.059,14.977,14.977,0,0,1-3.548.941,29.99,29.99,0,0,1-3.458.3c-1.149.036-2.27.025-3.433-.044a.866.866,0,0,1-.01-1.729Z" transform="translate(-2316.526 -2437.831)"/><path d="M2533.143,2569.765c.872-.054,1.773-.141,2.65-.248s1.752-.247,2.6-.422a13.682,13.682,0,0,0,2.371-.687,3.049,3.049,0,0,0,.815-.465c.037-.035.055-.066.083-.091-.012-.016.021-.04-.013-.028a.408.408,0,0,0-.145.271,1.731,1.731,0,1,1,3.449.3,2.9,2.9,0,0,1-.667,1.505,3.609,3.609,0,0,1-.481.464,5.551,5.551,0,0,1-.467.31,6.338,6.338,0,0,1-1.669.627,16.562,16.562,0,0,1-2.958.375c-.955.043-1.892.038-2.824.006s-1.849-.091-2.79-.183a.867.867,0,0,1,.031-1.729h.019Z" transform="translate(-2326.973 -2373.804)"/><path d="M3198.2,2643.739c1.054-.085,2.147-.225,3.2-.407a27.656,27.656,0,0,0,3.112-.709,12.837,12.837,0,0,0,2.769-1.13,4.58,4.58,0,0,0,1.005-.755,1.535,1.535,0,0,0,.427-.718,1.75,1.75,0,1,1,3.324,1.033l-.1.228a5.012,5.012,0,0,1-1.539,1.921,7.748,7.748,0,0,1-1.8,1.017,15.6,15.6,0,0,1-3.529.94,30.111,30.111,0,0,1-3.45.325c-1.146.046-2.266.045-3.428-.013a.866.866,0,0,1-.026-1.729l.026,0Z" transform="translate(-2918.985 -2437.98)"/><path d="M3216.341,2568.857c.872-.063,1.774-.16,2.652-.279s1.752-.267,2.6-.451a13.721,13.721,0,0,0,2.368-.715,3.1,3.1,0,0,0,.816-.476c.036-.036.057-.068.083-.094-.011-.018.024-.042-.01-.031a.386.386,0,0,0-.141.262,1.731,1.731,0,0,1,3.449.3,2.909,2.909,0,0,1-.662,1.5,3.6,3.6,0,0,1-.476.464c-.152.112-.311.223-.462.313a6.433,6.433,0,0,1-1.661.644,16.471,16.471,0,0,1-2.958.407c-.955.054-1.9.06-2.829.04s-1.853-.07-2.8-.151a.867.867,0,0,1,.011-1.729h.019Z" transform="translate(-2935.134 -2372.896)"/><path d="M1828.257,1567.76a39.783,39.783,0,0,1,15.7,5.112,17.514,17.514,0,0,1,1.78,1.094l1.744,1.153,1.659,1.271.825.642c.272.216.524.458.786.685l1.56,1.387c.515.468.986.98,1.481,1.468,1.005.964,1.894,2.032,2.813,3.072.472.511.867,1.082,1.3,1.621.419.552.872,1.081,1.261,1.653.785,1.14,1.609,2.257,2.313,3.449a65.415,65.415,0,0,1,3.947,7.289,66.685,66.685,0,0,1,5.039,15.745,55.607,55.607,0,0,1,.951,8.266l.055,2.1c0,.706-.025,1.408-.058,2.108-.075,1.4-.212,2.781-.389,4.153a91.851,91.851,0,0,1-3.733,16.007,120.922,120.922,0,0,1-6.048,15.2,91.491,91.491,0,0,1-8.31,14.173,52.581,52.581,0,0,1-5.387,6.361,28.783,28.783,0,0,1-6.825,5.167,17.061,17.061,0,0,1-4.2,1.553,12.766,12.766,0,0,1-4.616.186l-.578-.089c-.2-.04-.406-.093-.609-.142a8.639,8.639,0,0,1-1.2-.4,9.407,9.407,0,0,1-2.139-1.3,12.4,12.4,0,0,1-2.915-3.65,29.6,29.6,0,0,1-2.729-8.111,77.214,77.214,0,0,1-1.161-8.17c-.5-5.436-.667-10.846-.777-16.239s-.119-10.769-.192-16.133-.19-10.715-.437-16.043a146.873,146.873,0,0,0-1.527-15.85,87.588,87.588,0,0,0-3.622-15.3l0-.007a.872.872,0,0,1,1.548-.772,31.354,31.354,0,0,1,3.526,7.511c.446,1.308.8,2.639,1.141,3.972.312,1.339.591,2.681.828,4.029a149.955,149.955,0,0,1,1.737,16.221c.331,5.407.447,10.808.505,16.194l.154,16.118c.082,5.354.221,10.7.682,15.974a73.72,73.72,0,0,0,1.065,7.794,26.248,26.248,0,0,0,2.332,7.138,8.958,8.958,0,0,0,2.052,2.639,5.965,5.965,0,0,0,1.293.8,4.923,4.923,0,0,0,.712.241c.124.029.242.064.371.091l.419.062a11.108,11.108,0,0,0,6.724-1.4,25.362,25.362,0,0,0,5.956-4.564,49.176,49.176,0,0,0,5-5.951,88.059,88.059,0,0,0,7.93-13.642,117.3,117.3,0,0,0,5.815-14.763,90.3,90.3,0,0,0,3.553-15.369,41.67,41.67,0,0,0,.359-7.729,52.047,52.047,0,0,0-.9-7.739,63.078,63.078,0,0,0-12.932-28.171c-.855-.978-1.677-1.987-2.61-2.89-.459-.458-.894-.941-1.371-1.38l-1.443-1.3c-.243-.214-.475-.442-.727-.645l-.762-.6-1.517-1.214-1.594-1.107c-.528-.374-1.06-.744-1.62-1.068a54.915,54.915,0,0,0-14.3-6.249l-.008,0a.869.869,0,0,1,.322-1.7Z" transform="translate(-1687.539 -1484.754)"/><g transform="translate(44.557)"><path d="M1071.422,1330.991a.662.662,0,0,1-.529-1.061l6.676-8.854-8.1,2.268a.663.663,0,0,1-.358-1.277l9.992-2.8a.662.662,0,0,1,.707,1.037l-6.677,8.854,8.1-2.268a.663.663,0,0,1,.358,1.276l-9.992,2.8a.659.659,0,0,1-.179.024Z" transform="translate(-1068.624 -1263.546)"/><path d="M1160.63,1113.876a1.14,1.14,0,0,1-.12-.006l-16.69-1.862a1.073,1.073,0,0,1-.433-1.986l15.388-9.237-13.534-1.51a1.073,1.073,0,1,1,.238-2.132l16.69,1.862a1.073,1.073,0,0,1,.433,1.986l-15.388,9.237,13.534,1.51a1.073,1.073,0,0,1-.119,2.139Z" transform="translate(-1134.711 -1065.834)"/><path d="M1253.536,833.294a1.2,1.2,0,0,1-.951-1.94l12.333-15.895-14.755,3.913a1.2,1.2,0,1,1-.616-2.326l18.2-4.826a1.2,1.2,0,0,1,1.259,1.9l-12.333,15.895,14.755-3.913a1.2,1.2,0,1,1,.616,2.326l-18.195,4.826a1.191,1.191,0,0,1-.309.041Z" transform="translate(-1228.876 -812.181)"/></g></svg>