<svg xmlns="http://www.w3.org/2000/svg" width="300" height="158.056" viewBox="0 0 300 158.056"><g transform="translate(0 18.503)"><g transform="translate(0 116.524)"><ellipse cx="150" cy="11.514" rx="150" ry="11.514" fill="#c3c3bf"/></g><g transform="translate(12.498 4.628)"><path d="M2090.947,1578.982c1.472,13.3,7.187,25.941,17.882,34.467a49.374,49.374,0,0,0,22.97,9.887,9.3,9.3,0,0,1-.326-1.322c-3.149-18.837,24.8-21.764,53.728-18.616,17.662-11.543,24.672-41.537,13.363-63.548a43.842,43.842,0,0,0-16.812-17.863c-7.862-4.67-17.98-7.555-30.626-7.708-4.516-3.935-14.458-9.6-29.938-2.724a11.084,11.084,0,0,0-5.056,4.492,25.369,25.369,0,0,0-2.946,8.323c-11.1,7.261-18.544,20.306-21.358,34.623a66.248,66.248,0,0,0-.879,19.988Z" transform="translate(-2077.28 -1506.696)" fill="#fff"/><g transform="translate(13.283 15.291)" opacity="0.3"><path d="M2090.947,1710.995c1.472,13.3,7.187,25.941,17.882,34.467a49.372,49.372,0,0,0,22.97,9.887,9.319,9.319,0,0,1-.326-1.322c-3.149-18.837,24.8-21.764,53.728-18.617,17.662-11.543,24.672-41.538,13.363-63.548A43.842,43.842,0,0,0,2181.751,1654c35.489,36.395,3.5,75.347-45.491,81.226-26.022,4.558-48.969-17.151-43.975-44.306l-.458.087a66.248,66.248,0,0,0-.879,19.988Z" transform="translate(-2090.563 -1654)"/></g><path d="M2637.142,1528.354c-1.551,8.628.38,18.879,6.539,24.565,17.9-2.384,27.168-11.546,28.564-26.885,0,0,8.692-1.108,2.085-8.4s-26.371-6.065-33.29,1.028h0a20.484,20.484,0,0,0-3.9,9.689" transform="translate(-2601.236 -1510.679)" fill="#939290"/><g transform="translate(35.748 12.687)" opacity="0.3"><path d="M2689.678,1655.409c17.525-2.334,26.773-11.161,28.463-25.923-3.476,10.766-12.354,17.3-27.056,19.256-5.675-5.241-7.76-14.364-6.834-22.512a17.4,17.4,0,0,0-1.112,4.613c-1.551,8.629.38,18.879,6.539,24.565Z" transform="translate(-2682.629 -1626.23)"/></g><g transform="translate(37.37 7.612)" opacity="0.3"><path d="M3014.39,1577.176a20.955,20.955,0,0,1,2.785-5.076s-.206.21-.794.814c-.08.08-.155.159-.229.234l-.117.12-.071.075c-.32.324-.864.884-1,1.019-.033.035-.066.065-.094.095l-.1.105c0,.01-.014.015-.023.025-.024.175-.042.355-.061.534-.12.672-.219,1.359-.3,2.053Z" transform="translate(-3014.39 -1572.1)"/></g><g transform="translate(35.397 2.045)" opacity="0.66"><path d="M2639.722,1547.343a32.32,32.32,0,0,1-1.19-16.122,20.476,20.476,0,0,1,3.9-9.689c6.917-7.094,26.682-8.319,33.288-1.027a14.819,14.819,0,0,1,1.239,1.541c-.1-1.131-.8-2.577-2.462-4.41-6.606-7.292-26.369-6.066-33.292,1.028a20.5,20.5,0,0,0-3.9,9.689A31.257,31.257,0,0,0,2639.722,1547.343Z" transform="translate(-2636.8 -1512.723)" fill="#fff"/></g><circle cx="15.073" cy="15.073" r="15.073" transform="translate(79.965 92.708) rotate(-135)" fill="#939290"/><path d="M2685.817,1656.732a34.519,34.519,0,0,0,.339,13.779,27.788,27.788,0,0,0,2.408,6.572,21.052,21.052,0,0,0,4.288,5.692,1.606,1.606,0,0,0,1.223.424l.09-.008a39.79,39.79,0,0,0,10.845-2.456,28.855,28.855,0,0,0,9.576-5.951,24.7,24.7,0,0,0,6.165-9.331,30.279,30.279,0,0,0,1.764-10.754,36.756,36.756,0,0,1-3.368,10.042,24.739,24.739,0,0,1-6.483,7.849,31.144,31.144,0,0,1-8.913,4.787,69.268,69.268,0,0,1-10.015,2.6l1.313.415a17.85,17.85,0,0,1-3.617-4.818,24.575,24.575,0,0,1-2.121-5.8,31.3,31.3,0,0,1-.3-12.467v-.007a1.62,1.62,0,1,0-3.191-.567h0Z" transform="translate(-2651.507 -1639.344)"/><path d="M2612.035,1560.739a1.621,1.621,0,0,0,1.327-2.548,20.339,20.339,0,0,0-3.092-3.286,1.621,1.621,0,0,0-2.131,2.442,17.684,17.684,0,0,1,2.571,2.706,1.623,1.623,0,0,0,1.327.685Z" transform="translate(-2535.358 -1548.542)"/><path d="M446.229,1868.257a9.333,9.333,0,0,0,.326,1.322,8.869,8.869,0,0,0,1.218,2.424v0a9.013,9.013,0,0,0,6.265,3.761c21.362,2.659,38.563,2.254,49.2-2.987,16.792,9.39,52.363,10.767,75.819.774,12.633,6.02,30.392,6.731,41.414-.5,4.518-3.366,4.858-9.157,2.088-14.614a21.524,21.524,0,0,0-2.949-4.342v0h0v0a27.668,27.668,0,0,0-21.079-9.185c3.972-19.008-2.239-30.609-3.567-32.812,6.932,10.639,17.708,41.885,38.43,49.749-3.369,1.219-5.917,2.935-7.094,5.161l0,0a6.071,6.071,0,0,0-.714,2.74c.623,4.463,8.358,7.857,24.4,5.788,14.646-1.126,23.451-7.972,23-14.359-.353-4.994-6.356-9.707-19.634-11.192a66.822,66.822,0,0,1-12.824-2.647c-.132-.044-.264-.083-.4-.129A48.814,48.814,0,0,1,612,1823.113c-6.992-13.5-14.162-25.581-22.5-28.685-23.212-16.953-48.9-17.807-76.178-8.336,11.31,22.01,4.3,52-13.362,63.548-28.925-3.147-56.877-.22-53.728,18.617Z" transform="translate(-392.037 -1752.939)" fill="#fff"/><path d="M629.958,2643.074c6.857-4.686,4.994-14.86-6.2-15.4,0,0-11.045-.876-17.854,3.6s-8.08,10.406,8.208,12.29A80.325,80.325,0,0,0,629.958,2643.074Z" transform="translate(-367.55 -2521.027)" fill="#939290"/><path d="M458.275,2540.4s14.4,1.127,14.767,7.656c0,0,4.91-3.133,2.9-8.2s-13.847-9.1-17.633-8.8a15.892,15.892,0,0,0-5.217,8.887Z" transform="translate(-196.126 -2433.518)" fill="#939290"/><path d="M816.28,2433.191s-6.159,1.9-3.6,11.665l-3.3,1.011s-10.436-3.823-14.186-10.167c0,0-.223-9.845,6.064-10.2,0,0,7.4,4.293,15.014,7.692Z" transform="translate(-568.06 -2337.875)" fill="#939290"/><path d="M1040.546,2165.438s-6.387,2.377-6.81,6.993l-7.861-13.969-3.786-7.554s1.712-6.344,7.182-4.9c0,0,6.594,14.328,11.6,19.5" transform="translate(-813.922 -2084.394)" fill="#939290"/><path d="M1362.618,1780.6c1.586,51.332,70.186,64.1,66.056,9.476Q1395.169,1769.206,1362.618,1780.6Z" transform="translate(-1233.832 -1749.8)" fill="#939290"/><ellipse cx="13.113" cy="9.515" rx="13.113" ry="9.515" transform="translate(185.573 115.261) rotate(-146.39)" fill="#939290"/><g transform="translate(121.282 27.11)" opacity="0.66"><path d="M445.988,1786.1c.485.939.936,1.9,1.353,2.865,26.547-8.756,51.555-7.542,74.208,9,8.342,3.105,15.512,15.18,22.5,28.685a48.812,48.812,0,0,0,28.128,24.093c.132.044.264.084.4.128a66.878,66.878,0,0,0,12.824,2.647c13.19,1.478,19.2,6.136,19.621,11.094,2.646-6.1-2.682-12.8-19-14.626a66.807,66.807,0,0,1-12.824-2.647c-.132-.044-.264-.083-.4-.128a48.814,48.814,0,0,1-28.128-24.093c-6.991-13.5-14.162-25.581-22.5-28.685-23.213-16.953-48.9-17.807-76.178-8.336Z" transform="translate(-445.988 -1780.058)" fill="#fff"/></g><path d="M2116.275,1609.173a1.621,1.621,0,0,0,1.541-2.124,7.577,7.577,0,0,1-.27-1.092c-.687-4.106.205-7.4,2.728-10.073,6.54-6.925,24.481-9.352,49.227-6.66a1.622,1.622,0,0,0,1.062-.254c8.86-5.79,15.51-16.31,18.242-28.86,2.758-12.661,1.181-26.068-4.325-36.785-8.546-16.638-25.674-26.015-48.272-26.442-5.03-4.181-15.427-9.6-31.2-2.593a12.621,12.621,0,0,0-5.794,5.152,26.685,26.685,0,0,0-3.014,8.173c-15.668,10.655-24.854,33.458-22.385,55.761h0c1.629,14.726,8.192,27.353,18.481,35.557A51.035,51.035,0,0,0,2116,1609.149a1.541,1.541,0,0,0,.27.023Zm34.909-24.253c-12.989,0-26.77,1.858-33.267,8.738a14.09,14.09,0,0,0-3.708,11.853,47.028,47.028,0,0,1-19.892-9.112c-9.611-7.663-15.748-19.517-17.281-33.379h0c-2.37-21.41,6.477-43.236,21.515-53.077a1.619,1.619,0,0,0,.708-1.071,23.808,23.808,0,0,1,2.748-7.788,9.522,9.522,0,0,1,4.316-3.832c14.631-6.5,23.958-1.246,28.215,2.465a1.62,1.62,0,0,0,1.046.4c21.629.26,37.97,9.028,46.014,24.69,10.588,20.606,4.693,49.549-12.331,61.133a174.707,174.707,0,0,0-18.081-1.019Z" transform="translate(-2061.756 -1490.912)"/><path d="M525.347,1866.1c14.019,0,27.4-2.373,38-6.753,12.121,5.519,30.329,6.962,42.337-.921.027-.018.053-.037.079-.055a11.124,11.124,0,0,0,2.861-3.106c1.7,4.457,9.18,8.042,25.847,5.9,15.913-1.236,24.355-8.659,24.472-15.36.12-6.909-7.764-11.923-21.089-13.414a64.829,64.829,0,0,1-12.512-2.579l-.372-.121a46.888,46.888,0,0,1-27.2-23.3c-7.922-15.3-14.9-26.163-23.164-29.378-22.142-16.088-47.49-18.844-77.49-8.43a1.621,1.621,0,0,0-.91,2.272c10.588,20.606,4.693,49.549-12.332,61.133-15.238-1.614-41.559-2.647-51.348,7.719-3.222,3.412-4.422,7.731-3.568,12.839v0a10.959,10.959,0,0,0,.383,1.552,10.7,10.7,0,0,0,8.825,7.3c22.916,2.852,39.077,1.945,49.35-2.777,8.452,4.474,21.293,7.185,35.428,7.458q1.205.024,2.407.023Zm38.034-10.146a1.607,1.607,0,0,0-.635.13c-23.761,10.122-58.873,7.981-74.393-.7a1.618,1.618,0,0,0-1.508-.039c-9.641,4.751-25.435,5.678-48.284,2.832a7.443,7.443,0,0,1-6.141-5.08,7.707,7.707,0,0,1-.27-1.091c-.686-4.11.205-7.405,2.727-10.076,6.54-6.925,24.48-9.354,49.227-6.66a1.623,1.623,0,0,0,1.062-.254c8.86-5.79,15.509-16.31,18.242-28.861a56.189,56.189,0,0,0-3.5-35.1c28.242-9.37,52.122-6.516,72.958,8.7a1.617,1.617,0,0,0,.391.21c7.817,2.909,15.015,15.134,21.63,27.912a50.1,50.1,0,0,0,29.066,24.889l.383.124a67.861,67.861,0,0,0,13.158,2.72c13.529,1.513,18.277,6.228,18.21,10.136-.09,5.184-8.163,11.16-21.52,12.188-.028,0-.055,0-.083.008-15.616,2.016-22.008-1.415-22.57-4.281.173-3.236,3.747-5.2,6.738-6.28a1.621,1.621,0,0,0,.024-3.04c-15.316-5.812-25.371-25.636-32.023-38.754-2.127-4.195-3.965-7.816-5.625-10.365a1.621,1.621,0,0,0-2.746,1.722c1.238,2.052,7.217,13.225,3.368,31.643a1.623,1.623,0,0,0,1.587,1.953h.052c12.162,0,21.007,7.468,23.464,14.857,1.431,4.3.519,8.07-2.5,10.344-9.915,6.478-26.636,6.635-39.786.368a1.62,1.62,0,0,0-.7-.157Zm-132.829-3.676Zm183.225-6.413a12.775,12.775,0,0,0-3.522,2.814,15.625,15.625,0,0,0-.814-4.3q-.274-.824-.638-1.648a36.788,36.788,0,0,0,4.973,3.136Zm-28.3-34.679a141.062,141.062,0,0,0,11.827,19.66,30.168,30.168,0,0,0-12.5-3.489,57.317,57.317,0,0,0,.677-16.171Z" transform="translate(-376.359 -1736.955)"/><path d="M608.85,2621.643a64.031,64.031,0,0,0-13.625-1.872,55.691,55.691,0,0,0-6.966.213,37.583,37.583,0,0,0-6.993,1.3,1.624,1.624,0,0,0,.916,3.117c.059-.018.117-.039.173-.062l.014-.006a34.816,34.816,0,0,1,6.263-1.945,53.832,53.832,0,0,1,6.64-.995,63.285,63.285,0,0,1,13.578.251Z" transform="translate(-340.462 -2513.908)"/><path d="M1428.522,2694.81a27.318,27.318,0,0,0,4.384,5.077,38.08,38.08,0,0,0,5.45,4.128l.01.006a1.634,1.634,0,1,0,1.744-2.764,1.754,1.754,0,0,0-.361-.171,35.693,35.693,0,0,1-5.9-2.517,26.534,26.534,0,0,1-5.33-3.76Z" transform="translate(-1252.03 -2581.935)"/><path d="M2206.876,2724.468l1.828-2.987c.608-.985,1.218-1.962,1.907-2.9-1.041.528-2.052,1.141-3.052,1.753l-2.969,1.836,2.286,2.3Z" transform="translate(-2094.531 -2603.477)"/><path d="M1229.746,2453.9c-.892.286-1.717.59-2.561.911s-1.667.658-2.484,1.025-1.627.746-2.411,1.176a17.877,17.877,0,0,0-2.25,1.42,17.416,17.416,0,0,1,2.524-.658c.848-.166,1.708-.276,2.564-.374s1.719-.162,2.578-.214,1.732-.085,2.554-.085a1.641,1.641,0,0,0,0-3.283,1.623,1.623,0,0,0-.494.076l-.019.007Z" transform="translate(-1023.511 -2363.54)"/><path d="M959.535,2687.061a3.018,3.018,0,0,1-.471.184c-.181.061-.37.112-.56.162a11.167,11.167,0,0,1-1.177.232,10.478,10.478,0,0,1-2.45.054,11.212,11.212,0,0,1-1.242-.186,10.642,10.642,0,0,1-3.561-1.558,11.125,11.125,0,0,0,1.947,1.9,11.246,11.246,0,0,0,1.166.783,12.706,12.706,0,0,0,1.281.624,12.485,12.485,0,0,0,2.787.808,14.186,14.186,0,0,0,1.473.166c.249.012.5.023.758.02a6.65,6.65,0,0,0,.834-.048l.3-.038a1.682,1.682,0,0,0-.423-3.338A1.712,1.712,0,0,0,959.535,2687.061Z" transform="translate(-728.388 -2573.906)"/><path d="M3106.353,2291.937a9.237,9.237,0,0,0,6.99,7.662c6.376,1.581,17.819,3.267,22.768-3.232-10.695-8.526-16.409-21.165-17.881-34.467-6.527,6.093-13.212,20.1-11.878,30.037Z" transform="translate(-3104.562 -2189.614)" fill="#939290"/><g transform="translate(1.619 72.285)" opacity="0.66"><path d="M3289.332,2291.928a8.98,8.98,0,0,0,2.642,5.233,8.545,8.545,0,0,1-.48-1.909c-1.234-9.211,4.411-21.909,10.441-28.569-.306-1.585-.544-3.186-.725-4.794-6.527,6.093-13.212,20.1-11.878,30.037Z" transform="translate(-3289.16 -2261.89)" fill="#fff"/></g><path d="M2766.406,2719.646a3.171,3.171,0,0,1-.295-.358c-.1-.143-.206-.283-.294-.435a7.468,7.468,0,0,1-.511-.928,5.973,5.973,0,0,1-.57-2.006,3.691,3.691,0,0,1,.429-2.052,5.3,5.3,0,0,1,1.577-1.728,5.7,5.7,0,0,0-2.212,1.225,4.912,4.912,0,0,0-1.4,2.359,7.937,7.937,0,0,0-.179,2.795,10.169,10.169,0,0,0,.229,1.375c.047.229.117.452.179.68a6.762,6.762,0,0,0,.257.72l2.792-1.647Z" transform="translate(-2703.008 -2597.641)"/><path d="M3108.251,2286.99c5.168,0,10.376-1.232,13.476-5.3a1.621,1.621,0,0,0-.28-2.249c-9.61-7.662-15.747-19.516-17.281-33.379a1.621,1.621,0,0,0-2.717-1.007c-6.976,6.512-13.776,21.025-12.378,31.438h0a10.928,10.928,0,0,0,8.207,9.021A47,47,0,0,0,3108.251,2286.99Zm9.842-6.122c-4.866,4.379-14.477,2.875-20.034,1.5a7.661,7.661,0,0,1-5.774-6.305c-1.085-8.08,3.625-19.543,9.133-26.227,2.1,12.626,7.933,23.5,16.676,31.035Zm-27.415-4.592Z" transform="translate(-3088.887 -2173.952)"/><path d="M2519.079,2150.634a22.934,22.934,0,0,0,5.149-3.618,29.673,29.673,0,0,0,2.231-2.333,23.663,23.663,0,0,0,1.967-2.606,17.046,17.046,0,0,0,2.527-6.026,14.163,14.163,0,0,0-.222-6.316.22.22,0,0,0-.27-.156.223.223,0,0,0-.164.2,15.84,15.84,0,0,1-1.366,5.639,16.5,16.5,0,0,1-3.206,4.541,29.522,29.522,0,0,1-4.34,3.583c-1.539,1.116-3.144,2.172-4.665,3.427l-.013.011a2.192,2.192,0,0,0,2.372,3.654Z" transform="translate(-2444.316 -2069.692)"/><path d="M2806.649,2484.665a6.21,6.21,0,0,0,2.35.572,9.191,9.191,0,0,0,1.233,0c.41-.035.818-.107,1.23-.176a12.458,12.458,0,0,0,4.534-2.021,18.189,18.189,0,0,0,1.961-1.521c.6-.557,1.176-1.139,1.742-1.732a19.31,19.31,0,0,0,1.482-1.919,13.819,13.819,0,0,0,1.087-2.132,2.191,2.191,0,0,0-3.718-2.206l-.124.149a10.706,10.706,0,0,0-1.164,1.752c-.169.307-.359.587-.532.888s-.337.6-.495.916c-.348.588-.708,1.177-1.087,1.75a20.207,20.207,0,0,1-1.253,1.609,16.324,16.324,0,0,1-1.43,1.448l-.8.619c-.279.19-.568.361-.861.549a7.58,7.58,0,0,1-4.009,1.04l-.035,0a.218.218,0,0,0-.108.414Z" transform="translate(-2762.778 -2380.694)"/><path d="M2724.2,2393.416a13.224,13.224,0,0,1,.347,5.272,1.2,1.2,0,0,1-.907,1,14.709,14.709,0,0,1-4.8.189,1.209,1.209,0,0,1-1.008-1.646,11.985,11.985,0,0,1,4.527-5.491,1.206,1.206,0,0,1,1.843.671Z" transform="translate(-2656.703 -2308.001)"/><path d="M2660.715,2452.22l2.014-2.094c-2.631-2.531-6.42-6.5-6.458-6.537l-2.1,2.007C2654.208,2445.636,2658.04,2449.646,2660.715,2452.22Z" transform="translate(-2588.8 -2354.269)"/><g transform="translate(28.016 18.979)" opacity="0.3"><path d="M3016.587,1715.3s-18.63-11.3-11.57-18.17c.544-.529,6.087-3.793,6.087-3.793S3008.631,1706.461,3016.587,1715.3Z" transform="translate(-3003.42 -1693.34)"/></g><g transform="translate(1.992 89.702)" opacity="0.3"><path d="M3106.18,2461.312a9.289,9.289,0,0,0,6.789,6.622c6.377,1.581,17.819,3.267,22.768-3.232a43.7,43.7,0,0,1-5.119-4.794,9.365,9.365,0,0,1-.891.817l-5.089-6.646-3.706-6.431c.234.521,7.072,16.226-4.6,15.942a50.039,50.039,0,0,1-7.734-1.316,9.475,9.475,0,0,1-2.413-.962Z" transform="translate(-3106.18 -2447.65)"/></g><g transform="translate(196.044 60.223)" opacity="0.3"><path d="M1230.111,2133.24s6.416,27.338-6.681,34.687l10.406-4.278,1.621-22.038" transform="translate(-1223.43 -2133.24)"/></g><g transform="translate(54.285 100.717)" opacity="0.3"><path d="M966.719,2583.037v0a9.012,9.012,0,0,0,6.265,3.761c21.362,2.659,38.563,2.254,49.2-2.987,16.792,9.39,52.363,10.767,75.819.775,12.633,6.02,30.392,6.73,41.414-.5,4.518-3.366,4.858-9.157,2.088-14.614l-2.944-4.333c.266.607,5.847,13.777-13.834,17.825-20,4.116-39.47-11.233-39.743-11.442.143.369,3.532,9.577-11.107,12.166-14.938,2.641-38.6,1.191-43.492-8.1,0,0-4.369-4.187-12.407,2.22s-53.155,4.548-47.678-10.287c0,0-8.266,3.415-3.58,15.522Z" transform="translate(-965.281 -2565.14)"/></g><g transform="translate(233.541 107.7)" opacity="0.3"><path d="M445.976,2648.726c.623,4.463,8.358,7.857,24.4,5.788,14.646-1.126,23.451-7.972,23-14.359l-.744-.534s-6.593,9.6-23.7,9.971-17.65-6.722-17.65-6.722a18.841,18.841,0,0,0-4.589,3.112l0,0a6.07,6.07,0,0,0-.714,2.74Z" transform="translate(-445.975 -2639.62)"/></g><g transform="translate(207.972 65.39)" opacity="0.3"><path d="M701.05,2188.35s17.693,41.058,49.076,40.686l-18.2,1.993C715.956,2219.685,706.067,2205.255,701.05,2188.35Z" transform="translate(-701.05 -2188.35)"/></g><g transform="translate(107.919 35.424)" opacity="0.3"><path d="M2018.647,1930.017c37.05,1.588,25.537-45.7,16.562-61.277l-.844,3.122c7.77,21.276.537,47.532-15.719,58.155Z" transform="translate(-2018.646 -1868.74)"/></g></g><g transform="translate(5.574 -18.503)"><path d="M3173.97,1415.381a1.21,1.21,0,0,1-.986-1.914l8.476-11.877-10.813,4.033a1.211,1.211,0,0,1-.846-2.269l14.52-5.416a1.211,1.211,0,0,1,1.408,1.838l-8.575,12.017,11.022-3.8a1.211,1.211,0,1,1,.787,2.29l-14.6,5.028a1.221,1.221,0,0,1-.394.066Z" transform="translate(-3169.013 -1358.453)"/><path d="M3371.081,1177.921c-.031,0-.062,0-.094,0l-11.234-1.18a.886.886,0,0,1-.343-1.652l9.292-5.254-8.417-.67a.886.886,0,0,1,.141-1.766l11.3.9a.886.886,0,0,1,.366,1.654l-9.4,5.316,8.481.891a.886.886,0,0,1-.091,1.766Z" transform="translate(-3341.151 -1149.591)"/><path d="M3259.64,984.789a.643.643,0,0,1-.389-1.156l6.172-4.693-6.125.344a.644.644,0,1,1-.072-1.285l8.222-.462a.644.644,0,0,1,.426,1.155l-6.245,4.749,6.193-.191a.643.643,0,1,1,.04,1.286l-8.2.253h-.02Z" transform="translate(-3250.218 -977.534)"/></g></g></svg>