<svg xmlns="http://www.w3.org/2000/svg" width="300" height="200.795" viewBox="0 0 300 200.795"><g transform="translate(1.881 183.82)"><ellipse cx="148.116" cy="8.488" rx="148.116" ry="8.488" fill="#c3c3bf"/></g><path d="M3483.458,2587.889s2.4,22.912-11.769,24.419c0,0,3.014-6.33,2.11-10.852s.452-13.594,9.658-13.567Z" transform="translate(-3185.5 -2427.147)" fill="#484847"/><g transform="translate(0 130.979)"><path d="M559.269,2328.316c-3.053,13.786-16.219,22.593-29.41,19.67s-21.406-16.463-18.348-30.25a26.3,26.3,0,0,1,5.622-11.381,25.169,25.169,0,0,1,10.208-7.268,22.387,22.387,0,0,1,3.02-.933h0a23.505,23.505,0,0,1,15.432,1.571,23.123,23.123,0,0,1,3.63,2.11,24.721,24.721,0,0,1,8.483,10.677,26.218,26.218,0,0,1,1.36,15.8Z" transform="translate(-508.991 -2295.627)" fill="#939290"/><path d="M517.275,2332.739a25.613,25.613,0,0,1-22-12.517,27.844,27.844,0,0,1-3.31-20.578,28.322,28.322,0,0,1,6.024-12.188,27.082,27.082,0,0,1,10.97-7.807,24.507,24.507,0,0,1,3.265-1.008l.05-.011a25.38,25.38,0,0,1,16.609,1.712,24.892,24.892,0,0,1,3.918,2.279,26.542,26.542,0,0,1,9.127,11.482,28,28,0,0,1,1.461,16.931h0a27.858,27.858,0,0,1-11.692,17.255,25.868,25.868,0,0,1-14.424,4.451Zm-4.256-50.431a20.691,20.691,0,0,0-2.714.843,23.325,23.325,0,0,0-9.452,6.73,24.567,24.567,0,0,0-5.222,10.573,24.108,24.108,0,0,0,2.856,17.821,21.842,21.842,0,0,0,31.126,6.894,24.122,24.122,0,0,0,10.115-14.947h0a24.27,24.27,0,0,0-1.259-14.674,22.789,22.789,0,0,0-7.836-9.868,21.214,21.214,0,0,0-3.338-1.941,21.63,21.63,0,0,0-14.2-1.448l-.074.016Zm28.539,28.32Z" transform="translate(-491.281 -2277.94)"/><g transform="translate(6.266)"><g transform="translate(1.876 1.881)"><path d="M584.046,2324.291c-3.315,1.135-6.813-.225-7.976-3.053a25.169,25.169,0,0,1,10.208-7.268,5.283,5.283,0,0,1,2.114,2.706C589.429,2319.706,587.483,2323.119,584.046,2324.291Z" transform="translate(-576.07 -2312.39)" fill="#fff"/><path d="M723.381,2302.6c-.647,3.939-4.793,6.536-9.26,5.8s-7.554-4.525-6.907-8.464a6.541,6.541,0,0,1,.558-1.768h0a23.5,23.5,0,0,1,15.432,1.571,6.385,6.385,0,0,1,.174,2.861Z" transform="translate(-694.543 -2297.517)" fill="#fff"/><path d="M890.32,2353.258a6.887,6.887,0,0,1-8.224.361c-3.274-2.044-4.464-6.045-2.659-8.933a5.6,5.6,0,0,1,2.4-2.106,24.722,24.722,0,0,1,8.483,10.677Z" transform="translate(-849.545 -2338.253)" fill="#fff"/></g><path d="M564.015,2308.911a7.775,7.775,0,0,1-7.34-4.614,1.876,1.876,0,0,1,.3-1.925,27.077,27.077,0,0,1,10.972-7.809,1.878,1.878,0,0,1,1.7.188,7.134,7.134,0,0,1,2.855,3.663,7.293,7.293,0,0,1-.641,6.04,8.874,8.874,0,0,1-4.874,3.957,9.192,9.192,0,0,1-2.977.5Zm-3.288-5.1a4.707,4.707,0,0,0,5.052,1.054h0a5.12,5.12,0,0,0,2.827-2.266,3.588,3.588,0,0,0,.351-2.967,3.314,3.314,0,0,0-.677-1.149,23.332,23.332,0,0,0-7.554,5.328Z" transform="translate(-556.534 -2292.854)"/><path d="M697.977,2292.687a11.227,11.227,0,0,1-1.828-.151c-5.474-.9-9.266-5.667-8.453-10.618a8.409,8.409,0,0,1,.717-2.274,1.878,1.878,0,0,1,1.32-1.03,25.383,25.383,0,0,1,16.607,1.713,1.875,1.875,0,0,1,1,1.171,8.214,8.214,0,0,1,.223,3.694,8.625,8.625,0,0,1-4.052,5.935,10.4,10.4,0,0,1-5.536,1.559Zm-6.481-10.614a4.588,4.588,0,0,0-.1.454c-.479,2.912,1.926,5.743,5.361,6.31a6.846,6.846,0,0,0,4.763-.886,4.925,4.925,0,0,0,2.342-3.367v-.006a4.493,4.493,0,0,0,.036-1.227,21.678,21.678,0,0,0-12.4-1.276Z" transform="translate(-675.002 -2277.927)"/><path d="M868.431,2339.022a9.5,9.5,0,0,1-5.024-1.465,9.311,9.311,0,0,1-4.038-5.205,7.634,7.634,0,0,1,.782-6.312,7.491,7.491,0,0,1,3.2-2.812,1.877,1.877,0,0,1,1.876.169,26.538,26.538,0,0,1,9.131,11.485,1.875,1.875,0,0,1-.472,2.114A8.076,8.076,0,0,1,868.431,2339.022Zm-4.385-11.823a3.609,3.609,0,0,0-.713.832,3.932,3.932,0,0,0-.367,3.251,5.562,5.562,0,0,0,2.429,3.094,5.352,5.352,0,0,0,4.86.546A22.765,22.765,0,0,0,864.045,2327.2Z" transform="translate(-829.973 -2318.719)"/></g><ellipse cx="10.252" cy="11.816" rx="10.252" ry="11.816" transform="translate(11.571 38.569) rotate(-80.64)" fill="#fff"/></g><path d="M3283.34,2077.69v11.045s22.006,0,29.855,37.946C3313.195,2126.68,3310.168,2085.385,3283.34,2077.69Z" transform="translate(-3015.236 -1965.938)" fill="#939290"/><path d="M3295.529,2110.906a1.876,1.876,0,0,1-1.835-1.5c-3.895-18.827-11.346-27.739-16.912-31.9-5.945-4.444-11.066-4.552-11.118-4.552a1.884,1.884,0,0,1-1.865-1.875V2060.04a1.876,1.876,0,0,1,2.393-1.8c11.57,3.319,20.642,13.189,26.234,28.542a90.952,90.952,0,0,1,4.975,22.115,1.876,1.876,0,0,1-1.873,2.012Zm-27.978-41.511a26.372,26.372,0,0,1,11.217,4.919,36.482,36.482,0,0,1,7.349,7.255c-3.91-8-9.787-15.5-18.564-18.92v6.746Z" transform="translate(-2997.572 -1948.288)"/><path d="M3454.031,2596.531a1.875,1.875,0,0,1-1.693-2.682c.762-1.608,2.6-6.486,1.965-9.677-.7-3.5-.154-8.558,2.645-11.962a10.964,10.964,0,0,1,8.813-3.85h.045a1.876,1.876,0,0,1,1.86,1.68c.106,1.011,2.412,24.794-13.436,26.479A1.932,1.932,0,0,1,3454.031,2596.531Zm10.012-24.282a6.7,6.7,0,0,0-4.2,2.343c-2.008,2.442-2.374,6.3-1.864,8.843a18.1,18.1,0,0,1-.874,8.4C3463.919,2588.334,3464.205,2576.758,3464.044,2572.249Z" transform="translate(-3167.841 -2409.492)"/><g transform="translate(16.97 65.477)"><path d="M755.737,1615.51s-26.578,94.481-54.915,85.136c-13.483-4.445-14.875-12.851-11.948-21.058,3.319-9.334,12.22-18.418,15.267-21.142,5.724-5.124,16.879-24.716,26.527-34.666a27.056,27.056,0,0,1,12.606-7.112,37.706,37.706,0,0,1,12.465-1.158Z" transform="translate(-685.719 -1613.519)" fill="#939290"/><g transform="translate(1.882 1.883)" opacity="0.6"><path d="M755.744,1615.5s-.641,2.285-1.837,6.11a39.01,39.01,0,0,0-10.628,1.258,27.069,27.069,0,0,0-12.606,7.112c-9.648,9.95-20.8,29.542-26.527,34.666-3.047,2.723-11.948,11.807-15.267,21.141a23.411,23.411,0,0,0-.95,3.422,17.4,17.4,0,0,1,.95-9.632c3.319-9.334,12.22-18.418,15.267-21.141,5.724-5.124,16.879-24.716,26.527-34.666a27.057,27.057,0,0,1,12.606-7.111,37.7,37.7,0,0,1,12.465-1.158Z" transform="translate(-687.608 -1615.393)" fill="#fff"/></g><g transform="translate(1.881 1.883)" opacity="0.2"><path d="M755.737,1615.5s-26.578,94.481-54.915,85.136c-13.483-4.445-14.875-12.851-11.948-21.058.219.032.444.047.663.058,3.855.182,7.587-1.451,10.806-3.585,7.868-5.207,13.363-13.305,17.808-21.627s8.072-17.119,13.295-24.977a50.076,50.076,0,0,1,11.828-12.788,37.7,37.7,0,0,1,12.465-1.158Z" transform="translate(-687.6 -1615.393)"/></g><path d="M687.1,1685.441a14.536,14.536,0,0,1-4.578-.745c-8.178-2.7-12.954-7.082-14.2-13.031-3-14.393,16.036-31.624,16.848-32.35,2.531-2.265,6.49-7.972,10.683-14.013,4.939-7.118,10.537-15.186,15.748-20.561,10.167-10.485,25.952-8.9,26.618-8.83a1.875,1.875,0,0,1,1.6,2.372c-.827,2.938-20.522,72.117-44.769,85.02A16.873,16.873,0,0,1,687.1,1685.441Zm48.409-85.89c-4.475,0-14.468.849-21.209,7.8-5,5.155-10.5,13.088-15.36,20.088-4.508,6.5-8.4,12.111-11.264,14.671-5.082,4.548-17.806,18.583-15.677,28.788.948,4.544,4.884,7.987,11.7,10.235a11.781,11.781,0,0,0,9.6-1.143c20.486-10.9,38.592-68.228,42.25-80.44Z" transform="translate(-668.008 -1595.786)"/></g><path d="M957.7,1682.511s-88.412,1.591-137.75-.3c-19.055-.731-34.911-.037-47.1-2.969-19.383-4.659-29.495-15.246-28.4-30.836a31.33,31.33,0,0,1,5.729-16.043c5.932-8.63,15.068-14.881,20.8-24.262,0,0,0-.01,0-.015a35.61,35.61,0,0,0,3.109-6.381c.35-.944.688-1.863,1.018-2.75,6.3-16.827,10.242-23.219,24.544-33.857,6.381-4.753,15.126-7.889,24.716-9.339a86.193,86.193,0,0,1,31.081,1.08c1.033.225,2.061.474,3.073.746l.062.015c.95.251,1.884.521,2.813.814l.021,0a64.706,64.706,0,0,1,7.5,2.839c21.5,9.725,28.806,16.894,28.806,16.894s.438-.334,1.3-.876c4.069-2.6,17.542-10.008,37.619-9.215,12.971.517,29.239,7.936,42.08,19.655h0c.01.015.026.021.036.031q1.049.955,2.061,1.957c8.708,8.52,15.554,19.075,18.23,30.763q1.026,4.477,1.576,8.531c7.3,53.157-42.926,53.517-42.926,53.517Z" transform="translate(-720.058 -1493.284)" fill="#939290"/><g transform="translate(55.046 61.543)" opacity="0.6"><path d="M1144.871,1556.824c-3.126.032-38.626,2.333-50.75,10.944-10.577,7.513-21.958,17.554-29.592,31.172,6.3-16.827,10.242-23.219,24.544-33.857,6.381-4.753,15.126-7.889,24.716-9.339a86.2,86.2,0,0,1,31.081,1.08Z" transform="translate(-1064.53 -1554.818)" fill="#fff"/></g><g transform="translate(179.966 74.715)" opacity="0.6"><path d="M2467.068,1752.989c-14.035-31.41-33.038-45.91-50.8-51.993a1.834,1.834,0,0,1-.021.3c-.35,2.259-4.863,3.438-10.081,2.63s-9.167-3.292-8.818-5.551a2.063,2.063,0,0,1,.538-1.07,78.195,78.195,0,0,0-32.266,4.425l-.156-.459c4.069-2.6,17.542-10.008,37.619-9.214,12.971.517,29.239,7.936,42.08,19.655h0c.011.015.026.021.037.032q1.048.955,2.061,1.957c8.708,8.52,15.554,19.075,18.23,30.763q1.026,4.477,1.576,8.531Z" transform="translate(-2365.46 -1691.995)" fill="#fff"/></g><g transform="translate(24.302 96.415)" opacity="0.2"><path d="M957.7,2010.791s-88.412,1.591-137.75-.3c-19.055-.731-34.911-.036-47.1-2.969-19.383-4.659-29.495-15.246-28.4-30.836a31.332,31.332,0,0,1,5.729-16.044c-9.368,24.325,17.156,42.429,70.244,36.038l9.892,6.657s33.137,5.426,39.513-23.562c0,0,55.62,20.421,67.725-14.343l6.428-.381s-2.39-16.367,9.945-33.173c0,0-1.127,20.417,18.94,19.915,18.648-.465,16.759-23.948,7.962-33.81,8.708,8.52,15.554,19.075,18.23,30.763,14.119,61.651-41.35,62.048-41.35,62.048Z" transform="translate(-744.359 -1917.98)"/></g><path d="M867.177,1667.316c-22.733,0-46.62-.22-64.967-.925-5.121-.2-9.979-.289-14.675-.379-12.713-.242-23.692-.452-32.793-2.64-10.068-2.419-17.744-6.41-22.816-11.864-5.236-5.632-7.6-12.672-7.023-20.927.9-12.979,8.51-20.711,15.867-28.19,5.419-5.508,11.023-11.2,13.892-19.03,7.242-19.747,11.082-26.218,26.2-37.467,6.423-4.781,15.26-8.13,25.556-9.686a87.623,87.623,0,0,1,34.877,1.856q.081.019.158.043c.909.24,1.85.511,2.8.808l.053.015a67.444,67.444,0,0,1,7.714,2.919c17.1,7.739,25.342,13.875,28.172,16.233,4.127-2.678,17.954-10.412,38.853-9.59,11.823.468,26.145,6.428,38.307,15.944,13.493,10.557,22.677,24.023,25.859,37.918,4.619,20.165,2.427,36.119-6.513,47.422-13.047,16.494-35.515,16.909-36.638,16.919-.808.014-35.256.618-72.883.618Zm-47.9-128.305a82.29,82.29,0,0,0-12.294.909c-9.689,1.464-17.946,4.572-23.876,8.986-14.645,10.9-18,16.872-24.92,35.749-3.15,8.588-9.042,14.577-14.741,20.368-7.2,7.314-13.993,14.222-14.8,25.819-1.271,18.211,13.967,25.757,26.973,28.882,8.7,2.092,19.495,2.3,31.988,2.537,4.715.09,9.59.182,14.747.381,48.722,1.87,136.763.32,137.646.3h.02c.307,0,21.818-.4,33.753-15.518,8.184-10.365,10.129-25.248,5.781-44.233-6.32-27.593-37.8-50.046-60.658-50.95-23.269-.923-37.576,9.606-37.718,9.713a1.878,1.878,0,0,1-2.442-.159c-.068-.067-7.435-7.1-28.264-16.528a63.718,63.718,0,0,0-7.248-2.744l-.056-.016c-.927-.29-1.845-.555-2.729-.786l-.072-.02h0a82.554,82.554,0,0,0-21.094-2.69Zm21.2,2.717Zm-.007,0Zm0,0Zm-.244-.075.087.033C840.279,1541.674,840.249,1541.663,840.22,1541.651Z" transform="translate(-702.392 -1475.595)"/><path d="M2805.411,2017.812c-.824.594-1.691,1.3-2.493,2s-1.594,1.444-2.341,2.211-1.455,1.563-2.141,2.37c-.67.823-1.311,1.662-1.91,2.525a30.206,30.206,0,0,0-4.9,11.365,31.73,31.73,0,0,0-.566,6.184,36.547,36.547,0,0,0,.619,6.256,56.93,56.93,0,0,0,3.808,12.263,1.878,1.878,0,0,1-3.376,1.635,47.173,47.173,0,0,1-4.849-13.05c-.107-.58-.242-1.154-.327-1.74l-.229-1.763c-.091-.586-.116-1.182-.153-1.776-.021-.6-.086-1.188-.067-1.786l.03-1.793c.014-.6.09-1.194.134-1.792.029-.3.047-.6.083-.895l.139-.89c.107-.592.175-1.189.331-1.772a29.964,29.964,0,0,1,6.188-12.819,29.639,29.639,0,0,1,2.4-2.61q.638-.611,1.3-1.2c.455-.373.9-.759,1.367-1.109a28.778,28.778,0,0,1,2.888-1.987,22.824,22.824,0,0,1,3.154-1.608,1,1,0,0,1,.965,1.738l-.056.04Z" transform="translate(-2566.092 -1910.137)"/><g transform="translate(18.698 134.077)"><path d="M795.167,2346.762l-4.957,12.752-2.682,6.9a46.009,46.009,0,0,1-4.164,3.866c-.073.063-.146.125-.219.182-25.175,20.417-59.747,3.574-59.747,3.574s-5,7.847-12.235,6.042c-4.738-1.184-4.477-5.734-3.731-8.734a17.16,17.16,0,0,1,.918-2.723,13.556,13.556,0,0,1-2.765-6.1c-.474-3.2.793-5.864,4.122-6.381,5.375-.83,5.677,3.443,5.677,3.443s3.616,2.614,21.5-4.419,15.277-25.926,35.021-25.723c12.152.12,18.152,6.657,20.974,11.661A21.559,21.559,0,0,1,795.167,2346.762Z" transform="translate(-703.618 -2327.585)" fill="#939290"/><g transform="translate(1.871 1.847)" opacity="0.6"><path d="M755.841,2346.149l-2.713,4.082s7.57,3.031,9.616,6.616a63.8,63.8,0,0,0-10.109-3.415,6.684,6.684,0,0,0-5.63,1.385l-3.922,3.229,5.218,5.818-7.51-3.539a5.523,5.523,0,0,0-4.241-.194l-4.669,1.7s2.856,5.587,2.444,8.4l-6.361-5.646a4.512,4.512,0,0,0-3.888-1.048c-2.085.419-5.354.754-8.072-.4-4.007-1.7-4.852-5.6-10.419-.621-.474-3.2.793-5.864,4.122-6.381,5.375-.83,5.677,3.443,5.677,3.443s3.616,2.614,21.5-4.419,15.277-25.926,35.021-25.723c12.152.12,18.152,6.657,20.974,11.661-4.106-3.486-15.565-11.656-27.586-6.271a41.631,41.631,0,0,0-5.531,5.964,18.647,18.647,0,0,1,16.264,2.264s-10.679.244-17.109,1.151a4.443,4.443,0,0,0-3.079,1.946Z" transform="translate(-705.489 -2329.433)" fill="#fff"/></g><path d="M1011.174,2410.269c-.274.2-.459.318-.684.462s-.434.265-.653.389c-.436.25-.878.48-1.326.7a22.876,22.876,0,0,1-2.775,1.09,19.887,19.887,0,0,1-5.916.921,19.2,19.2,0,0,1-3.006-.283,17.475,17.475,0,0,1-2.9-.8,18.135,18.135,0,0,1-5.083-2.982,1.242,1.242,0,0,1,1.452-2.009l.017.01a18.01,18.01,0,0,0,4.578,2.086,17.46,17.46,0,0,0,2.419.473,15.884,15.884,0,0,0,2.452.06,17.416,17.416,0,0,0,4.829-.981,19.049,19.049,0,0,0,2.3-.966c.374-.18.741-.374,1.1-.578.179-.1.354-.207.523-.312s.359-.227.457-.294l.061-.042a1.875,1.875,0,0,1,2.161,3.064Z" transform="translate(-959.346 -2397.592)"/><path d="M1694.92,2446.657a1.872,1.872,0,0,1,.2.186c.067.071.158.146.235.218a6.228,6.228,0,0,0,.492.431c.162.143.339.277.515.407a4.853,4.853,0,0,0,.536.375l.54.361.575.306a12.43,12.43,0,0,0,1.163.557,15.863,15.863,0,0,0,5.078,1.129l.669.041a4.368,4.368,0,0,0,.675.02c.455-.017.91-.032,1.368-.036a12.151,12.151,0,0,0,1.384-.112c.463-.055.931-.08,1.4-.126.93-.186,1.878-.3,2.831-.47.947-.207,1.9-.412,2.892-.555l.1-.014a1.17,1.17,0,0,1,.743,2.176c-.91.515-1.858.967-2.812,1.419-.98.388-1.994.723-3.012,1.045-.524.118-1.051.243-1.582.346a11.474,11.474,0,0,1-1.608.263c-.547.051-1.1.09-1.646.128a5.12,5.12,0,0,1-.833,0l-.838-.039a14.449,14.449,0,0,1-6.52-1.875,11.656,11.656,0,0,1-1.431-.98l-.663-.557-.611-.615a6.5,6.5,0,0,1-.561-.66,6.7,6.7,0,0,1-.51-.7c-.156-.245-.311-.485-.446-.75-.066-.134-.134-.254-.2-.4s-.118-.264-.192-.458a1.114,1.114,0,0,1,1.63-1.342l.435.273Z" transform="translate(-1596.109 -2433.152)"/><path d="M776.763,2329.537c-.139-.424-.324-.907-.518-1.352s-.394-.906-.617-1.346a24.982,24.982,0,0,0-1.457-2.564,23.47,23.47,0,0,0-3.708-4.461,20.7,20.7,0,0,0-4.66-3.285,21.475,21.475,0,0,0-5.352-1.947,26.463,26.463,0,0,0-5.739-.661,22.981,22.981,0,0,0-5.655.567,15.515,15.515,0,0,0-5,2.168,20.593,20.593,0,0,0-4.1,3.813c-2.483,2.984-4.605,6.575-7.378,9.884a34.779,34.779,0,0,1-4.613,4.65,28.662,28.662,0,0,1-5.567,3.6c-.49.259-.995.478-1.5.691l-.76.324c-.251.106-.491.189-.736.284-.98.366-1.95.752-2.938,1.1s-1.98.688-2.984,1.005c-1.012.3-2,.643-3.032.907l-1.533.418-1.558.367c-.516.13-1.049.224-1.578.327l-.794.152-.81.119-.81.117-.831.078c-.547.062-1.125.065-1.694.084a15.574,15.574,0,0,1-1.8-.1c-.149-.01-.323-.052-.483-.078a4.74,4.74,0,0,1-.5-.109,5.176,5.176,0,0,1-.552-.168c-.106-.04-.191-.07-.311-.124l-.194-.1-.106-.057q-.1-.06-.2-.13l-.773-1.386v0c.006.053-.01-.057-.021-.1s-.03-.128-.051-.192a2.575,2.575,0,0,0-.149-.374,1.825,1.825,0,0,0-.434-.576,2.4,2.4,0,0,0-1.49-.552l-.522,0a5.4,5.4,0,0,0-.556.047,4.156,4.156,0,0,0-1.008.2,2.627,2.627,0,0,0-1.344.953,3.5,3.5,0,0,0-.558,1.737,7.193,7.193,0,0,0,.233,2.23,12.578,12.578,0,0,0,2.226,4.4,1.88,1.88,0,0,1,.24,1.874l-.022.052a12.558,12.558,0,0,0-1.119,5.85,3.04,3.04,0,0,0,1.781,2.689,5.676,5.676,0,0,0,1.244.387,7.522,7.522,0,0,0,5.436-1.066,13.167,13.167,0,0,0,2.428-1.883c.376-.365.737-.752,1.078-1.154.171-.2.335-.406.494-.612s.325-.439.421-.586l0,0a1.9,1.9,0,0,1,2.4-.674c.568.27,1.234.557,1.868.818s1.293.519,1.947.766c1.307.5,2.64.938,3.974,1.367a79.162,79.162,0,0,0,8.149,2.072,70.446,70.446,0,0,0,8.306,1.143,60.478,60.478,0,0,0,8.342.03,46.9,46.9,0,0,0,8.2-1.243c1.352-.288,2.657-.732,3.976-1.13,1.286-.49,2.591-.933,3.828-1.535,1.272-.526,2.458-1.226,3.676-1.863.588-.355,1.165-.73,1.749-1.092.29-.184.585-.36.87-.552l.832-.61c.551-.41,1.117-.8,1.659-1.226l1.576-1.336c.26-.226.532-.437.783-.674l.74-.724,1.481-1.445.094-.091a1.874,1.874,0,0,1,2.62,2.682l-1.6,1.565-.8.781c-.271.257-.566.488-.848.733l-1.712,1.449c-.589.46-1.2.89-1.8,1.336l-.906.662c-.31.208-.632.4-.948.6-.636.4-1.265.8-1.906,1.189-1.325.7-2.621,1.455-4.005,2.032-1.35.654-2.766,1.14-4.166,1.669-1.429.436-2.849.912-4.308,1.226a50.771,50.771,0,0,1-8.818,1.338,64.242,64.242,0,0,1-8.875-.032,74.071,74.071,0,0,1-8.755-1.2,82.817,82.817,0,0,1-8.544-2.172c-1.4-.45-2.8-.912-4.172-1.436-.689-.26-1.377-.528-2.061-.811s-1.347-.565-2.077-.912l2.4-.679c-.226.345-.4.575-.6.848s-.4.512-.612.76q-.628.742-1.326,1.42a16.942,16.942,0,0,1-3.13,2.421,12.41,12.41,0,0,1-3.843,1.513,10.612,10.612,0,0,1-4.24,0,9.382,9.382,0,0,1-2.108-.671,7.141,7.141,0,0,1-1.971-1.385,6.358,6.358,0,0,1-1.36-2.036,8.15,8.15,0,0,1-.576-2.213,12.782,12.782,0,0,1,.242-4.1,19.408,19.408,0,0,1,.495-1.889c.1-.308.2-.614.314-.919s.222-.587.383-.948l.218,1.925a16.279,16.279,0,0,1-2.887-5.755,10.866,10.866,0,0,1-.34-3.437,7.23,7.23,0,0,1,1.236-3.623,6.4,6.4,0,0,1,3.211-2.344,7.843,7.843,0,0,1,1.786-.373c.29-.023.564-.073.868-.069s.6,0,.907.013q.474.057.947.13c.324.084.647.167.968.279a5.735,5.735,0,0,1,1.815,1.1,5.562,5.562,0,0,1,1.278,1.691,6.3,6.3,0,0,1,.378.953c.051.163.091.329.13.5a4.827,4.827,0,0,1,.092.6v.01l-.772-1.387a1.11,1.11,0,0,0-.119-.08c-.024-.014-.012-.009-.019-.013a.053.053,0,0,0-.02-.01.261.261,0,0,1,.049.013c.023.014.126.03.189.048a2.149,2.149,0,0,0,.253.045c.094.01.171.034.28.038a12.04,12.04,0,0,0,1.285.037c.46-.031.912-.04,1.387-.108l.706-.077.716-.115a46.08,46.08,0,0,0,5.764-1.358c.962-.259,1.916-.6,2.874-.9.955-.317,1.9-.673,2.857-1.006l2.845-1.072c.234-.09.481-.178.7-.272l.66-.283c.442-.184.882-.373,1.3-.6a24.506,24.506,0,0,0,4.786-3.09,30.584,30.584,0,0,0,4.07-4.111c2.521-3.01,4.645-6.534,7.462-9.865a24.568,24.568,0,0,1,4.978-4.5,19.036,19.036,0,0,1,6.309-2.624,26.77,26.77,0,0,1,6.612-.556,29.965,29.965,0,0,1,6.5.872,24.2,24.2,0,0,1,6.142,2.481,21.97,21.97,0,0,1,5.165,4.132,22.952,22.952,0,0,1,3.709,5.372,24.287,24.287,0,0,1,1.245,2.987,18.415,18.415,0,0,1,.79,3.164.811.811,0,0,1-1.572.375l-.015-.049Z" transform="translate(-686.007 -2310.195)"/><path d="M1481.52,2666.358a8.87,8.87,0,0,1,1,0c.32.011.636.052.95.093a12.791,12.791,0,0,1,5.365,2.06,10.346,10.346,0,0,1,2.842,2.778c.183.282.364.565.533.852.145.3.274.615.407.92.066.152.129.306.18.464l.126.483c.073.324.144.646.187.97a1.189,1.189,0,0,1-2.053.965l-.122-.135c-.741-.813-1.3-1.607-2.035-2.266a17.291,17.291,0,0,0-2.234-1.881,22.672,22.672,0,0,0-2.6-1.568c-.463-.235-.932-.475-1.415-.692s-1-.44-1.426-.649l-.176-.086a1.217,1.217,0,0,1,.475-2.307Z" transform="translate(-1404.089 -2632.145)"/><path d="M1173.4,2429.109c1.16-.248,2.2-.4,3.305-.539s2.178-.229,3.271-.288a42.22,42.22,0,0,1,6.567.138,29.313,29.313,0,0,1,6.467,1.379,23.355,23.355,0,0,1,3.061,1.33,19.454,19.454,0,0,1,2.79,1.85.9.9,0,0,1-1.063,1.453l-.024-.016a17.528,17.528,0,0,0-2.6-1.45,21.311,21.311,0,0,0-2.831-.978,26.864,26.864,0,0,0-5.982-.8,39.369,39.369,0,0,0-6.084.342c-1.01.135-2.016.3-3.012.5s-2.015.439-2.9.7l-.031.009a1.877,1.877,0,1,1-1.069-3.6c.046-.013.1-.026.142-.036Z" transform="translate(-1125.255 -2416.882)"/><path d="M1117.579,2513.773c.5.072.878.151,1.3.246s.806.2,1.2.309.785.243,1.175.363l1.152.418a24.7,24.7,0,0,1,4.352,2.217,24.115,24.115,0,0,1,1.988,1.421c.315.258.615.538.92.806l.453.407.422.443a20.21,20.21,0,0,1,2.936,3.858.989.989,0,0,1-1.619,1.131l-.052-.068a17.924,17.924,0,0,0-2.925-3.154l-.4-.352-.433-.317c-.292-.207-.573-.426-.869-.624-.612-.372-1.208-.76-1.854-1.07a21.7,21.7,0,0,0-3.977-1.564l-1.034-.265c-.349-.07-.693-.156-1.042-.214s-.7-.12-1.04-.162-.714-.081-.97-.091h-.017a1.879,1.879,0,0,1,.149-3.755C1117.451,2513.759,1117.516,2513.765,1117.579,2513.773Z" transform="translate(-1074.199 -2494.208)"/><path d="M1010.651,2580.032c.128.046.2.081.29.118s.168.074.247.111c.16.074.318.149.468.228.308.152.6.321.891.484.576.34,1.133.7,1.668,1.089a19.862,19.862,0,0,1,2.951,2.6,18.965,18.965,0,0,1,2.373,3.083,20.425,20.425,0,0,1,1.713,3.438.864.864,0,0,1-1.546.763l-.028-.047a18.469,18.469,0,0,0-1.953-2.849,16.423,16.423,0,0,0-2.429-2.384,16.92,16.92,0,0,0-2.81-1.852c-.493-.261-1-.495-1.5-.706-.255-.1-.509-.2-.762-.284-.127-.046-.251-.085-.374-.121-.062-.02-.124-.039-.179-.052a1.294,1.294,0,0,0-.14-.033,1.932,1.932,0,1,1,.658-3.75l.465.17Z" transform="translate(-976.719 -2553.866)"/><path d="M913.587,2620.171c.135.074.195.117.279.17s.149.1.222.151c.145.1.278.2.409.3.269.2.508.417.752.631a14.981,14.981,0,0,1,1.328,1.37,17.366,17.366,0,0,1,2.1,3.072,18.258,18.258,0,0,1,.771,1.66c.11.282.228.562.331.845l.273.861c.2.566.3,1.161.445,1.735.119.582.194,1.171.291,1.75a.8.8,0,0,1-1.54.387l-.025-.074c-.176-.52-.328-1.042-.519-1.548-.219-.5-.383-1.01-.642-1.482l-.358-.715c-.13-.232-.271-.457-.405-.686-.255-.463-.584-.877-.88-1.306a14.393,14.393,0,0,0-2.118-2.235,11.429,11.429,0,0,0-1.2-.9c-.206-.128-.413-.262-.619-.369-.1-.057-.206-.112-.3-.156-.049-.023-.1-.051-.143-.066s-.1-.045-.093-.033a1.876,1.876,0,1,1,1.649-3.369Z" transform="translate(-889.295 -2590.232)"/><path d="M723.569,2728.4a1.863,1.863,0,0,1-1.876-1.861v-.093c.013-.745-.548-1.51-1.67-2.277a30.492,30.492,0,0,1-3.689-2.94,1.876,1.876,0,0,1,2.609-2.7h0a27.156,27.156,0,0,0,3.2,2.538c1.533,1.047,3.35,2.84,3.305,5.438a1.889,1.889,0,0,1-1.875,1.891Z" transform="translate(-712.907 -2678.848)"/></g><g transform="translate(93.598 44.352)"><path d="M1530.027,1406.391l-29.359,12.663-6.694,2.89c-9.6,0-13.456-6.016-14.849-9.319a12,12,0,0,1-.7-2.108l14.745-3.689.261-.062a14.283,14.283,0,0,1-7.06-8.275,16.913,16.913,0,0,1,1.2-11.7,16.377,16.377,0,0,1,1.2-2.2s7.9,11.98,16.242,15.288c3.616,1.435,9.512,1.915,14.229,3.057a78.159,78.159,0,0,1,10.79,3.454Z" transform="translate(-1477.229 -1383.744)" fill="#939290"/><path d="M1482.764,1415.86a21.186,21.186,0,0,1-5.624-.914,16.248,16.248,0,0,1-2.676-1.095,14.937,14.937,0,0,1-2.446-1.552,15.912,15.912,0,0,1-3.816-4.245,16.993,16.993,0,0,1-1.29-2.512c-.182-.433-.342-.876-.487-1.324a12.7,12.7,0,0,1-.374-1.422v0a1.143,1.143,0,0,1,.783-1.356l.087-.026,14.836-4.424h0l-.334,3.521c-.2-.1-.316-.17-.458-.255s-.268-.162-.4-.245c-.26-.164-.505-.337-.75-.512a17.061,17.061,0,0,1-3.779-3.784,13.771,13.771,0,0,1-1.718-3.15,6.715,6.715,0,0,1-.3-.847c-.084-.287-.181-.572-.252-.86-.108-.58-.26-1.151-.32-1.735a17.118,17.118,0,0,1,.549-6.854,19.833,19.833,0,0,1,1.177-3.167,19.116,19.116,0,0,1,1.683-2.946l0,0a.84.84,0,0,1,1.373-.023l.027.037a62,62,0,0,0,7.813,8.972,33.076,33.076,0,0,0,4.578,3.646,12.213,12.213,0,0,0,1.224.748l.623.343a4.384,4.384,0,0,0,.632.312c.43.179.851.38,1.283.543s.88.287,1.339.411a56.964,56.964,0,0,0,5.8,1.085c1.991.3,4.011.582,6.059.992s4.031.93,6.017,1.507,3.918,1.207,5.914,1.977a1.877,1.877,0,0,1-1.351,3.5l-.068-.028-.043-.019c-1.744-.76-3.637-1.466-5.5-2.1s-3.782-1.205-5.675-1.681-3.868-.83-5.858-1.216a59.293,59.293,0,0,1-6.054-1.408c-.511-.161-1.023-.337-1.536-.544s-.987-.467-1.48-.7a5.611,5.611,0,0,1-.71-.389l-.687-.417a14.134,14.134,0,0,1-1.323-.888,35.472,35.472,0,0,1-4.725-4.1,63.88,63.88,0,0,1-7.685-9.622l1.4.015h0a17.64,17.64,0,0,0-1.28,2.743,17.854,17.854,0,0,0-.828,2.927,14.656,14.656,0,0,0-.01,5.889c.085.477.256.932.375,1.4.077.226.173.442.256.662a4.647,4.647,0,0,0,.29.644,10.687,10.687,0,0,0,1.548,2.358,13.129,13.129,0,0,0,2.065,1.952,12.992,12.992,0,0,0,1.173.8c.2.12.4.241.607.347.1.054.2.108.3.154s.215.1.254.115a1.82,1.82,0,0,1-.16,3.478l-.174.043h0L1467.5,1403.7l.871-1.382h0a11.1,11.1,0,0,0,.369,1.081c.148.371.308.74.489,1.1a14.4,14.4,0,0,0,1.234,2.055,13.006,13.006,0,0,0,3.356,3.272,11.75,11.75,0,0,0,2.04,1.109,12.964,12.964,0,0,0,2.209.734,17.631,17.631,0,0,0,4.7.44,1.877,1.877,0,0,1,.132,3.752h-.133Z" transform="translate(-1466.021 -1375.782)"/></g><g transform="translate(215.606 135.848)"><path d="M2805.206,2372.864a26.639,26.639,0,0,1-.631,6.141c-3.053,13.785-16.221,22.593-29.412,19.671-12.757-2.828-20.871-15.6-18.612-28.911.073-.443.161-.887.261-1.335a26.319,26.319,0,0,1,5.625-11.38,25.108,25.108,0,0,1,10.205-7.268,22.427,22.427,0,0,1,3.021-.934h0a23.354,23.354,0,0,1,10.55-.088,22.819,22.819,0,0,1,4.884,1.659,23.086,23.086,0,0,1,3.626,2.108,24.7,24.7,0,0,1,8.484,10.681,25.875,25.875,0,0,1,1.993,9.658Z" transform="translate(-2754.297 -2346.319)" fill="#939290"/><path d="M2762.611,2383.431a25.61,25.61,0,0,1-22-12.517,27.846,27.846,0,0,1-3.311-20.578,28.324,28.324,0,0,1,6.025-12.189,27.064,27.064,0,0,1,10.969-7.806,24.4,24.4,0,0,1,3.264-1.007l.05-.01a25.4,25.4,0,0,1,20.526,3.991,26.529,26.529,0,0,1,9.127,11.483,28.319,28.319,0,0,1-10.231,34.186,25.868,25.868,0,0,1-14.424,4.451ZM2758.356,2333a20.789,20.789,0,0,0-2.714.843,23.326,23.326,0,0,0-9.451,6.73,24.561,24.561,0,0,0-5.223,10.574,24.118,24.118,0,0,0,2.856,17.821,21.843,21.843,0,0,0,31.126,6.893,24.123,24.123,0,0,0,10.114-14.947h0a24.271,24.271,0,0,0-1.259-14.674,22.789,22.789,0,0,0-7.835-9.869,21.185,21.185,0,0,0-3.337-1.94,21.625,21.625,0,0,0-14.2-1.448Z" transform="translate(-2736.618 -2328.634)"/><g transform="translate(6.264)"><g transform="translate(1.877 1.879)"><path d="M2829.375,2374.981c-3.315,1.135-6.813-.225-7.976-3.053a25.17,25.17,0,0,1,10.208-7.268,5.282,5.282,0,0,1,2.115,2.706C2834.759,2370.4,2832.813,2373.809,2829.375,2374.981Z" transform="translate(-2821.4 -2363.079)" fill="#fff"/><path d="M2968.7,2353.275c-.647,3.939-4.792,6.536-9.261,5.8s-7.554-4.525-6.907-8.464a6.541,6.541,0,0,1,.558-1.768h0a23.5,23.5,0,0,1,15.432,1.571,6.383,6.383,0,0,1,.174,2.861Z" transform="translate(-2939.864 -2348.197)" fill="#fff"/><g transform="translate(28.787 4.027)"><path d="M3135.65,2403.938a6.887,6.887,0,0,1-8.224.361c-3.273-2.044-4.464-6.045-2.659-8.933a5.6,5.6,0,0,1,2.4-2.106,24.723,24.723,0,0,1,8.483,10.677Z" transform="translate(-3123.662 -2392.959)" fill="#fff"/><path d="M3128.988,2402.914a7.9,7.9,0,0,1-4.171-1.222,7.7,7.7,0,0,1-3.345-4.3,6.046,6.046,0,0,1,.6-5,5.883,5.883,0,0,1,2.512-2.2l.137-.064.123.087a24.924,24.924,0,0,1,8.573,10.79l.071.17-.137.124a6.457,6.457,0,0,1-4.367,1.611Zm-4.316-12.18a5.361,5.361,0,0,0-2.154,1.942,5.526,5.526,0,0,0-.545,4.57,7.176,7.176,0,0,0,3.122,4,6.651,6.651,0,0,0,7.773-.212,24.4,24.4,0,0,0-8.195-10.3Z" transform="translate(-3121.191 -2390.13)"/></g></g><path d="M2809.335,2359.6a7.776,7.776,0,0,1-7.34-4.614,1.876,1.876,0,0,1,.3-1.925,27.082,27.082,0,0,1,10.972-7.809,1.878,1.878,0,0,1,1.7.188,7.142,7.142,0,0,1,2.855,3.663,7.294,7.294,0,0,1-.642,6.04,8.872,8.872,0,0,1-4.872,3.956h0a9.206,9.206,0,0,1-2.979.5Zm-3.287-5.1a4.708,4.708,0,0,0,5.051,1.055h0a5.12,5.12,0,0,0,2.827-2.265,3.592,3.592,0,0,0,.351-2.967,3.312,3.312,0,0,0-.677-1.15,23.343,23.343,0,0,0-7.554,5.327Z" transform="translate(-2801.854 -2343.546)"/><path d="M2943.316,2343.391a11.224,11.224,0,0,1-1.827-.151c-5.475-.9-9.266-5.667-8.453-10.618a8.42,8.42,0,0,1,.717-2.273,1.874,1.874,0,0,1,1.32-1.028,25.379,25.379,0,0,1,16.607,1.712,1.877,1.877,0,0,1,1,1.17,8.211,8.211,0,0,1,.223,3.693,8.626,8.626,0,0,1-4.052,5.936A10.407,10.407,0,0,1,2943.316,2343.391Zm-6.481-10.615a4.63,4.63,0,0,0-.1.453c-.479,2.912,1.926,5.743,5.361,6.31a6.849,6.849,0,0,0,4.762-.886,4.932,4.932,0,0,0,2.343-3.369v-.006a4.507,4.507,0,0,0,.036-1.227,21.663,21.663,0,0,0-12.406-1.276Z" transform="translate(-2920.34 -2328.632)"/><path d="M3113.765,2389.712a9.5,9.5,0,0,1-5.024-1.465,9.312,9.312,0,0,1-4.038-5.206,7.636,7.636,0,0,1,.782-6.312,7.491,7.491,0,0,1,3.2-2.811,1.878,1.878,0,0,1,1.876.169,26.55,26.55,0,0,1,9.131,11.485,1.876,1.876,0,0,1-.472,2.114,8.073,8.073,0,0,1-5.453,2.026Zm-4.385-11.823a3.686,3.686,0,0,0-.714.831,3.938,3.938,0,0,0-.367,3.251,5.559,5.559,0,0,0,2.43,3.094,5.352,5.352,0,0,0,4.859.546,22.751,22.751,0,0,0-6.209-7.723Z" transform="translate(-3075.307 -2369.411)"/></g><ellipse cx="10.252" cy="11.816" rx="10.252" ry="11.816" transform="translate(11.573 38.567) rotate(-80.64)" fill="#fff"/></g><path d="M2018.4,1660.011c.276,24.445-8.953,31.964-31.28,19.29-10.915-6.2-14.635-12.4-14.922-18.612-.266-5.718,2.38-11.447,5-17.181,2.76-6.042,5.505-12.094,4.8-18.168-2.024-17.375-17.563-32.031-18.773-33.152-.052-.047-.079-.068-.079-.068l.021,0c8.014,1.664,29.938,13.3,36.3,19.733a60.375,60.375,0,0,1,16.013,26.323,68.96,68.96,0,0,1,2.588,14.51c.188,2.588.3,5.025.328,7.32Z" transform="translate(-1821.816 -1526.995)" fill="#939290"/><g transform="translate(141.335 65.126)" opacity="0.6"><path d="M1977.081,1604.035c4.9,7.541,14.237,25.86.125,39.483,2.76-6.042,5.505-12.094,4.8-18.168-2.024-17.375-17.563-32.031-18.773-33.152-.052-.047-.079-.068-.079-.068l.021,0c8.014,1.664,29.938,13.305,36.3,19.733a60.376,60.376,0,0,1,16.013,26.323c-5.836-13.458-22.249-29.074-36.788-35.981A1.267,1.267,0,0,0,1977.081,1604.035Z" transform="translate(-1963.15 -1592.13)" fill="#fff"/></g><g transform="translate(150.387 98.708)" opacity="0.2"><path d="M2103.622,1976.162c.276,24.445-8.953,31.964-31.28,19.289-10.915-6.2-14.635-12.4-14.922-18.611a13.778,13.778,0,0,0,8.766,3.464c6.308.088,12.193-4.049,15.3-9.532s3.736-12.1,2.943-18.361a54.445,54.445,0,0,0-1.4-7.026,2.8,2.8,0,0,1,5.18-2.038,35.95,35.95,0,0,1,2.6,6.158c1.993,6.214,2.692,12.773,4.466,19.049.84,2.984,2.176,6.194,4.993,7.493a4.635,4.635,0,0,0,3.349.115Z" transform="translate(-2057.42 -1941.853)"/></g><path d="M1987.212,1669.607c-4.981,0-11.125-2.1-18.563-6.324h0c-22.37-12.7-16.207-26.172-10.77-38.056,2.757-6.026,5.361-11.718,4.708-17.315-1.965-16.853-17.523-31.381-18.185-31.991-.086-.078-.13-.123-.13-.123a1.88,1.88,0,0,1,1.781-3.146c.053.013.124.034.176.051,7.1,2.45,24.913,9.312,36.943,20.111,7.875,7.069,17.6,20.109,19.221,42.091,1.313,17.836-1.265,28.539-7.88,32.723a13.353,13.353,0,0,1-7.3,1.978Zm-16.711-9.586c10.148,5.762,17.553,7.257,22.009,4.437,5.262-3.327,7.328-13.177,6.143-29.277-1.527-20.736-10.623-32.967-17.985-39.575-8.41-7.549-19.877-13.126-28.134-16.512,5.259,6.229,12.409,16.632,13.779,28.383.775,6.638-2.172,13.08-5.022,19.311-5.457,11.927-10.17,22.228,9.211,33.234Z" transform="translate(-1804.264 -1509.346)"/><g transform="translate(147.251 125.767)"><g transform="translate(2.758)"><path d="M2103.557,2296.69a40.961,40.961,0,0,1-4.189-.433c-10.185-1.617-19.149-7.148-23.735-14.844a22.439,22.439,0,0,1-3.24-10.926c-.146-5.04,1.419-10.508,5.212-16.107a38.366,38.366,0,0,1,3.126-4.012c12.611-14.124,32.746-15.574,39.789-15.621h0c1.6-.015,2.526.047,2.526.047l13.869,13.263q.751,2.949,1.267,5.687c6.59,34.708-14.2,43.969-34.629,42.946Z" transform="translate(-2070.568 -2233.679)" fill="#939290"/><g transform="translate(1.815 1.068)" opacity="0.6"><path d="M2075.632,2281.436a22.436,22.436,0,0,1-3.24-10.926c-.146-5.04,1.419-10.508,5.212-16.107a38.421,38.421,0,0,1,3.126-4.012c12.611-14.124,32.746-15.574,39.789-15.621-.6.141-47.96,11.2-44.887,46.667Z" transform="translate(-2072.383 -2234.77)" fill="#fff"/></g><path d="M2105.91,2225.6c-1.866.061-3.794.2-5.68.411s-3.778.467-5.647.79a72.418,72.418,0,0,0-10.98,2.77,43.1,43.1,0,0,0-18.636,11.891c-.324.331-.593.709-.892,1.06s-.593.709-.868,1.08l-.806,1.126-.4.563c-.128.192-.246.39-.369.585l-.733,1.173c-.248.389-.441.8-.664,1.205a27.184,27.184,0,0,0-1.188,2.468,22.762,22.762,0,0,0-1.857,10.5,21.278,21.278,0,0,0,1.073,5.195,22.67,22.67,0,0,0,2.386,4.771,23.819,23.819,0,0,0,3.435,4.153,29.072,29.072,0,0,0,4.218,3.437,34.381,34.381,0,0,0,9.94,4.588l.662.194.671.158c.448.1.893.219,1.344.311.906.16,1.807.348,2.723.445.91.139,1.83.188,2.747.261.461.032.933.034,1.4.054s.936.03,1.4.023a46.588,46.588,0,0,0,11.045-1.208,29,29,0,0,0,9.924-4.355,21.6,21.6,0,0,0,3.989-3.573,24.269,24.269,0,0,0,1.659-2.105c.249-.372.476-.759.717-1.137.116-.192.245-.376.352-.573l.31-.6a30.03,30.03,0,0,0,3.116-10.428,56.018,56.018,0,0,0,.187-11.221c-.27-3.781-.837-7.562-1.461-11.364l0-.01a.835.835,0,0,1,1.616-.4,67.912,67.912,0,0,1,2.785,11.45,48.066,48.066,0,0,1,.366,11.948l-.168,1.507-.26,1.5c-.142,1.005-.436,1.991-.677,2.981a30.025,30.025,0,0,1-2.264,5.737l-.354.691c-.122.229-.267.444-.4.667-.274.441-.538.889-.824,1.322a28.286,28.286,0,0,1-1.913,2.467,25.287,25.287,0,0,1-4.607,4.187,32.752,32.752,0,0,1-11.171,5.014,48.176,48.176,0,0,1-11.976,1.361c-.5.007-1,0-1.5-.025s-1-.025-1.5-.058c-1.012-.079-2.026-.135-3.031-.287-1.01-.108-2.006-.312-3-.492-.5-.1-.99-.228-1.484-.342l-.741-.177-.731-.213a38.413,38.413,0,0,1-5.719-2.107,35.967,35.967,0,0,1-5.331-3,30.848,30.848,0,0,1-4.746-3.915,27.657,27.657,0,0,1-3.9-4.815,26.347,26.347,0,0,1-2.738-5.616,24.954,24.954,0,0,1-1.213-6.154,26.385,26.385,0,0,1,2.242-12.139c.426-.931.84-1.87,1.354-2.749.251-.442.475-.9.75-1.329l.818-1.282c.138-.212.27-.429.413-.639l.448-.613.9-1.224c.305-.4.642-.783.961-1.174s.631-.791.988-1.15c.7-.731,1.367-1.491,2.12-2.166.37-.345.731-.7,1.107-1.033l1.158-.974.581-.484.6-.454,1.209-.905,1.252-.841.626-.42.644-.389,1.291-.775,1.322-.714c.438-.245.886-.467,1.339-.681s.9-.442,1.353-.647a59.508,59.508,0,0,1,5.572-2.168c1.9-.6,3.814-1.124,5.752-1.544,1.943-.394,3.893-.73,5.858-.939,1.962-.225,3.933-.342,5.9-.372a44.88,44.88,0,0,1,5.927.285.831.831,0,0,1-.077,1.655h-.033Z" transform="translate(-2053.483 -2223.652)"/></g><g transform="translate(0 10.334)"><path d="M2092.691,2381.629a25.664,25.664,0,0,1-18.716,19.555,23.543,23.543,0,0,1-10.691.115c-12.663-2.807-20.745-15.408-18.663-28.608.083-.548.188-1.1.308-1.644a26.265,26.265,0,0,1,5.63-11.38,25.432,25.432,0,0,1,4.779-4.372,24.679,24.679,0,0,1,5.426-2.9,22.4,22.4,0,0,1,3.021-.934h0a23.494,23.494,0,0,1,15.428,1.571,22.722,22.722,0,0,1,3.632,2.113,24.721,24.721,0,0,1,8.484,10.675,25.52,25.52,0,0,1,1.831,7.137,26.282,26.282,0,0,1-.474,8.666Z" transform="translate(-2042.419 -2348.942)" fill="#939290"/><path d="M2050.754,2386.065a25.5,25.5,0,0,1-5.532-.609c-14.177-3.14-23.05-17.713-19.779-32.486a28.33,28.33,0,0,1,6.028-12.189,27.085,27.085,0,0,1,10.97-7.807,24.375,24.375,0,0,1,3.264-1.007l.05-.011a25.409,25.409,0,0,1,20.527,3.991,26.525,26.525,0,0,1,9.127,11.483,28,28,0,0,1,1.461,16.93h0a27.857,27.857,0,0,1-11.692,17.254,25.867,25.867,0,0,1-14.424,4.451Zm-4.256-50.431a20.874,20.874,0,0,0-2.714.843,23.337,23.337,0,0,0-9.452,6.73,24.57,24.57,0,0,0-5.227,10.573c-2.824,12.754,4.77,25.32,16.927,28.013a21.923,21.923,0,0,0,17.059-3.3,24.569,24.569,0,0,0,8.855-29.621,22.788,22.788,0,0,0-7.835-9.868,21.68,21.68,0,0,0-7.834-3.469,21.422,21.422,0,0,0-9.707.082l-.074.016Zm28.539,28.32Z" transform="translate(-2024.765 -2331.268)"/><g transform="translate(8.138 1.879)"><path d="M2117.486,2377.611c-3.32,1.135-6.813-.225-7.976-3.053a25.171,25.171,0,0,1,10.208-7.268,5.278,5.278,0,0,1,2.114,2.706C2122.869,2373.026,2120.924,2376.439,2117.486,2377.611Z" transform="translate(-2109.51 -2365.71)" fill="#fff"/><path d="M2256.812,2355.915c-.647,3.939-4.792,6.536-9.261,5.8s-7.559-4.525-6.907-8.463a6.535,6.535,0,0,1,.558-1.768h0a23.5,23.5,0,0,1,15.431,1.571,6.384,6.384,0,0,1,.174,2.861Z" transform="translate(-2227.973 -2350.837)" fill="#fff"/><path d="M2423.77,2406.578a6.886,6.886,0,0,1-8.224.361c-3.273-2.044-4.464-6.045-2.659-8.933a5.6,5.6,0,0,1,2.4-2.106,24.722,24.722,0,0,1,8.482,10.677Z" transform="translate(-2382.994 -2391.573)" fill="#fff"/></g><g transform="translate(6.261 0.001)"><path d="M2097.447,2362.241a7.78,7.78,0,0,1-7.342-4.613,1.875,1.875,0,0,1,.3-1.925,27.088,27.088,0,0,1,10.972-7.809,1.877,1.877,0,0,1,1.705.19,7.148,7.148,0,0,1,2.853,3.662,7.293,7.293,0,0,1-.641,6.04,8.868,8.868,0,0,1-4.875,3.957,9.2,9.2,0,0,1-2.975.5Zm-3.289-5.1a4.71,4.71,0,0,0,5.052,1.054h0a5.118,5.118,0,0,0,2.827-2.265,3.592,3.592,0,0,0,.351-2.967,3.316,3.316,0,0,0-.677-1.149,23.335,23.335,0,0,0-7.554,5.327Z" transform="translate(-2089.964 -2346.187)"/><path d="M2231.4,2346.032a11.224,11.224,0,0,1-1.827-.151,10.6,10.6,0,0,1-6.52-3.7,8.626,8.626,0,0,1-1.933-6.925,8.424,8.424,0,0,1,.718-2.271,1.874,1.874,0,0,1,1.32-1.028,25.385,25.385,0,0,1,16.607,1.713,1.874,1.874,0,0,1,1,1.171,8.209,8.209,0,0,1,.223,3.694,8.624,8.624,0,0,1-4.052,5.935,10.407,10.407,0,0,1-5.537,1.559Zm-6.481-10.615c-.04.15-.073.3-.1.453a4.923,4.923,0,0,0,1.137,3.942,7.115,7.115,0,0,0,8.987,1.48,4.926,4.926,0,0,0,2.342-3.369v-.006a4.487,4.487,0,0,0,.035-1.227,21.676,21.676,0,0,0-12.4-1.276Z" transform="translate(-2208.419 -2331.273)"/><path d="M2401.871,2392.351a9.5,9.5,0,0,1-5.024-1.465,9.311,9.311,0,0,1-4.038-5.205,7.631,7.631,0,0,1,.782-6.312,7.491,7.491,0,0,1,3.2-2.811,1.876,1.876,0,0,1,1.876.169,26.543,26.543,0,0,1,9.131,11.486,1.875,1.875,0,0,1-.473,2.114,8.076,8.076,0,0,1-5.453,2.026Zm-4.385-11.823a3.673,3.673,0,0,0-.713.831,3.936,3.936,0,0,0-.367,3.251,5.561,5.561,0,0,0,2.429,3.094,5.352,5.352,0,0,0,4.86.547,22.762,22.762,0,0,0-6.209-7.723Z" transform="translate(-2363.412 -2372.051)"/></g><ellipse cx="10.252" cy="11.816" rx="10.252" ry="11.816" transform="translate(11.568 38.569) rotate(-80.64)" fill="#fff"/></g></g><g transform="translate(22.926 164.663)" opacity="0.2"><path d="M818.183,2641.645c-2.238,4.273-9.485.731-11.8-.553-.454-.251-.72-.412-.72-.412l.5.594c-25.175,20.417-59.747,3.574-59.747,3.574s-5,7.847-12.235,6.042c-4.738-1.184-4.477-5.735-3.731-8.734a22.309,22.309,0,0,0,6.381,2.077c2.832.3,5.417-1.662,7.183-3.506a4.928,4.928,0,0,1,5.654-1.083c13.353,6.279,40.051,4.1,46.816-.211,7.383-4.7-3.574-8.49,7.43-10.451a13.832,13.832,0,0,1,9.313,1.346C817.959,2632.967,819.952,2638.264,818.183,2641.645Z" transform="translate(-730.03 -2628.72)"/></g><g transform="translate(149.127 144.758)" opacity="0.2"><path d="M2078.175,2465.44a41.03,41.03,0,0,1-4.189-.433,23.547,23.547,0,0,1-10.691.115c-12.663-2.807-20.745-15.408-18.663-28.608,2.364,4.55,10.966,10.829,22.688,11.634,11.935.819,24.023-5.266,25.6-11.639.079.094.161.188.251.276,3.563,3.809,10.378,3.2,14.2-.438,3.908-3.715,5.1-9.553,4.675-14.928.255.36.506.714.757,1.074C2119.394,2457.2,2098.6,2466.463,2078.175,2465.44Z" transform="translate(-2044.304 -2421.42)"/></g><g transform="translate(217.484 159.293)" opacity="0.2"><path d="M2805.206,2575.89a26.639,26.639,0,0,1-.631,6.141c-3.053,13.785-16.221,22.593-29.412,19.671-12.757-2.828-20.871-15.6-18.612-28.911a31.248,31.248,0,0,0,14.735,11.271c8.494,3.167,18.418,3.083,26.313-1.383A24.535,24.535,0,0,0,2805.206,2575.89Z" transform="translate(-2756.175 -2572.79)"/></g><g transform="translate(95.493 73.232)" opacity="0.2"><path d="M1507.288,1682.942a.094.094,0,0,1,0,.036l-6.694,2.89c-9.6,0-13.456-6.016-14.849-9.319a10.608,10.608,0,0,0,1.628,1.294,23.391,23.391,0,0,0,15.444,3.653,8.666,8.666,0,0,1,2.567-.088A2.329,2.329,0,0,1,1507.288,1682.942Z" transform="translate(-1485.75 -1676.55)"/></g><g transform="translate(102.16 47.396)" opacity="0.2"><path d="M1570.363,1427.191a2.505,2.505,0,0,1-1.513.7,15.857,15.857,0,0,1-6.292-.365l.261-.062a14.283,14.283,0,0,1-7.06-8.275,16.912,16.912,0,0,1,1.2-11.7,26.176,26.176,0,0,0,.041,2.907,14.885,14.885,0,0,0,2.092,4.92c2.259,3.443,5.677,5.964,9.23,8.051a6.071,6.071,0,0,1,1.946,1.518,1.948,1.948,0,0,1,.094,2.307Z" transform="translate(-1555.184 -1407.49)"/></g><path d="M709.576,1444.068a2.087,2.087,0,0,1-1.455-3.583l13.5-13.134-13.387,2.547a2.087,2.087,0,0,1-.78-4.1l20.209-3.844a2.087,2.087,0,0,1,1.846,3.546l-13.23,12.875,13.187-2.894a2.087,2.087,0,0,1,.895,4.077l-20.333,4.463a2.1,2.1,0,0,1-.448.049Z" transform="translate(-685.16 -1373.135)"/><path d="M914.294,1175.334a1.369,1.369,0,0,1,.323-2.516l11.942-3.157-8.469-2.857a1.369,1.369,0,1,1,.876-2.595l12.786,4.313a1.369,1.369,0,0,1-.088,2.621l-11.706,3.095,8.466,2.594a1.369,1.369,0,0,1-.8,2.619l-13.055-4a1.436,1.436,0,0,1-.272-.116Z" transform="translate(-873.045 -1140.109)"/><path d="M830.437,926.141a1.046,1.046,0,0,1-.961-1.682l5.828-7.421-6.478,2.156a1.045,1.045,0,0,1-.661-1.984l9.78-3.254a1.046,1.046,0,0,1,1.153,1.638l-5.712,7.274,6.356-2.315a1.046,1.046,0,0,1,.716,1.965l-9.8,3.57a1.053,1.053,0,0,1-.219.054Z" transform="translate(-795.169 -913.902)"/></svg>