<svg xmlns="http://www.w3.org/2000/svg" width="300" height="212.477" viewBox="0 0 300 212.477"><g transform="translate(0 172.364)"><ellipse cx="150" cy="20.057" rx="150" ry="20.057" fill="#939290"/></g><path d="M782,2572.854H726.329c-33.278,0-33.278-29.6,0-29.6h35.192" transform="translate(-686.288 -2381.019)" fill="#939290"/><g transform="translate(15.153 178.204)" opacity="0.3"><path d="M782.64,2717.19H726.968c-15.761,0-24.055-6.639-24.888-13.63,4.131,3.167,10.7,5.335,19.713,5.335H776.9Z" transform="translate(-702.08 -2703.56)"/></g><g transform="translate(15.083 162.233)" opacity="0.55"><path d="M782.01,2572.862h-.423l-18.175-26.276H728.22c-19.248,0-27.363,9.908-24.347,18.26-6.921-8.77.569-21.585,22.465-21.585h35.191l20.48,29.6Z" transform="translate(-701.38 -2543.26)" fill="#fff"/></g><g transform="translate(115.337 92.788)"><path d="M1851.379,1951.518c-.757.024-1.533.033-2.324.033H1731.243c-1.035-.033-2.032-.094-2.992-.17-34.514-2.8-19.615-32.661,42.729-30.51l-56.881-38.688a119.049,119.049,0,0,1,11.531-10.412,106.705,106.705,0,0,1,44.748-21.185c19.1-3.844,37.647-1.355,51.893,7.462,16.612,10.266,27.377,29.127,26.366,56.56a53.416,53.416,0,0,1,7.1,1.426,47.235,47.235,0,0,1,5.312,1.792c22.781,9.273,26.139,32.727-9.669,33.691Z" transform="translate(-1709.837 -1848.58)" fill="#fff"/><path d="M1846.8,1949.492H1728.988c-.951-.03-1.933-.086-3.012-.17-11.679-.948-18.723-5.188-18.383-11.069.295-5.106,6.22-10.376,15.849-14.1,7.928-3.063,22.042-6.545,44.433-5.871l-56.417-38.372.207-.213a119.554,119.554,0,0,1,11.556-10.434,107.081,107.081,0,0,1,44.852-21.234c19.448-3.914,37.941-1.252,52.074,7.493,17.965,11.1,27.368,31.179,26.491,56.555a53.908,53.908,0,0,1,6.909,1.4,47.526,47.526,0,0,1,5.339,1.8c11.509,4.685,18.574,13.3,17.183,20.955-1.45,7.977-11.269,12.794-26.939,13.216h0c-.712.022-1.474.033-2.332.033Zm-84.457-30.792c-19.137,0-31.507,3.135-38.722,5.922-9.442,3.648-15.248,8.754-15.532,13.66-.322,5.581,6.546,9.62,17.926,10.542,1.07.084,2.045.14,2.98.168h117.8c.852,0,1.609-.011,2.317-.033h0c15.413-.416,25.057-5.083,26.462-12.807,1.349-7.419-5.593-15.809-16.88-20.4a46.961,46.961,0,0,0-5.284-1.782,53.291,53.291,0,0,0-7.066-1.419l-.225-.03.009-.226c.933-25.3-8.388-45.3-26.248-56.339-14.024-8.679-32.39-11.318-51.714-7.43a106.579,106.579,0,0,0-44.642,21.137,119,119,0,0,0-11.3,10.178l57.348,39-.861-.03q-3.3-.114-6.373-.112Z" transform="translate(-1707.582 -1846.272)"/></g><path d="M767.369,2559.842H711.7c-18.26,0-26.578-8.512-26.578-16.421S693.437,2527,711.7,2527H746.89a1.619,1.619,0,0,1,0,3.238H711.7c-15.323,0-23.34,6.632-23.34,13.183s8.017,13.183,23.34,13.183h55.671a1.619,1.619,0,0,1,0,3.238Z" transform="translate(-671.657 -2366.387)"/><path d="M1936.2,1929.911c-2.221,8.535-7.842,22.056-16.443,29.909l-22.39-11.183s-22.014-11.56-21.388-16.472c.541-4.249-6.845-35.14-9.885-44.582q3.8-3,7.729-5.6a104.659,104.659,0,0,1,37.017-15.582,17.212,17.212,0,0,1,3.816,1.087c9.607,3.613,33.192,17.643,21.543,62.428Z" transform="translate(-1734.96 -1771.603)" fill="#939290"/><g transform="translate(119.598 93.045)" opacity="0.55"><path d="M1882.066,1889.607c-10.822-30.111-41.737-41.929-74.261-35.385a106.711,106.711,0,0,0-44.748,21.186,117.334,117.334,0,0,0-9.861,8.732l-2.847-1.938a119.014,119.014,0,0,1,11.531-10.412,106.706,106.706,0,0,1,44.747-21.186c33.8-6.8,65.857,6.224,75.437,39Z" transform="translate(-1750.35 -1848.855)" fill="#fff"/></g><g transform="translate(154.204 106.272)" opacity="0.3"><path d="M2111.237,1981.61c20.189,9.172,29.765,27.252,30.12,53.072a7.629,7.629,0,0,1-8.962,7.592c-7.738-1.365-19.3-2.822-29.056-1.646-16.344,1.97,7.9-59.019,7.9-59.019Z" transform="translate(-2097.677 -1981.61)"/></g><path d="M2942.367,2004.3l-5.928-9.146-6.638-10.238c6.478-4.2,12.312-4.008,16.118-1.548,6.215,4.013,7.029,14.077-3.552,20.931Z" transform="translate(-2692.686 -1875.343)" fill="#939290"/><g transform="translate(237.115 106.273)" opacity="0.55"><path d="M2946.427,1986.361a9.9,9.9,0,0,1,4.059,5.246,9.938,9.938,0,0,0-4.558-8.235c-3.806-2.461-9.64-2.653-16.118,1.548l1.53,2.359c6.064-3.538,11.484-3.247,15.087-.918Z" transform="translate(-2929.81 -1981.621)" fill="#fff"/></g><path d="M1870.271,1901.645h-.061a1.619,1.619,0,0,1-1.558-1.678c.8-21.661-5.856-39.128-19.247-50.512-14.111-12-34.915-16.322-57.074-11.863a105.216,105.216,0,0,0-44.063,20.869,117.861,117.861,0,0,0-11.374,10.271,1.619,1.619,0,1,1-2.322-2.258,121.1,121.1,0,0,1,11.688-10.553,108.455,108.455,0,0,1,45.432-21.5c23.138-4.655,44.94-.073,59.81,12.57,14.174,12.05,21.224,30.412,20.385,53.1a1.619,1.619,0,0,1-1.617,1.559Z" transform="translate(-1616.133 -1741.209)"/><path d="M1772.34,1470.968c19.407-38.2,70.264-5.843,43.106,30.671" transform="translate(-1650.551 -1400.113)" fill="#939290"/><g transform="translate(152.096 66.115)" opacity="0.3"><path d="M2076.52,1604.876l12.8,9.1c10.031-13.484,9.419-26.4,3.683-35.41a26.77,26.77,0,0,1-16.479,26.306Z" transform="translate(-2076.52 -1578.57)"/></g><g transform="translate(121.788 53.682)" opacity="0.55"><path d="M1772.33,1470.961l2.328,1.656c13.708-23.714,40.481-16.611,47.861,1.621C1817.392,1452.781,1786.492,1443.09,1772.33,1470.961Z" transform="translate(-1772.33 -1453.789)" fill="#fff"/></g><path d="M796.214,1715.979c-32.379-20.045-68.137,25.6-24.653,48.855" transform="translate(-731.361 -1631.707)" fill="#939290"/><g transform="translate(20.069 79.311)" opacity="0.55"><path d="M753.351,1746.866c-4.459-20.2,18.761-39.606,41.476-28.142l1.384-2.745C771.067,1700.416,743.893,1724.453,753.351,1746.866Z" transform="translate(-751.426 -1711.018)" fill="#fff"/></g><g transform="translate(39.776 68.912)"><path d="M955.34,1699.774c11.824,36.958,45.319,41.882,81.04,30.454s60.138-34.881,48.315-71.838-50.366-57.653-86.086-46.226S943.517,1662.816,955.34,1699.774Z" transform="translate(-951.606 -1608.783)" fill="#fff"/><path d="M1002.467,1733.766a61.066,61.066,0,0,1-18.03-2.522c-15.458-4.774-26.132-16.057-31.722-33.533a71.291,71.291,0,0,1,3.819-53.564,66.58,66.58,0,0,1,39.61-34.358c35.794-11.452,74.552,9.358,86.4,46.386,5.592,17.476,3.448,32.859-6.368,45.72-8.562,11.218-23.124,20.358-42.108,26.432a104.807,104.807,0,0,1-31.6,5.44Zm-49.279-36.207c5.539,17.312,16.1,28.486,31.4,33.21,13.385,4.135,30.444,3.127,49.332-2.916s33.364-15.123,41.864-26.259c9.712-12.724,11.828-27.953,6.289-45.266-11.763-36.768-50.24-57.432-85.773-46.065a66.085,66.085,0,0,0-39.315,34.1,70.794,70.794,0,0,0-3.791,53.192Z" transform="translate(-949.217 -1606.644)"/></g><g transform="translate(54.438 76.18)" opacity="0.3"><path d="M1096.37,1783.437c15.95,18.218,42.358,19.209,70.114,10.329,35.718-11.427,60.136-34.879,48.313-71.833a71.232,71.232,0,0,0-36.18-42.343,71.858,71.858,0,0,1,18.891,30.254c11.825,36.96-12.593,60.41-48.311,71.838C1129.924,1787.847,1111.3,1789.253,1096.37,1783.437Z" transform="translate(-1096.37 -1679.59)"/></g><path d="M990.078,1722.754a62.455,62.455,0,0,1-18.433-2.581c-15.911-4.915-26.888-16.5-32.623-34.425a72.655,72.655,0,0,1,3.9-54.589,67.943,67.943,0,0,1,40.421-35.056c36.514-11.681,76.044,9.526,88.121,47.274,5.735,17.928,3.52,33.73-6.583,46.968-8.733,11.441-23.526,20.745-42.78,26.9A106.177,106.177,0,0,1,990.078,1722.754Zm-47.971-37.992c5.394,16.861,15.654,27.734,30.495,32.318,13.117,4.052,29.891,3.044,48.51-2.912s32.864-14.874,41.193-25.786c9.424-12.347,11.467-27.157,6.073-44.017-11.533-36.048-49.24-56.314-84.051-45.177a64.737,64.737,0,0,0-38.505,33.406,69.427,69.427,0,0,0-3.714,52.168Z" transform="translate(-897.053 -1525.352)"/><path d="M1800.8,1488.641a1.619,1.619,0,0,1-1.3-2.585c10.7-14.383,7.649-25.814,4.878-31.347a25.068,25.068,0,0,0-22.048-13.912h-.071c-9.577,0-17.786,5.781-23.124,16.287a1.619,1.619,0,1,1-2.886-1.466c5.833-11.48,15.311-18.059,26.013-18.059h.077a28.33,28.33,0,0,1,24.933,15.7c5.281,10.548,3.395,23.206-5.176,34.728a1.617,1.617,0,0,1-1.3.653Z" transform="translate(-1635.908 -1385.495)"/><path d="M756.932,1751.57a1.615,1.615,0,0,1-.762-.191c-13.4-7.168-20.856-17.276-20.984-28.462-.113-9.858,5.577-19.234,14.85-24.469,10.088-5.7,21.9-5.232,32.4,1.27a1.619,1.619,0,1,1-1.7,2.753c-9.469-5.863-20.079-6.3-29.107-1.2-8.244,4.654-13.3,12.935-13.2,21.612.114,9.952,6.958,19.059,19.273,25.644a1.619,1.619,0,0,1-.764,3.047Z" transform="translate(-716.733 -1616.822)"/><g transform="translate(77.171 65.086)"><path d="M1345.375,1580.427c-9.369-18.861-26.378-5.872-13.842,3.441" transform="translate(-1326.835 -1570.519)" fill="#fff"/><path d="M1329.076,1581.792c-3.6-2.671-5.173-5.943-4.327-8.975a6.462,6.462,0,0,1,5.79-4.535c4.726-.444,9.493,3.2,12.75,9.758l-.446.222c-3.162-6.366-7.742-9.912-12.257-9.484a5.966,5.966,0,0,0-5.356,4.173c-.788,2.823.722,5.9,4.144,8.441l-.3.4Z" transform="translate(-1324.525 -1568.245)"/></g><g transform="translate(68.298 74.41)"><path d="M1248.651,1665.674c-11.955-5.644-15.831,9.522-1.417,7.995" transform="translate(-1237.709 -1664.152)" fill="#fff"/><path d="M1243.1,1671.695c-3.576,0-6.211-1.169-7.217-3.269a4.264,4.264,0,0,1,.936-4.878c2.123-2.136,5.754-2.3,9.713-.427l-.212.45c-3.759-1.775-7.178-1.652-9.147.328a3.774,3.774,0,0,0-.841,4.312c1.085,2.264,4.32,3.342,8.649,2.883l.053.5a18.441,18.441,0,0,1-1.934.106Z" transform="translate(-1235.478 -1661.824)"/></g><g transform="translate(69.617 83.668)"><path d="M1255.041,1756.77c-9.3,6.7.775,14.47,4.97,4.978" transform="translate(-1250.971 -1756.568)" fill="#fff"/><path d="M1252.526,1764.587c-.1,0-.191,0-.287-.01a3.733,3.733,0,0,1-3.373-2.721c-.652-2.286.757-4.946,3.768-7.116l.291.4c-2.833,2.042-4.173,4.5-3.581,6.576a3.242,3.242,0,0,0,2.928,2.36c2.044.137,4.008-1.451,5.249-4.261l.456.2c-1.273,2.882-3.295,4.566-5.451,4.566Z" transform="translate(-1248.71 -1754.74)"/></g><path d="M1316.908,1570.833a1.607,1.607,0,0,1-.964-.32c-4.016-2.984-5.822-6.888-4.829-10.443a7.818,7.818,0,0,1,6.979-5.531c5.309-.5,10.586,3.427,14.107,10.513a1.619,1.619,0,0,1-2.9,1.441c-2.9-5.838-6.976-9.1-10.9-8.73a4.611,4.611,0,0,0-4.167,3.177c-.628,2.246.7,4.788,3.642,6.974a1.619,1.619,0,0,1-.967,2.918Z" transform="translate(-1235.039 -1490.78)"/><path d="M1230.594,1660.693c-5.74,0-7.738-2.76-8.357-4.053a5.618,5.618,0,0,1,1.2-6.437c2.551-2.565,6.762-2.827,11.269-.7a1.619,1.619,0,0,1-1.382,2.928c-3.782-1.786-6.4-1.142-7.59.055a2.39,2.39,0,0,0-.577,2.754c.636,1.326,2.876,2.579,7.271,2.114a1.619,1.619,0,1,1,.341,3.22,20.566,20.566,0,0,1-2.174.121Z" transform="translate(-1154.774 -1575.036)"/><path d="M1240.14,1753.145c-.128,0-.258-.005-.388-.014a5.093,5.093,0,0,1-4.6-3.712c-.817-2.865.785-6.081,4.286-8.6a1.619,1.619,0,0,1,1.893,2.626c-2.761,1.99-3.394,3.934-3.065,5.088a1.884,1.884,0,0,0,1.706,1.369c1.443.1,2.9-1.189,3.9-3.448a1.619,1.619,0,1,1,2.961,1.309c-1.5,3.4-3.984,5.382-6.7,5.383Z" transform="translate(-1166.702 -1658.26)"/><path d="M1486.266,2296.065c1.058,3.307,5.778,6.74,9.83,5.442s5.9-6.831,4.845-10.138-4.626-3.141-8.679-1.844S1485.208,2292.757,1486.266,2296.065Z" transform="translate(-1392.788 -2151.796)"/><path d="M1568.585,2511.688c-.7,2.8-3.66,5.227-7.6,6.723-3.26,1.237-6.446,1.543-8.793.687a5.379,5.379,0,0,1-3.322-3.227c-1.548-4.088,1.562-9.057,6.949-11.1s11.009-.381,12.557,3.712a5.315,5.315,0,0,1,.212,3.2Z" transform="translate(-1448.986 -2345.588)"/><path d="M1602.2,2572.985c-.7,2.8-3.661,5.227-7.6,6.723-3.26,1.238-6.445,1.544-8.793.686.626-3.087,3.326-6.074,7.2-7.541A11.659,11.659,0,0,1,1602.2,2572.985Z" transform="translate(-1482.597 -2406.885)" fill="#484847"/><path d="M1565.388,2377.137l1.012,7a.485.485,0,0,1-.912.292l-3.237-6.286a1.669,1.669,0,1,1,2.968-1.528A1.736,1.736,0,0,1,1565.388,2377.137Z" transform="translate(-1461.228 -2230.168)"/><path d="M1565.837,1973.85c8.224,3.259,14.559,10.137,19.473,19.74a7.283,7.283,0,0,0,7.3,3.884c15.12-1.673,21.167-20.541,8.692-35.507-16.3-19.322-38.966-9.356-39.966,4.693a7.206,7.206,0,0,0,4.5,7.191Z" transform="translate(-1460.555 -1847.981)" fill="#939290"/><path d="M1123.607,2111.788c-4.8,7.427-5.972,16.705-4.4,27.377a7.283,7.283,0,0,1-3.689,7.4c-13.282,7.414-29.159-4.441-27.688-23.868,2.058-25.194,26.3-30.236,35.268-19.377a7.2,7.2,0,0,1,.508,8.468Z" transform="translate(-1034.158 -1980.057)" fill="#939290"/><path d="M1731.289,2147.16a8.322,8.322,0,0,1-5.816-2.443,1.495,1.495,0,0,1,2.063-2.164,5.23,5.23,0,0,0,6.878.6,4.7,4.7,0,0,0,1.624-5.964,1.495,1.495,0,1,1,2.712-1.257,7.669,7.669,0,0,1-2.595,9.651,8.424,8.424,0,0,1-4.865,1.574Z" transform="translate(-1607.936 -2013.506)"/><path d="M1218.234,2331.154a8.418,8.418,0,0,1-6.893-3.457,1.495,1.495,0,1,1,2.421-1.754,5.756,5.756,0,0,0,6.76,1.8,5.346,5.346,0,0,0,3.7-5.533,1.495,1.495,0,1,1,2.978-.259,8.3,8.3,0,0,1-5.635,8.593,9.554,9.554,0,0,1-3.333.611Z" transform="translate(-1145.192 -2180.537)"/><path d="M1540.561,2506.562a11.711,11.711,0,0,1-2.012-.167,7.273,7.273,0,0,1-5.853-4.589,8.637,8.637,0,0,1,1.014-7.751,14.494,14.494,0,0,1,15.623-5.919,8.642,8.642,0,0,1,5.9,5.133h0a7.274,7.274,0,0,1-1.343,7.315,16.163,16.163,0,0,1-6.989,4.7,18.1,18.1,0,0,1-6.336,1.279Zm5.235-15.688a11.542,11.542,0,0,0-4.065.77,10.589,10.589,0,0,0-5.276,4.127,5.489,5.489,0,0,0-.731,4.887,4.057,4.057,0,0,0,3.384,2.547,15.365,15.365,0,0,0,12.247-4.64,4.057,4.057,0,0,0,.847-4.15h0a5.489,5.489,0,0,0-3.785-3.176,9.263,9.263,0,0,0-2.621-.366Z" transform="translate(-1434.327 -2330.947)"/><path d="M1780.611,2576.183q9.842,21.995-23.221,25.3h-26.134c-38.387-1.289-24.272-33.037,40.183-30.666h0a9.1,9.1,0,0,1,9.173,5.365Z" transform="translate(-1594.511 -2405.725)" fill="#939290"/><g transform="translate(115.587 164.968)" opacity="0.55"><path d="M1772.16,2571.123h0a3.238,3.238,0,0,1-3.3,3.232c-38.362-.646-57.727,11.091-57.594,20.264-6.252-9.235,12.462-24.39,55.427-23.9Z" transform="translate(-1710.09 -2570.712)" fill="#fff"/></g><path d="M2950.455,2541.572h-7.1s-22.47-18.1,0-36.942c.193-.16.382-.32.56-.48,38.353,1.021,53.414,37.422,6.54,37.422Z" transform="translate(-2695.899 -2345.814)" fill="#939290"/><g transform="translate(245.217 158.835)" opacity="0.55"><path d="M3013.431,2509.16c-.178.161-.367.32-.56.48-.616.516-1.191,1.032-1.741,1.546,27.365.814,42.788,19.647,32.154,30.276,15.173-10.063-.531-31.521-29.853-32.3Z" transform="translate(-3011.13 -2509.16)" fill="#fff"/></g><path d="M1834.476,2528.342H1716.608c-11.348-.381-19.076-3.368-21.76-8.412-1.476-2.773-1.233-5.987.684-9.047,3.059-4.886,10.117-9.2,19.874-12.159,11.19-3.389,25.543-4.868,41.5-4.281a1.619,1.619,0,0,1-.12,3.236c-15.608-.574-29.592.858-40.444,4.145-8.879,2.688-15.464,6.617-18.069,10.777-1.312,2.1-1.5,4.05-.569,5.808,2.053,3.86,9.149,6.363,18.984,6.7h117.787c13.51,0,23.124-3.233,26.379-8.871,1.759-3.046,1.553-6.755-.578-10.447-4.28-7.412-16.454-14.892-34-14.891a1.619,1.619,0,0,1,0-3.238c18.842,0,32.064,8.292,36.81,16.51,2.734,4.735,2.939,9.6.578,13.684-3.906,6.764-14.269,10.49-29.182,10.49Z" transform="translate(-1579.921 -2330.967)"/><path d="M2927.761,1991.6a1.619,1.619,0,0,1-.882-2.977c7.857-5.092,8.635-11.732,6.034-15.746a8.767,8.767,0,0,0-6.371-3.866c-3.221-.425-6.842.594-10.467,2.944a1.619,1.619,0,1,1-1.761-2.717c9.291-6.021,17.756-3.614,21.316,1.878a11.958,11.958,0,0,1,1.313,10.08c-1.151,3.862-4.023,7.37-8.3,10.144a1.61,1.61,0,0,1-.879.26Z" transform="translate(-2678.079 -1861.025)"/><g transform="translate(226.953 102.256)" opacity="0.3"><path d="M2839.2,1996.292a3.539,3.539,0,0,1-2.978-4.989c12.72-27.683-8.4-49.924-8.4-49.924l.819-.08c16.612,10.266,27.377,29.128,26.366,56.56a53.385,53.385,0,0,1,7.1,1.426c-6.789-1.628-16.785-2.55-22.907-2.994Z" transform="translate(-2827.82 -1941.3)"/></g><g transform="translate(251.76 162.034)" opacity="0.3"><path d="M3079.595,2574.994H3076.8c22.343-2.508,22.146-29.8,14.839-33.7-.019-.009-.033-.019-.052-.028C3114.847,2550.741,3117.859,2574.994,3079.595,2574.994Z" transform="translate(-3076.8 -2541.27)"/></g><g transform="translate(133.742 183.77)" opacity="0.3"><path d="M2010.207,2771.414h-114.9c-1.035-.033-2.033-.094-2.992-.169l-.009-.005s12.289-18.913,59.337-8.877c0,0,23.213,2.9,31.682-1.689,8-4.328,10.962,9.917,26.879,10.741Z" transform="translate(-1892.31 -2759.426)"/></g><g transform="translate(254.543 195.467)"><path d="M3107.175,2879.325c-.757.024-1.534.033-2.324.033C3105.739,2879.315,3106.511,2879.306,3107.175,2879.325Z" transform="translate(-3104.838 -2879.067)"/><path d="M3104.742,2877.358l-.012-.5c.868-.042,1.656-.052,2.344-.033v.5C3106.362,2877.347,3105.6,2877.358,3104.742,2877.358Z" transform="translate(-3104.73 -2876.818)"/></g><g transform="translate(243.037 108.024)" opacity="0.3"><path d="M2995.894,2020.122l-5.928-9.147-.715-3.3c5.063,3.74,11.649-3.4,10.195-8.487,6.215,4.013,7.029,14.077-3.552,20.931Z" transform="translate(-2989.25 -1999.19)"/></g><g transform="translate(83.655)"><path d="M1392.156,1196.662c0-.028.032-.149.027-.177.324-.977.6-1.57.93-2.491.278-.738.447-1.6.753-2.345.084-.186.565-1.247.718-1.533.542-1.042,1.02-2.132,1.623-3.156.028,0,.037-.121.032-.149,0,0-.038-.051-.066-.047a.529.529,0,0,1-.205-.023,42.436,42.436,0,0,1-4.614.641c-.173,0-.877.092-.939-.272l-.792-3.81c-.119-.527.614-.623.917-.7l9.977-1.956c.663,0,.7.371,1.029.8.005.028.2.167.21.223a6.785,6.785,0,0,1,.615,2.429c.067.392-.124.626-.3.971-.458,1.2-.8,2.094-1.394,3.319-1.245,1.824-1.822,4.024-2.785,5.974l.01.056c.024.139.2.139.285.152l.84-.143a12.962,12.962,0,0,0,1.529-.382c.256-.077.51-.156.767-.23a2.71,2.71,0,0,1,.385-.109,1.939,1.939,0,0,1,1.063.237,1.669,1.669,0,0,1,.477.432,1.271,1.271,0,0,1,.17.282,1.862,1.862,0,0,1,.057.24q.129.532.258,1.063c.147.607.348,1.223.446,1.839a1.092,1.092,0,0,1-.329,1.188,2.769,2.769,0,0,1-1.335.285c-.523.05-1.047.1-1.566.183l-.868.147c-.22.038-.439.1-.656.156l-3.2.761-1.466.348c-.154.037-.308.072-.461.11a1.418,1.418,0,0,1-1.009-.252,1.868,1.868,0,0,1-.692-1.462c-.005-.028-.161-.952-.219-1.287C1392.348,1197.781,1392.2,1196.885,1392.156,1196.662Z" transform="translate(-1389.611 -1154.173)"/><path d="M1609.912,1046.833c.006-.02.068-.089.073-.11.522-.546.89-.853,1.4-1.359.417-.4.8-.922,1.238-1.318.114-.1.767-.65.959-.791.688-.521,1.347-1.093,2.07-1.582.02.006.063-.069.069-.089,0,0-.009-.046-.029-.052a.382.382,0,0,1-.128-.08,31.066,31.066,0,0,1-3.261-1.027c-.115-.054-.611-.215-.537-.476l.675-2.776c.088-.386.6-.22.83-.177l7.231,1.843c.438.21.346.465.429.857-.006.02.081.174.07.214a4.965,4.965,0,0,1-.357,1.8c-.079.281-.279.376-.5.551a26.285,26.285,0,0,1-1.969,1.762,34.682,34.682,0,0,0-3.728,3.085l-.011.04c-.028.1.087.155.142.191l.6.169a9.5,9.5,0,0,0,1.134.228c.193.03.388.058.581.089a1.839,1.839,0,0,1,.289.05,1.265,1.265,0,0,1,.2.1,1.227,1.227,0,0,1,.431.394,1.214,1.214,0,0,1,.18.436.88.88,0,0,1,.024.241,1.337,1.337,0,0,1-.038.177q-.082.393-.163.786c-.094.448-.155.921-.283,1.36-.092.314-.227.625-.593.684a2.03,2.03,0,0,1-.976-.231c-.363-.131-.724-.267-1.1-.372l-.622-.175c-.157-.045-.324-.069-.484-.1l-2.364-.5-1.081-.23c-.114-.024-.227-.05-.341-.073a1.046,1.046,0,0,1-.59-.484,1.374,1.374,0,0,1,0-1.188c.006-.02.192-.681.26-.923.04-.14.22-.782.266-.943Z" transform="translate(-1587.364 -1024.776)"/><path d="M1465.8,925.477c-.006-.016,0-.093,0-.11.1-.619.205-1,.315-1.589.095-.471.113-1.007.223-1.485.032-.12.218-.806.282-.992.224-.681.4-1.382.667-2.057.016-.006.01-.077.005-.093,0,0-.028-.027-.044-.022a.324.324,0,0,1-.125.006,25.8,25.8,0,0,1-2.713.838c-.1.017-.519.141-.592-.072l-.85-2.215c-.123-.306.308-.434.483-.513l5.811-2.154c.4-.064.455.156.7.383.006.016.137.081.148.114a4.119,4.119,0,0,1,.608,1.4.893.893,0,0,1-.083.614c-.158.767-.274,1.338-.513,2.133a28.736,28.736,0,0,0-1.09,3.867l.011.033c.028.082.132.065.186.064l.491-.168a7.679,7.679,0,0,0,.883-.38c.146-.071.292-.144.438-.213a1.551,1.551,0,0,1,.221-.1,1.012,1.012,0,0,1,.182-.027,1.025,1.025,0,0,1,.48.066,1.007,1.007,0,0,1,.329.213.772.772,0,0,1,.131.153,1.263,1.263,0,0,1,.058.138c.087.2.172.41.259.614.147.351.329.7.448,1.063a.666.666,0,0,1-.082.747,1.686,1.686,0,0,1-.775.3c-.31.081-.621.16-.925.264l-.507.173c-.129.044-.254.106-.38.158l-1.852.771-.848.353c-.089.037-.178.073-.267.112a.863.863,0,0,1-.632-.053c-.351-.151-.445-.478-.56-.812-.006-.016-.19-.557-.258-.753Z" transform="translate(-1455.636 -915.008)"/></g></svg>