<svg xmlns="http://www.w3.org/2000/svg" width="300" height="198.208" viewBox="0 0 300 198.208"><g transform="translate(0 64.844)"><g transform="translate(14.209 116.083)"><ellipse cx="142.896" cy="8.64" rx="142.896" ry="8.64" fill="#939290"/></g><g transform="translate(0 -14.46)"><g transform="translate(250.708 43.228)"><path d="M3079.978,1885.01a15.261,15.261,0,1,1-22.45-5.216,14.6,14.6,0,0,1,1.824-1.136A15.26,15.26,0,0,1,3079.978,1885.01Z" transform="translate(-3049.406 -1875.056)" fill="#939290"/><g transform="translate(1.819 4.74)" opacity="0.3"><path d="M3081.759,1919.362a15.262,15.262,0,1,1-24.224-12.481,67.352,67.352,0,0,1,4.626,9.22,11.411,11.411,0,0,0,16.666,5.4,28.564,28.564,0,0,0,2.934-2.133Z" transform="translate(-3051.232 -1906.88)"/></g><path d="M3049.613,1892.257a17.081,17.081,0,1,1,7.961-1.981,17.1,17.1,0,0,1-7.961,1.981Zm-.045-30.525a13.44,13.44,0,1,0,11.891,7.158h0a13.348,13.348,0,0,0-7.921-6.557,13.486,13.486,0,0,0-3.971-.6Z" transform="translate(-3032.501 -1858.081)"/></g><g transform="translate(114.034 22.516)"><path d="M1797.328,1776.388H1645.265a149.161,149.161,0,0,1,1.054-43.943c5.142-28.665,21.251-61.836,67.452-67.8,84.05-10.854,80.481,69.213,80.481,69.213a35.877,35.877,0,0,1,9.741,1.209c6.847,1.916,10.886,5.949,13.144,10.771C1823.806,1760.073,1813.045,1776.388,1797.328,1776.388Z" transform="translate(-1642.302 -1661.809)" fill="#939290"/><g transform="translate(1.829 67.296)" opacity="0.3"><path d="M1797.328,2385H1645.265a149.162,149.162,0,0,1,1.054-43.944l49.322-3.339s7.088,1.644,8.267,20.442a16.941,16.941,0,0,0,16.908,15.877H1736.4c12.149,0,18.44-14.814,9.745-23.3-3.747-3.656-10.054-6.732-20.322-8.266,0,0,35.261-6.744,41.55,19.969a15.075,15.075,0,0,0,14.682,11.6h13.26a14.977,14.977,0,0,0,14.607-11.285c1.32-5.406.683-12.193-5.927-19.072,6.847,1.917,10.886,5.949,13.144,10.771,6.67,14.234-4.092,30.549-19.809,30.549Z" transform="translate(-1644.131 -2337.72)"/></g><g transform="translate(1.829 1.827)" opacity="0.5"><path d="M1646.323,1737.474c5.142-28.665,21.251-61.836,67.451-67.8,84.05-10.854,80.481,69.213,80.481,69.213a35.875,35.875,0,0,1,9.74,1.209c6.847,1.916,10.886,5.949,13.144,10.771a21.1,21.1,0,0,1,1.849,6.411,20.833,20.833,0,0,0-1.849-11.43c-2.258-4.822-6.3-8.855-13.144-10.771a35.87,35.87,0,0,0-9.74-1.209s3.567-80.066-80.481-69.213c-46.2,5.963-62.31,39.135-67.451,67.8a148.108,148.108,0,0,0-2.168,28.131A144.984,144.984,0,0,1,1646.323,1737.474Z" transform="translate(-1644.135 -1663.645)" fill="#fff"/></g><path d="M1780.329,1761.242H1628.266a1.824,1.824,0,0,1-1.8-1.547,145.889,145.889,0,0,1-.76-29.772c1.11-15.544,5.213-37.768,18.449-55.37,12.115-16.111,29.741-25.763,52.387-28.687,26.158-3.378,46.683,1.589,61.007,14.759,11.958,11,17.176,25.735,19.445,36.164a91.073,91.073,0,0,1,2.11,18.311c11.218.426,18.847,4.793,22.69,13a22.943,22.943,0,0,1-1.482,22.145,23.579,23.579,0,0,1-19.981,11Zm-150.458-3.65h150.458a19.945,19.945,0,0,0,16.9-9.309,19.308,19.308,0,0,0,1.257-18.637c-3.4-7.252-10.542-10.93-21.234-10.93a1.825,1.825,0,0,1-1.823-1.9c.015-.335,1.207-33.693-20.375-53.517-13.493-12.393-33.024-17.038-58.05-13.808-21.629,2.792-38.426,11.959-49.927,27.247-21.923,29.139-18.222,72.2-17.209,80.86Z" transform="translate(-1625.304 -1644.839)"/><path d="M3174.669,2368.386c-.086.6-.21,1.153-.349,1.721s-.3,1.125-.471,1.681-.373,1.109-.594,1.655a14.543,14.543,0,0,1-.769,1.606.606.606,0,0,1-1.131-.25v-.019c-.047-.57-.069-1.128-.1-1.686l-.088-1.666c-.027-.554-.06-1.106-.079-1.655s-.048-1.108-.055-1.625a1.831,1.831,0,0,1,3.662-.06,1.8,1.8,0,0,1-.016.282l0,.016Z" transform="translate(-3020.898 -2296.217)"/><path d="M2506.8,2419.591c.156-.06.5-.212.754-.339.275-.156.558-.29.826-.47a14.714,14.714,0,0,0,1.567-1.13,17.3,17.3,0,0,0,1.424-1.327,17.562,17.562,0,0,0,1.222-1.529,18.9,18.9,0,0,0,3.075-7.309l.117-.5c.034-.167.048-.339.073-.508l.136-1.019c.042-.34.1-.678.133-1.02l.044-1.038a27.585,27.585,0,0,0-.014-4.135,23.107,23.107,0,0,0-.683-4,17.688,17.688,0,0,0-1.466-3.69,16.43,16.43,0,0,0-5.342-5.823,24.418,24.418,0,0,0-3.586-2.014,33.255,33.255,0,0,0-3.937-1.472,68.34,68.34,0,0,0-8.388-1.812c-2.854-.5-5.748-.908-8.684-1.511a.15.15,0,0,1-.118-.175.152.152,0,0,1,.118-.118,40.362,40.362,0,0,1,17.9.681,36.467,36.467,0,0,1,4.387,1.438,27.5,27.5,0,0,1,4.189,2.136,19.788,19.788,0,0,1,8.552,11.332,26.8,26.8,0,0,1,.88,4.678,29.6,29.6,0,0,1,.085,4.681l-.048,1.167c-.038.389-.1.779-.144,1.168l-.153,1.168c-.028.194-.045.39-.083.584l-.131.581c-1.2,6.173-4.992,12.368-11.629,14.8a1.821,1.821,0,0,1-1.272-3.413l.2-.077Z" transform="translate(-2400.556 -2306.759)"/></g><path d="M559.664,1473.175a44.349,44.349,0,0,1-30.311,44.794,43.459,43.459,0,0,1-8.408,1.872,44.035,44.035,0,0,1-25.011-4.274l0,1.137a2.727,2.727,0,0,1-3.753,2.514c-3.774-1.515-9.327-5.349-11.362-15.01a.09.09,0,0,0-.178.019.985.985,0,0,1,0,.119,1.934,1.934,0,0,1-1.894,1.989,2.089,2.089,0,0,1-.367-.014,2.5,2.5,0,0,1-1.669-.959c-4.465-5.658-6.907-13.114-6.745-24.011.369-24.4,17.843-47.49,42.16-49.394a44.178,44.178,0,0,1,47.531,41.22Z" transform="translate(-468.142 -1429.993)" fill="#939290"/><circle cx="28.792" cy="28.792" r="28.792" transform="translate(5.732 46.08) rotate(-45)" fill="#fff"/><g transform="translate(1.822 1.827)" opacity="0.5"><path d="M557.577,1462.208a44.189,44.189,0,0,0-45.426-30.253c-24.32,1.9-41.794,25-42.161,49.393-.116,7.786,1.1,13.807,3.433,18.678a46.637,46.637,0,0,1-1.758-14.353c.284-18.888,10.825-36.993,26.857-45.089,1.832.946,5.653,1.059,9.877.142,4.536-.984,8.154-2.854,9.174-4.578a44.206,44.206,0,0,1,40,26.062Z" transform="translate(-469.983 -1431.818)" fill="#fff"/></g><g transform="translate(9.312 12.549)" opacity="0.3"><path d="M614.073,1542.221a53.067,53.067,0,0,0-14.032,9.5l0,0a28.694,28.694,0,0,0-32.906.874,28.837,28.837,0,0,1,6.718-1.344l.3-.022a15.942,15.942,0,0,1,12.351,4.495,6.722,6.722,0,0,1,1.229,8.013c-.011.018-.02.038-.03.056a6.877,6.877,0,0,1-2.988,2.913c-4.348,2.146-10.24,10.464-16.45,26.024,0,0-2.967,7.134-1.564,12.742.232.926-2.4-.042-3.192-.574a14.3,14.3,0,0,1-3.669-3.462,1.26,1.26,0,0,0-2.289.551,14.052,14.052,0,0,0-.1,2.636.718.718,0,0,1-1.262.506,54.505,54.505,0,0,1-5.259-7.2,2.062,2.062,0,0,0-3.833,1.062,27.115,27.115,0,0,0,.933,7.017,2.013,2.013,0,0,0,.367.014,1.935,1.935,0,0,0,1.894-1.989c0-.043,0-.082,0-.119a.087.087,0,0,1,.107-.085.079.079,0,0,1,.069.064,23.213,23.213,0,0,0,4.058,9.378,17.132,17.132,0,0,0,7.3,5.634,2.752,2.752,0,0,0,1.307.182c.012,0,.023,0,.035,0a2.485,2.485,0,0,0,.256-.046l.065-.012a2.7,2.7,0,0,0,2.088-2.636l0-.569v-.567a44.248,44.248,0,0,0,25.01,4.274q2.061-.25,4.056-.689a43.19,43.19,0,0,0,4.351-1.186,44.175,44.175,0,0,0,15.076-75.426Z" transform="translate(-547.099 -1542.22)"/></g><path d="M498.623,1505.011a45.772,45.772,0,0,1-18.07-3.7,4.521,4.521,0,0,1-1.7,2.168,4.567,4.567,0,0,1-4.263.453c-3.271-1.311-8.778-4.678-11.56-12.959l-.037.013a4.233,4.233,0,0,1-4.624-1.47c-5.03-6.372-7.3-14.369-7.138-25.171a55.394,55.394,0,0,1,12.511-34.261c8.2-9.973,19.331-15.983,31.331-16.922a46,46,0,0,1,9.174,91.515,46.676,46.676,0,0,1-5.618.34Zm-19.61-8.253a1.817,1.817,0,0,1,.813.191,42.351,42.351,0,1,0,15.526-80.156c-22.326,1.748-40.105,22.656-40.476,47.6-.149,9.917,1.871,17.179,6.352,22.854a.592.592,0,0,0,.6.272c.028-.01.067-.022.071-.2v-.1a1.914,1.914,0,0,1,3.787-.371c1.825,8.649,6.585,12.219,10.257,13.69a.915.915,0,0,0,.861-.087.857.857,0,0,0,.385-.729v-1.14a1.826,1.826,0,0,1,1.826-1.823Z" transform="translate(-451.218 -1413.011)"/><path d="M756.33,1580.108a20.007,20.007,0,0,1,11.877-6.7,30.445,30.445,0,0,1,26.115,7.752,31.687,31.687,0,0,1,4.573,5.405,30.4,30.4,0,0,1,4.9,20.3,28.363,28.363,0,0,1-1.606,6.907,30.449,30.449,0,0,1-7.682,11.767,31.216,31.216,0,0,1-5.645,4.227,29.9,29.9,0,0,1-13.352,3.971l-.243-3.1a27.987,27.987,0,0,0,6.1-1.359,26.224,26.224,0,0,0,5.611-2.659,27.568,27.568,0,0,0,4.861-3.832,29.005,29.005,0,0,0,3.86-4.82,27.05,27.05,0,0,0,2.549-23.675,26.746,26.746,0,0,0-6.657-10.256,27.472,27.472,0,0,0-10.539-6.3,26.464,26.464,0,0,0-6.081-1.2,28.938,28.938,0,0,0-6.222.211,46.03,46.03,0,0,0-6.165,1.283c-2.059.565-4.1,1.3-6.257,2.08Z" transform="translate(-726.696 -1557.405)"/><g transform="translate(23.833 0.052)"><path d="M879.85,1495.967c.556,3.29,1.191,8.75-.447,10.151-.876.758-2.414.338-4.968-2.217,0,0-2.952,24.088-9.726,11.223a87.425,87.425,0,0,1-7.546,5.137s9.548,7.979,7.008,17.66c0,0-3.7,1.752-7.322-3.021.26.5,6.5,12.437-.009,18.564,0,0-3.618.685-7.723-6.26,0,0-3.029,20.338-37.638,20.338H752.183a31.209,31.209,0,0,1-13.531-3,25.32,25.32,0,0,1-12.811-13.276s-1.027,5.913-5.233,4.79-4.936-12.66-1.414-20.288c0,0-10.169-1.268,3.029-16.031,0,0-1.469-34.166,30.8-59.281q3.059-2.388,6.542-4.653a.012.012,0,0,1-.009,0c-.2-.151-3.3-2.551-3.367-4.4-.142-3.668,8.787-3.226,15.529.36a18.046,18.046,0,0,1-5.479-8.016,2.873,2.873,0,0,1,3.006-3.672,35.057,35.057,0,0,1,20.817,9.572,19.671,19.671,0,0,1,8.075.319,46.832,46.832,0,0,1,81.9,41.1,11.7,11.7,0,0,0-.191,4.9Z" transform="translate(-713.623 -1430.499)" fill="#939290"/><ellipse cx="19.49" cy="17.248" rx="19.49" ry="17.248" transform="translate(34.359 98.732)" fill="#fff"/><path d="M955.253,2140.294a10.715,10.715,0,0,0-1.931-6.443,4.933,4.933,0,0,0-8.643,1.578c-.422,1.553-.024,3.2,2.4,4.446a18.047,18.047,0,0,0,5.849,2.048A1.746,1.746,0,0,0,955.253,2140.294Z" transform="translate(-920.452 -2062.15)" fill="#fff"/><path d="M1463.222,2117.451A11.746,11.746,0,0,1,1466.8,2111a5.409,5.409,0,0,1,8.887,3.719c.087,1.763-.725,3.436-3.618,4.2a19.789,19.789,0,0,1-6.746.821,1.915,1.915,0,0,1-2.1-2.289Z" transform="translate(-1388.719 -2042.114)" fill="#fff"/><g transform="translate(37.953 77.033)" opacity="0.3"><path d="M1120.707,2226.553c-1.842-10.664-7.977-16.138-12.268-18.732a7.989,7.989,0,0,0-8.577.213c-4.993,3.352-12.673,10.823-12.5,25.006a16.158,16.158,0,0,0,4.407,11.107,14.752,14.752,0,0,0,3.292,2.559,5.4,5.4,0,0,1,2.407,2.762,18.546,18.546,0,0,0,3.325,5.795,1.535,1.535,0,0,0,2.547-.585,16.407,16.407,0,0,1,2.035-4.093,6.383,6.383,0,0,1,3.932-2.5c8.643-1.75,13.787-7.745,11.4-21.538Z" transform="translate(-1087.36 -2206.676)"/></g><g transform="translate(39.404 25.302)" opacity="0.3"><path d="M1129.659,1676.847c-.119.274-5.694,12.706-27.359,1.866q3.06-2.388,6.542-4.653S1118.222,1682.2,1129.659,1676.847Z" transform="translate(-1102.3 -1674.06)"/></g><g transform="translate(8.599 25.301)" opacity="0.5"><path d="M826.289,1676.463a39.467,39.467,0,0,1-3.814-2.413s-34.314,17.3-37.345,63.936a124.38,124.38,0,0,1,20.417-41.73c1.74.548,4.745-.973,7.215-3.789,2.393-2.726,3.512-5.788,2.882-7.48A80.819,80.819,0,0,1,826.289,1676.463Z" transform="translate(-785.13 -1674.05)" fill="#fff"/></g><path d="M794.454,1552.417H735.16a33.247,33.247,0,0,1-14.323-3.181,27.241,27.241,0,0,1-11.877-10.577,6.112,6.112,0,0,1-1.671,1.63,5.106,5.106,0,0,1-4.175.579,5.691,5.691,0,0,1-3.6-3.409c-1.991-4.245-1.826-11.726.243-17.542a5.729,5.729,0,0,1-2.774-3.051c-1.318-3.519.769-8.35,6.381-14.757a70.671,70.671,0,0,1,4.158-22.4c4.027-11.576,12.844-27.924,32.045-41.065a6.941,6.941,0,0,1-2.217-4.121,3.73,3.73,0,0,1,1.86-3.394c2.183-1.368,5.959-1.294,9.732-.394a15.426,15.426,0,0,1-1.475-3.439,4.737,4.737,0,0,1,.914-4.332,4.657,4.657,0,0,1,4.022-1.656,36.994,36.994,0,0,1,21.231,9.437,21.677,21.677,0,0,1,6.784.242,48.386,48.386,0,0,1,37.315-17.436h.276a48.681,48.681,0,0,1,46.776,61.026,9.747,9.747,0,0,0-.155,4.136c1.595,9.393-.194,11.5-1.679,12.265a4.144,4.144,0,0,1-4.2-.548c-.9,5.257-2.837,12.6-6.643,13.294-2.215.4-3.9-1.325-4.959-2.88-1.11.806-2.624,1.88-4.04,2.8,2.861,3.056,7.905,9.813,5.81,17.79a1.827,1.827,0,0,1-.984,1.186,6.709,6.709,0,0,1-4.223.288c1.265,4.545,1.8,10.759-2.64,14.935a1.814,1.814,0,0,1-.911.464c-.42.081-3.683.519-7.464-4.009a24.545,24.545,0,0,1-5.15,7.417c-4.882,4.881-14.585,10.7-33.087,10.7Zm-85.636-19.924a1.822,1.822,0,0,1,1.685,1.125,23.352,23.352,0,0,0,11.916,12.329,29.567,29.567,0,0,0,12.742,2.821h59.294c32.656,0,35.805-18.591,35.833-18.778a1.825,1.825,0,0,1,3.376-.661c2.438,4.122,4.517,5.088,5.423,5.312,4.636-5.4-.819-15.728-.876-15.835a1.825,1.825,0,0,1,3.063-1.965c1.758,2.328,3.389,2.682,4.331,2.626,1.3-7.972-6.554-14.688-6.638-14.757a1.827,1.827,0,0,1,.3-3,86.334,86.334,0,0,0,7.324-4.991,1.826,1.826,0,0,1,2.715.606c1.367,2.6,2.175,2.807,2.182,2.808,1.3-.411,3.321-6.925,4.117-13.4a1.825,1.825,0,0,1,3.1-1.067,8.11,8.11,0,0,0,2.572,1.974c.3-.669.659-2.988-.246-8.315a13.394,13.394,0,0,1,.223-5.673,45.031,45.031,0,0,0-43.266-56.449h-.255a44.773,44.773,0,0,0-35.187,16.95,1.824,1.824,0,0,1-1.916.62,17.937,17.937,0,0,0-7.224-.288,1.829,1.829,0,0,1-1.619-.47,33.324,33.324,0,0,0-19.731-9.071.986.986,0,0,0-.87.36,1.082,1.082,0,0,0-.208,1,16.3,16.3,0,0,0,4.882,7.1,1.825,1.825,0,0,1-2,3.034c-5.926-3.157-12.241-3.093-12.866-2.081.052.585,1.341,2.05,2.654,3.049a1.826,1.826,0,0,1-.109,2.985c-19.716,12.789-28.594,29.1-32.569,40.525-4.3,12.349-3.949,21.709-3.945,21.8a1.827,1.827,0,0,1-.462,1.295c-6.678,7.469-6.534,10.588-6.161,11.582a2.7,2.7,0,0,0,2,1.423,1.824,1.824,0,0,1,1.431,2.575c-2.532,5.488-2.564,13.008-1.008,16.326.375.8.828,1.322,1.24,1.433a1.449,1.449,0,0,0,1.262-.125c1.031-.654,1.586-2.592,1.7-3.221a1.827,1.827,0,0,1,1.6-1.493,1.886,1.886,0,0,1,.2-.011Z" transform="translate(-696.6 -1413.55)"/><g transform="translate(10.116 17.562)"><path d="M1536,1597.537a10.81,10.81,0,0,1-1.725,1.355,6.024,6.024,0,0,1-2.161.991l-.029.006a.705.705,0,0,1-.829-.551.736.736,0,0,1-.01-.221,5.867,5.867,0,0,1,.852-2.245,11.519,11.519,0,0,1,1.289-1.882,1.827,1.827,0,1,1,2.754,2.4q-.038.044-.079.084l-.062.062Z" transform="translate(-1460.288 -1594.364)"/><path d="M1668.841,1672.43a2.885,2.885,0,0,1-.669.743,8.155,8.155,0,0,1-.859.6,16.825,16.825,0,0,1-1.917,1.056l-.045.02a.643.643,0,0,1-.855-.31.654.654,0,0,1-.059-.321,8.529,8.529,0,0,1,.529-2.292,6.938,6.938,0,0,1,.441-1.016,2.993,2.993,0,0,1,.657-.851,1.849,1.849,0,0,1,2.8,2.321l-.028.049Z" transform="translate(-1580.55 -1662.313)"/><path d="M2129.3,2313.315a10.216,10.216,0,0,1-.915-.811c-.3-.3-.6-.607-.891-.933-.593-.641-1.189-1.285-1.818-1.99l-.006-.007a.323.323,0,0,1,.224-.537,8.876,8.876,0,0,1,1.45.048,12.445,12.445,0,0,1,1.405.242,11.4,11.4,0,0,1,1.352.386,6.621,6.621,0,0,1,1.271.6,1.826,1.826,0,0,1-1.953,3.087c-.039-.024-.076-.05-.112-.077l-.008-.006Z" transform="translate(-1996.914 -2239.615)"/><path d="M2055.88,2198.722a6.755,6.755,0,0,1-1.182.648,10.6,10.6,0,0,1-1.261.462,7,7,0,0,1-2.777.323.524.524,0,0,1-.357-.838l.021-.026a22.211,22.211,0,0,1,1.67-1.908c.283-.292.564-.58.855-.851a10.342,10.342,0,0,1,.875-.755l.015-.011a1.825,1.825,0,0,1,2.175,2.931l-.036.026Z" transform="translate(-1928.844 -2137.03)"/><path d="M1153.865,1655.7c.09.08.273.235.425.353l.49.382c.334.253.679.5,1.035.727a22.87,22.87,0,0,0,2.206,1.274,19.141,19.141,0,0,0,4.794,1.677,18.792,18.792,0,0,0,5.125.279,27.585,27.585,0,0,0,5.261-1.039l.006,0a.509.509,0,0,1,.441.9,16.265,16.265,0,0,1-5.291,2.5,17.131,17.131,0,0,1-5.992.454,19.5,19.5,0,0,1-5.855-1.544,19.727,19.727,0,0,1-2.676-1.427c-.428-.271-.846-.559-1.258-.865-.2-.153-.411-.307-.61-.477s-.38-.322-.63-.559a1.824,1.824,0,0,1,2.453-2.7l.073.064Z" transform="translate(-1116.775 -1649.281)"/><path d="M801.129,2612.746a4.425,4.425,0,0,1-.313-1.212,8.919,8.919,0,0,1-.055-1.295,12.277,12.277,0,0,1,.086-1.333,9.533,9.533,0,0,1,.261-1.379.255.255,0,0,1,.406-.132l.007,0a10.187,10.187,0,0,1,1.031.967,12.851,12.851,0,0,1,.857,1.013,8.767,8.767,0,0,1,.715,1.052,4.193,4.193,0,0,1,.457,1.134l.01.05a1.834,1.834,0,0,1-3.464,1.132Z" transform="translate(-800.756 -2508.952)"/><path d="M880.943,2296.456a25.949,25.949,0,0,0,4.088,2.21,9.041,9.041,0,0,0,3.805.705,9.95,9.95,0,0,0,1.895-.285,15.589,15.589,0,0,0,1.975-.695c1.358-.555,2.724-1.347,4.268-2.114l.014-.007a.657.657,0,0,1,.891.86,11.078,11.078,0,0,1-3.385,4.226l-.577.418c-.2.139-.413.249-.62.373a10.036,10.036,0,0,1-1.327.641,9.5,9.5,0,0,1-2.989.612,8.568,8.568,0,0,1-3.059-.45,9.137,9.137,0,0,1-5.742-6,.476.476,0,0,1,.711-.531l.051.032Z" transform="translate(-872.45 -2228.036)"/><path d="M1448.373,2296.456a25.952,25.952,0,0,0,4.088,2.21,9.038,9.038,0,0,0,3.805.705,9.947,9.947,0,0,0,1.895-.285,15.585,15.585,0,0,0,1.975-.695c1.357-.555,2.724-1.347,4.268-2.114l.014-.007a.657.657,0,0,1,.891.86,11.078,11.078,0,0,1-3.385,4.226l-.577.418c-.194.139-.412.249-.62.373a9.976,9.976,0,0,1-1.327.641,9.5,9.5,0,0,1-2.99.612,8.567,8.567,0,0,1-3.058-.45,9.138,9.138,0,0,1-5.742-6,.476.476,0,0,1,.711-.531l.051.032Z" transform="translate(-1384.768 -2228.036)"/><path d="M1094.57,2212.682c-4.756,3.193-12.071,10.309-11.906,23.818a15.392,15.392,0,0,0,4.2,10.579,14.213,14.213,0,0,0,10.6,4.31c11.732,0,19.748-4.937,16.962-21.067-1.754-10.156-7.6-15.372-11.685-17.841a7.607,7.607,0,0,0-8.169.2Z" transform="translate(-1055.282 -2151.46)"/><path d="M1218.33,2546.266c.031,1.078-.054,2.258-.135,3.382s-.2,2.272-.315,3.411l-.378,3.45c-.159,1.169-.262,2.342-.512,3.595l0,.02a.488.488,0,0,1-.892.162,13.4,13.4,0,0,1-1.519-3.52,18.8,18.8,0,0,1-.663-3.731,21.037,21.037,0,0,1,.021-3.768,18.173,18.173,0,0,1,.285-1.867,12.528,12.528,0,0,1,.538-1.874,1.849,1.849,0,0,1,3.572.614l0,.123Z" transform="translate(-1173.717 -2452.08)"/></g><g transform="translate(95.164 13.621)"><path d="M1695.5,1587.863s6.311-10.593,24.112-10.593a32.746,32.746,0,0,1,14.945,61.88S1726.018,1601.9,1695.5,1587.863Z" transform="translate(-1693.645 -1574.989)" fill="#fff"/><path d="M1729.377,1570.293a46.023,46.023,0,0,0-5.5-4.841,38.747,38.747,0,0,0-6.089-3.667,34.527,34.527,0,0,0-13.367-3.41,40.707,40.707,0,0,0-6.931.332c-1.148.144-2.272.385-3.394.618a30.548,30.548,0,0,0-6.422,2.259,28.441,28.441,0,0,0-2.94,1.672,25.43,25.43,0,0,0-2.681,2.038c-.423.366-.818.759-1.206,1.151-.2.2-.379.4-.557.6l-.465.55-.8-2.583h0a61.713,61.713,0,0,1,14.345,9.287,77.217,77.217,0,0,1,11.574,12.51,84.8,84.8,0,0,1,8.708,14.6c1.217,2.56,2.269,5.194,3.225,7.861.486,1.332.9,2.688,1.306,4.05.4,1.377.765,2.709,1.092,4.183l-2.768-1.384c.134-.059.378-.163.576-.26s.421-.205.63-.314c.425-.212.855-.431,1.279-.666.861-.451,1.712-.94,2.585-1.427l2.631-1.517c.456-.247.891-.523,1.364-.771.238-.121.46-.261.694-.391s.474-.257.728-.375a15.119,15.119,0,0,1-1.538,2.864,19.634,19.634,0,0,1-2.033,2.521,21.381,21.381,0,0,1-2.42,2.18c-.433.333-.885.647-1.347.952-.235.148-.472.292-.719.435l-.375.213c-.133.074-.243.133-.427.22a1.97,1.97,0,0,1-2.735-1.262l-.033-.122c-.327-1.219-.749-2.547-1.181-3.812s-.919-2.545-1.392-3.813c-.956-2.535-2.048-5.017-3.177-7.479a97.669,97.669,0,0,0-7.993-14.1,65.932,65.932,0,0,0-10.669-12.11,56.2,56.2,0,0,0-13.45-8.766h0a1.723,1.723,0,0,1-.98-2.231,1.689,1.689,0,0,1,.1-.207l.082-.145c.128-.23.2-.355.3-.519s.192-.3.291-.445c.2-.287.4-.567.605-.837a19.518,19.518,0,0,1,1.321-1.542,23.427,23.427,0,0,1,3-2.674,24.871,24.871,0,0,1,3.374-2.154,28.828,28.828,0,0,1,3.63-1.65,37.094,37.094,0,0,1,3.795-1.148,32.743,32.743,0,0,1,3.877-.679,38.7,38.7,0,0,1,7.817-.171,31.426,31.426,0,0,1,14.693,5.038,29.152,29.152,0,0,1,5.808,5.048,25.754,25.754,0,0,1,4.163,6.3Z" transform="translate(-1676.404 -1553.789)"/></g><g transform="translate(10.676 15.832)" opacity="0.3"><path d="M961.625,1636.34c-.876.758-2.414.338-4.968-2.218,0,0-2.952,24.088-9.726,11.223a87.452,87.452,0,0,1-7.546,5.137s9.548,7.979,7.008,17.66c0,0-3.7,1.752-7.322-3.021.26.5,6.5,12.437-.009,18.564,0,0-3.618.685-7.723-6.26,0,0-3.029,20.338-37.638,20.338H834.4a31.211,31.211,0,0,1-13.531-3,25.319,25.319,0,0,1-12.811-13.276l-1.542-4.785s4.667.826,6.916,4.785,4.2,10.606,53.866,9.626c43.788-.863,78.894-34.143,23.025-100.267,0,0,7.769-16.164,28.888-14.11,0,0,14.042-.223,24.768,14.11a41.921,41.921,0,0,0-10.839-5.311c-10.179-3.392-18.569,8.512-11.849,16.875a75.229,75.229,0,0,1,13.536,25.928,9.951,9.951,0,0,0,9.8-1.451,13.7,13.7,0,0,1-.648,8.5,16.5,16.5,0,0,0,10.913-14.567,44.832,44.832,0,0,1,6.729,15.516Z" transform="translate(-806.52 -1576.554)"/></g></g></g><path d="M898.281,2805.65a19.372,19.372,0,0,1-4.371,1.161,31.237,31.237,0,0,1-4.371.35l-8.741.033-17.482.057-34.963.115-69.926.015-69.926-.252-34.963-.179-17.482-.089a101.318,101.318,0,0,1-17.482-1.181.374.374,0,0,1,0-.737,101.324,101.324,0,0,1,17.482-1.181l17.482-.089,34.963-.179,69.926-.252,69.926.016,34.963.115,17.482.057,8.741.033a31.238,31.238,0,0,1,4.371.35,19.346,19.346,0,0,1,4.371,1.161.368.368,0,0,1,0,.68Z" transform="translate(-602.039 -2682.674)"/><g transform="translate(56.806 -64.844)"><path d="M772.654,1054.849a2.04,2.04,0,0,1-.386-.037l-24.014-4.672a2.009,2.009,0,0,1-.749-3.631l24.759-16.885-19.287-3.752a2.009,2.009,0,0,1,.767-3.945l24.014,4.673a2.009,2.009,0,0,1,.749,3.631l-24.759,16.885,19.287,3.752a2.01,2.01,0,0,1-.383,3.983Z" transform="translate(-701.089 -1021.887)"/><path d="M914.5,1178.712a1.782,1.782,0,0,1,.42-3.275l15.545-4.11-11.025-3.719a1.782,1.782,0,1,1,1.14-3.377l16.644,5.615a1.783,1.783,0,0,1-.115,3.412l-15.239,4.029,11.021,3.376a1.783,1.783,0,0,1-1.045,3.409l-16.995-5.206a1.865,1.865,0,0,1-.354-.151Z" transform="translate(-913.597 -1141.182)"/><path d="M1071.807,1332.611a.753.753,0,0,1-.6-1.208l7.6-10.075-9.22,2.581a.755.755,0,0,1-.407-1.454l11.37-3.183a.754.754,0,0,1,.8,1.18l-7.6,10.075,9.22-2.581a.754.754,0,0,1,.407,1.453l-11.37,3.184a.753.753,0,0,1-.2.027Z" transform="translate(-1030.739 -1271.568)"/></g></g></svg>